%TF.GenerationSoftware,KiCad,Pcbnew,8.0.5*%
%TF.CreationDate,2024-10-10T01:08:20+09:00*%
%TF.ProjectId,BD,42442e6b-6963-4616-945f-706362585858,rev?*%
%TF.SameCoordinates,Original*%
%TF.FileFunction,Copper,L2,Inr*%
%TF.FilePolarity,Positive*%
%FSLAX46Y46*%
G04 Gerber Fmt 4.6, Leading zero omitted, Abs format (unit mm)*
G04 Created by KiCad (PCBNEW 8.0.5) date 2024-10-10 01:08:20*
%MOMM*%
%LPD*%
G01*
G04 APERTURE LIST*
%TA.AperFunction,ComponentPad*%
%ADD10R,1.700000X1.700000*%
%TD*%
%TA.AperFunction,ComponentPad*%
%ADD11O,1.700000X1.700000*%
%TD*%
%TA.AperFunction,ComponentPad*%
%ADD12C,1.524000*%
%TD*%
%TA.AperFunction,ComponentPad*%
%ADD13R,1.800000X1.800000*%
%TD*%
%TA.AperFunction,ComponentPad*%
%ADD14C,1.800000*%
%TD*%
%TA.AperFunction,ComponentPad*%
%ADD15O,1.600000X1.600000*%
%TD*%
%TA.AperFunction,ComponentPad*%
%ADD16R,1.600000X1.600000*%
%TD*%
%TA.AperFunction,ViaPad*%
%ADD17C,0.600000*%
%TD*%
%TA.AperFunction,Conductor*%
%ADD18C,0.200000*%
%TD*%
G04 APERTURE END LIST*
D10*
%TO.N,Net-(J2-Pin_1)*%
%TO.C,J2*%
X18425000Y-59665000D03*
D11*
%TO.N,Net-(J2-Pin_2)*%
X20965000Y-59665000D03*
%TO.N,Net-(J2-Pin_3)*%
X23505000Y-59665000D03*
%TO.N,Net-(J2-Pin_4)*%
X26045000Y-59665000D03*
%TD*%
D12*
%TO.N,SW1*%
%TO.C,SW1*%
X24892000Y-31115000D03*
%TO.N,GND*%
X27432000Y-31115000D03*
%TO.N,N/C*%
X27432000Y-23495000D03*
X24892000Y-23495000D03*
%TD*%
%TO.N,GND*%
%TO.C,U1*%
X27432000Y-56515000D03*
X27432000Y-53975000D03*
%TO.N,+5V*%
X27432000Y-51435000D03*
%TO.N,IN4*%
X27432000Y-48895000D03*
%TO.N,IN3*%
X27432000Y-46355000D03*
%TO.N,IN2*%
X27432000Y-43815000D03*
%TO.N,IN1*%
X27432000Y-41275000D03*
%TO.N,GND*%
X27432000Y-38735000D03*
%TO.N,unconnected-(U1-GND-Pad9)*%
X17272000Y-38735000D03*
%TO.N,unconnected-(U1-GND-Pad10)*%
X17272000Y-41275000D03*
%TO.N,Net-(J2-Pin_4)*%
X17272000Y-43815000D03*
%TO.N,Net-(J2-Pin_3)*%
X17272000Y-46355000D03*
%TO.N,Net-(J2-Pin_2)*%
X17272000Y-48895000D03*
%TO.N,Net-(J2-Pin_1)*%
X17272000Y-51435000D03*
%TO.N,VCC*%
X17272000Y-53975000D03*
X17272000Y-56515000D03*
%TD*%
D13*
%TO.N,GND*%
%TO.C,D2*%
X18542000Y-34671000D03*
D14*
%TO.N,Net-(A1-D4)*%
X21082000Y-34671000D03*
%TD*%
D12*
%TO.N,SW2*%
%TO.C,SW2*%
X21082000Y-31115000D03*
%TO.N,GND*%
X18542000Y-31115000D03*
%TO.N,N/C*%
X21082000Y-23495000D03*
X18542000Y-23495000D03*
%TD*%
D10*
%TO.N,VCC*%
%TO.C,J3*%
X20955000Y-57150000D03*
D11*
%TO.N,GND*%
X23495000Y-57150000D03*
%TD*%
D13*
%TO.N,GND*%
%TO.C,D1*%
X24257000Y-34417000D03*
D14*
%TO.N,Net-(A1-D2)*%
X26797000Y-34417000D03*
%TD*%
D11*
%TO.N,Net-(A1-SCL{slash}A5)*%
%TO.C,J1*%
X15748000Y-17653000D03*
%TO.N,Net-(A1-SDA{slash}A4)*%
X18288000Y-17653000D03*
%TO.N,Net-(A1-A3)*%
X20828000Y-17653000D03*
%TO.N,Net-(A1-A2)*%
X23368000Y-17653000D03*
%TO.N,Net-(A1-A1)*%
X25908000Y-17653000D03*
D10*
%TO.N,Net-(A1-A0)*%
X28448000Y-17653000D03*
%TD*%
D15*
%TO.N,VCC*%
%TO.C,A1*%
X14722000Y-23495000D03*
%TO.N,GND*%
X14722000Y-26035000D03*
%TO.N,unconnected-(A1-~{RESET}-Pad28)*%
X14722000Y-28575000D03*
%TO.N,+5V*%
X14722000Y-31115000D03*
%TO.N,SW2*%
X14722000Y-33655000D03*
%TO.N,SW1*%
X14722000Y-36195000D03*
%TO.N,Net-(A1-SCL{slash}A5)*%
X14722000Y-38735000D03*
%TO.N,Net-(A1-SDA{slash}A4)*%
X14722000Y-41275000D03*
%TO.N,Net-(A1-A3)*%
X14722000Y-43815000D03*
%TO.N,Net-(A1-A2)*%
X14722000Y-46355000D03*
%TO.N,Net-(A1-A1)*%
X14722000Y-48895000D03*
%TO.N,Net-(A1-A0)*%
X14722000Y-51435000D03*
%TO.N,unconnected-(A1-AREF-Pad18)*%
X14722000Y-53975000D03*
%TO.N,unconnected-(A1-3V3-Pad17)*%
X14722000Y-56515000D03*
%TO.N,unconnected-(A1-SCK-Pad16)*%
X14722000Y-59055000D03*
%TO.N,unconnected-(A1-MISO-Pad15)*%
X29962000Y-59055000D03*
%TO.N,unconnected-(A1-MOSI-Pad14)*%
X29962000Y-56515000D03*
%TO.N,IN4*%
X29962000Y-53975000D03*
%TO.N,IN3*%
X29962000Y-51435000D03*
%TO.N,unconnected-(A1-D8-Pad11)*%
X29962000Y-48895000D03*
%TO.N,unconnected-(A1-D7-Pad10)*%
X29962000Y-46355000D03*
%TO.N,IN2*%
X29962000Y-43815000D03*
%TO.N,IN1*%
X29962000Y-41275000D03*
%TO.N,Net-(A1-D4)*%
X29962000Y-38735000D03*
%TO.N,unconnected-(A1-D3-Pad6)*%
X29962000Y-36195000D03*
%TO.N,Net-(A1-D2)*%
X29962000Y-33655000D03*
%TO.N,GND*%
X29962000Y-31115000D03*
%TO.N,unconnected-(A1-~{RESET}-Pad3)*%
X29962000Y-28575000D03*
%TO.N,unconnected-(A1-RX1-Pad2)*%
X29962000Y-26035000D03*
D16*
%TO.N,unconnected-(A1-TX1-Pad1)*%
X29962000Y-23495000D03*
%TD*%
D17*
%TO.N,Net-(A1-SCL{slash}A5)*%
X16672000Y-31623000D03*
%TO.N,Net-(A1-A3)*%
X17228735Y-37000265D03*
X17272000Y-30353000D03*
%TO.N,SW1*%
X20574000Y-39497000D03*
%TO.N,SW2*%
X23876000Y-39497000D03*
%TO.N,+5V*%
X21082000Y-45720000D03*
%TD*%
D18*
%TO.N,Net-(A1-SCL{slash}A5)*%
X16256000Y-31207000D02*
X16672000Y-31623000D01*
X16256000Y-30353000D02*
X16256000Y-31207000D01*
X16256000Y-18161000D02*
X16256000Y-30353000D01*
X15748000Y-17653000D02*
X16256000Y-18161000D01*
%TO.N,Net-(A1-A3)*%
X19978000Y-27647000D02*
X19978000Y-19265000D01*
X17272000Y-30353000D02*
X19978000Y-27647000D01*
X19978000Y-19265000D02*
X20828000Y-18415000D01*
%TO.N,SW1*%
X20574000Y-38227000D02*
X20574000Y-39497000D01*
X18542000Y-36195000D02*
X20574000Y-38227000D01*
X14722000Y-36195000D02*
X18542000Y-36195000D01*
%TO.N,Net-(A1-A3)*%
X15992000Y-42545000D02*
X14722000Y-43815000D01*
X18034000Y-42545000D02*
X15992000Y-42545000D01*
X18796000Y-41783000D02*
X18034000Y-42545000D01*
X18796000Y-38481000D02*
X18796000Y-41783000D01*
X17315265Y-37000265D02*
X18796000Y-38481000D01*
X17228735Y-37000265D02*
X17315265Y-37000265D01*
%TO.N,SW2*%
X19304000Y-32893000D02*
X21082000Y-31115000D01*
X15484000Y-32893000D02*
X19304000Y-32893000D01*
X14722000Y-33655000D02*
X15484000Y-32893000D01*
%TO.N,Net-(J2-Pin_4)*%
X26162000Y-52705000D02*
X26162000Y-59055000D01*
X17272000Y-43815000D02*
X26162000Y-52705000D01*
%TO.N,SW2*%
X22606000Y-32639000D02*
X21082000Y-31115000D01*
X22606000Y-38227000D02*
X22606000Y-32639000D01*
X23876000Y-39497000D02*
X22606000Y-38227000D01*
%TD*%
M02*
