%TF.GenerationSoftware,KiCad,Pcbnew,8.0.5*%
%TF.CreationDate,2024-10-10T01:08:20+09:00*%
%TF.ProjectId,BD,42442e6b-6963-4616-945f-706362585858,rev?*%
%TF.SameCoordinates,Original*%
%TF.FileFunction,Soldermask,Bot*%
%TF.FilePolarity,Negative*%
%FSLAX46Y46*%
G04 Gerber Fmt 4.6, Leading zero omitted, Abs format (unit mm)*
G04 Created by KiCad (PCBNEW 8.0.5) date 2024-10-10 01:08:20*
%MOMM*%
%LPD*%
G01*
G04 APERTURE LIST*
%ADD10R,1.700000X1.700000*%
%ADD11O,1.700000X1.700000*%
%ADD12C,1.524000*%
%ADD13R,1.800000X1.800000*%
%ADD14C,1.800000*%
%ADD15O,1.600000X1.600000*%
%ADD16R,1.600000X1.600000*%
G04 APERTURE END LIST*
D10*
%TO.C,J2*%
X18425000Y-59665000D03*
D11*
X20965000Y-59665000D03*
X23505000Y-59665000D03*
X26045000Y-59665000D03*
%TD*%
D12*
%TO.C,SW1*%
X24892000Y-31115000D03*
X27432000Y-31115000D03*
X27432000Y-23495000D03*
X24892000Y-23495000D03*
%TD*%
%TO.C,U1*%
X27432000Y-56515000D03*
X27432000Y-53975000D03*
X27432000Y-51435000D03*
X27432000Y-48895000D03*
X27432000Y-46355000D03*
X27432000Y-43815000D03*
X27432000Y-41275000D03*
X27432000Y-38735000D03*
X17272000Y-38735000D03*
X17272000Y-41275000D03*
X17272000Y-43815000D03*
X17272000Y-46355000D03*
X17272000Y-48895000D03*
X17272000Y-51435000D03*
X17272000Y-53975000D03*
X17272000Y-56515000D03*
%TD*%
D13*
%TO.C,D2*%
X18542000Y-34671000D03*
D14*
X21082000Y-34671000D03*
%TD*%
D12*
%TO.C,SW2*%
X21082000Y-31115000D03*
X18542000Y-31115000D03*
X21082000Y-23495000D03*
X18542000Y-23495000D03*
%TD*%
D10*
%TO.C,J3*%
X20955000Y-57150000D03*
D11*
X23495000Y-57150000D03*
%TD*%
D13*
%TO.C,D1*%
X24257000Y-34417000D03*
D14*
X26797000Y-34417000D03*
%TD*%
D11*
%TO.C,J1*%
X15748000Y-17653000D03*
X18288000Y-17653000D03*
X20828000Y-17653000D03*
X23368000Y-17653000D03*
X25908000Y-17653000D03*
D10*
X28448000Y-17653000D03*
%TD*%
D15*
%TO.C,A1*%
X14722000Y-23495000D03*
X14722000Y-26035000D03*
X14722000Y-28575000D03*
X14722000Y-31115000D03*
X14722000Y-33655000D03*
X14722000Y-36195000D03*
X14722000Y-38735000D03*
X14722000Y-41275000D03*
X14722000Y-43815000D03*
X14722000Y-46355000D03*
X14722000Y-48895000D03*
X14722000Y-51435000D03*
X14722000Y-53975000D03*
X14722000Y-56515000D03*
X14722000Y-59055000D03*
X29962000Y-59055000D03*
X29962000Y-56515000D03*
X29962000Y-53975000D03*
X29962000Y-51435000D03*
X29962000Y-48895000D03*
X29962000Y-46355000D03*
X29962000Y-43815000D03*
X29962000Y-41275000D03*
X29962000Y-38735000D03*
X29962000Y-36195000D03*
X29962000Y-33655000D03*
X29962000Y-31115000D03*
X29962000Y-28575000D03*
X29962000Y-26035000D03*
D16*
X29962000Y-23495000D03*
%TD*%
M02*
