M48
; DRILL file {KiCad 8.0.5} date 2024-10-10T01:08:20+0900
; FORMAT={-:-/ absolute / inch / decimal}
; #@! TF.CreationDate,2024-10-10T01:08:20+09:00
; #@! TF.GenerationSoftware,Kicad,Pcbnew,8.0.5
; #@! TF.FileFunction,Plated,1,4,PTH
FMAT,2
INCH
; #@! TA.AperFunction,Plated,PTH,ViaDrill
T1C0.0118
; #@! TA.AperFunction,Plated,PTH,ComponentDrill
T2C0.0300
; #@! TA.AperFunction,Plated,PTH,ComponentDrill
T3C0.0354
; #@! TA.AperFunction,Plated,PTH,ComponentDrill
T4C0.0394
%
G90
G05
T1
X0.6564Y-1.245
X0.6783Y-1.4567
X0.68Y-1.195
X0.81Y-1.555
X0.83Y-1.8
X0.94Y-1.555
T2
X0.68Y-1.525
X0.68Y-1.625
X0.68Y-1.725
X0.68Y-1.825
X0.68Y-1.925
X0.68Y-2.025
X0.68Y-2.125
X0.68Y-2.225
X0.73Y-0.925
X0.73Y-1.225
X0.83Y-0.925
X0.83Y-1.225
X0.98Y-0.925
X0.98Y-1.225
X1.08Y-0.925
X1.08Y-1.225
X1.08Y-1.525
X1.08Y-1.625
X1.08Y-1.725
X1.08Y-1.825
X1.08Y-1.925
X1.08Y-2.025
X1.08Y-2.125
X1.08Y-2.225
T3
X0.73Y-1.365
X0.83Y-1.365
X0.955Y-1.355
X1.055Y-1.355
T4
X0.5796Y-0.925
X0.5796Y-1.025
X0.5796Y-1.125
X0.5796Y-1.225
X0.5796Y-1.325
X0.5796Y-1.425
X0.5796Y-1.525
X0.5796Y-1.625
X0.5796Y-1.725
X0.5796Y-1.825
X0.5796Y-1.925
X0.5796Y-2.025
X0.5796Y-2.125
X0.5796Y-2.225
X0.5796Y-2.325
X0.62Y-0.695
X0.72Y-0.695
X0.7254Y-2.349
X0.82Y-0.695
X0.825Y-2.25
X0.8254Y-2.349
X0.92Y-0.695
X0.925Y-2.25
X0.9254Y-2.349
X1.02Y-0.695
X1.0254Y-2.349
X1.12Y-0.695
X1.1796Y-0.925
X1.1796Y-1.025
X1.1796Y-1.125
X1.1796Y-1.225
X1.1796Y-1.325
X1.1796Y-1.425
X1.1796Y-1.525
X1.1796Y-1.625
X1.1796Y-1.725
X1.1796Y-1.825
X1.1796Y-1.925
X1.1796Y-2.025
X1.1796Y-2.125
X1.1796Y-2.225
X1.1796Y-2.325
M30
