%TF.GenerationSoftware,KiCad,Pcbnew,8.0.5*%
%TF.CreationDate,2024-10-10T01:08:20+09:00*%
%TF.ProjectId,BD,42442e6b-6963-4616-945f-706362585858,rev?*%
%TF.SameCoordinates,Original*%
%TF.FileFunction,Legend,Bot*%
%TF.FilePolarity,Positive*%
%FSLAX46Y46*%
G04 Gerber Fmt 4.6, Leading zero omitted, Abs format (unit mm)*
G04 Created by KiCad (PCBNEW 8.0.5) date 2024-10-10 01:08:20*
%MOMM*%
%LPD*%
G01*
G04 APERTURE LIST*
%ADD10C,0.150000*%
%ADD11C,0.120000*%
%ADD12R,1.700000X1.700000*%
%ADD13O,1.700000X1.700000*%
%ADD14C,1.524000*%
%ADD15R,1.800000X1.800000*%
%ADD16C,1.800000*%
%ADD17O,1.600000X1.600000*%
%ADD18R,1.600000X1.600000*%
G04 APERTURE END LIST*
D10*
X23056285Y-18584104D02*
X22580095Y-18584104D01*
X23151523Y-18869819D02*
X22818190Y-17869819D01*
X22818190Y-17869819D02*
X22484857Y-18869819D01*
X21627714Y-18869819D02*
X22199142Y-18869819D01*
X21913428Y-18869819D02*
X21913428Y-17869819D01*
X21913428Y-17869819D02*
X22008666Y-18012676D01*
X22008666Y-18012676D02*
X22103904Y-18107914D01*
X22103904Y-18107914D02*
X22199142Y-18155533D01*
X23603904Y-58509819D02*
X23603904Y-59319342D01*
X23603904Y-59319342D02*
X23556285Y-59414580D01*
X23556285Y-59414580D02*
X23508666Y-59462200D01*
X23508666Y-59462200D02*
X23413428Y-59509819D01*
X23413428Y-59509819D02*
X23222952Y-59509819D01*
X23222952Y-59509819D02*
X23127714Y-59462200D01*
X23127714Y-59462200D02*
X23080095Y-59414580D01*
X23080095Y-59414580D02*
X23032476Y-59319342D01*
X23032476Y-59319342D02*
X23032476Y-58509819D01*
X22603904Y-59462200D02*
X22461047Y-59509819D01*
X22461047Y-59509819D02*
X22222952Y-59509819D01*
X22222952Y-59509819D02*
X22127714Y-59462200D01*
X22127714Y-59462200D02*
X22080095Y-59414580D01*
X22080095Y-59414580D02*
X22032476Y-59319342D01*
X22032476Y-59319342D02*
X22032476Y-59224104D01*
X22032476Y-59224104D02*
X22080095Y-59128866D01*
X22080095Y-59128866D02*
X22127714Y-59081247D01*
X22127714Y-59081247D02*
X22222952Y-59033628D01*
X22222952Y-59033628D02*
X22413428Y-58986009D01*
X22413428Y-58986009D02*
X22508666Y-58938390D01*
X22508666Y-58938390D02*
X22556285Y-58890771D01*
X22556285Y-58890771D02*
X22603904Y-58795533D01*
X22603904Y-58795533D02*
X22603904Y-58700295D01*
X22603904Y-58700295D02*
X22556285Y-58605057D01*
X22556285Y-58605057D02*
X22508666Y-58557438D01*
X22508666Y-58557438D02*
X22413428Y-58509819D01*
X22413428Y-58509819D02*
X22175333Y-58509819D01*
X22175333Y-58509819D02*
X22032476Y-58557438D01*
X21270571Y-58986009D02*
X21127714Y-59033628D01*
X21127714Y-59033628D02*
X21080095Y-59081247D01*
X21080095Y-59081247D02*
X21032476Y-59176485D01*
X21032476Y-59176485D02*
X21032476Y-59319342D01*
X21032476Y-59319342D02*
X21080095Y-59414580D01*
X21080095Y-59414580D02*
X21127714Y-59462200D01*
X21127714Y-59462200D02*
X21222952Y-59509819D01*
X21222952Y-59509819D02*
X21603904Y-59509819D01*
X21603904Y-59509819D02*
X21603904Y-58509819D01*
X21603904Y-58509819D02*
X21270571Y-58509819D01*
X21270571Y-58509819D02*
X21175333Y-58557438D01*
X21175333Y-58557438D02*
X21127714Y-58605057D01*
X21127714Y-58605057D02*
X21080095Y-58700295D01*
X21080095Y-58700295D02*
X21080095Y-58795533D01*
X21080095Y-58795533D02*
X21127714Y-58890771D01*
X21127714Y-58890771D02*
X21175333Y-58938390D01*
X21175333Y-58938390D02*
X21270571Y-58986009D01*
X21270571Y-58986009D02*
X21603904Y-58986009D01*
D11*
%TO.C,A1*%
X31362000Y-62995000D02*
X31362000Y-24765000D01*
X31362000Y-60325000D02*
X28692000Y-60325000D01*
X31362000Y-24765000D02*
X28692000Y-24765000D01*
X31362000Y-22225000D02*
X31362000Y-19555000D01*
X31362000Y-22225000D02*
X28692000Y-22225000D01*
X31362000Y-19555000D02*
X13322000Y-19555000D01*
X28692000Y-60325000D02*
X28692000Y-24765000D01*
X28692000Y-22225000D02*
X28692000Y-24765000D01*
X26282000Y-65535000D02*
X18402000Y-65535000D01*
X26282000Y-62995000D02*
X31362000Y-62995000D01*
X26282000Y-55115000D02*
X26282000Y-65535000D01*
X18402000Y-65535000D02*
X18402000Y-55115000D01*
X18402000Y-62995000D02*
X13322000Y-62995000D01*
X18402000Y-55115000D02*
X26282000Y-55115000D01*
X15992000Y-60325000D02*
X15992000Y-22225000D01*
X13322000Y-60325000D02*
X15992000Y-60325000D01*
X13322000Y-22225000D02*
X15992000Y-22225000D01*
X13322000Y-19555000D02*
X13322000Y-62995000D01*
%TD*%
%LPC*%
D12*
%TO.C,J2*%
X18425000Y-59665000D03*
D13*
X20965000Y-59665000D03*
X23505000Y-59665000D03*
X26045000Y-59665000D03*
%TD*%
D14*
%TO.C,SW1*%
X24892000Y-31115000D03*
X27432000Y-31115000D03*
X27432000Y-23495000D03*
X24892000Y-23495000D03*
%TD*%
%TO.C,U1*%
X27432000Y-56515000D03*
X27432000Y-53975000D03*
X27432000Y-51435000D03*
X27432000Y-48895000D03*
X27432000Y-46355000D03*
X27432000Y-43815000D03*
X27432000Y-41275000D03*
X27432000Y-38735000D03*
X17272000Y-38735000D03*
X17272000Y-41275000D03*
X17272000Y-43815000D03*
X17272000Y-46355000D03*
X17272000Y-48895000D03*
X17272000Y-51435000D03*
X17272000Y-53975000D03*
X17272000Y-56515000D03*
%TD*%
D15*
%TO.C,D2*%
X18542000Y-34671000D03*
D16*
X21082000Y-34671000D03*
%TD*%
D14*
%TO.C,SW2*%
X21082000Y-31115000D03*
X18542000Y-31115000D03*
X21082000Y-23495000D03*
X18542000Y-23495000D03*
%TD*%
D12*
%TO.C,J3*%
X20955000Y-57150000D03*
D13*
X23495000Y-57150000D03*
%TD*%
D15*
%TO.C,D1*%
X24257000Y-34417000D03*
D16*
X26797000Y-34417000D03*
%TD*%
D13*
%TO.C,J1*%
X15748000Y-17653000D03*
X18288000Y-17653000D03*
X20828000Y-17653000D03*
X23368000Y-17653000D03*
X25908000Y-17653000D03*
D12*
X28448000Y-17653000D03*
%TD*%
D17*
%TO.C,A1*%
X14722000Y-23495000D03*
X14722000Y-26035000D03*
X14722000Y-28575000D03*
X14722000Y-31115000D03*
X14722000Y-33655000D03*
X14722000Y-36195000D03*
X14722000Y-38735000D03*
X14722000Y-41275000D03*
X14722000Y-43815000D03*
X14722000Y-46355000D03*
X14722000Y-48895000D03*
X14722000Y-51435000D03*
X14722000Y-53975000D03*
X14722000Y-56515000D03*
X14722000Y-59055000D03*
X29962000Y-59055000D03*
X29962000Y-56515000D03*
X29962000Y-53975000D03*
X29962000Y-51435000D03*
X29962000Y-48895000D03*
X29962000Y-46355000D03*
X29962000Y-43815000D03*
X29962000Y-41275000D03*
X29962000Y-38735000D03*
X29962000Y-36195000D03*
X29962000Y-33655000D03*
X29962000Y-31115000D03*
X29962000Y-28575000D03*
X29962000Y-26035000D03*
D18*
X29962000Y-23495000D03*
%TD*%
%LPD*%
M02*
