%TF.GenerationSoftware,KiCad,Pcbnew,8.0.5*%
%TF.CreationDate,2024-10-10T01:08:20+09:00*%
%TF.ProjectId,BD,42442e6b-6963-4616-945f-706362585858,rev?*%
%TF.SameCoordinates,Original*%
%TF.FileFunction,Legend,Top*%
%TF.FilePolarity,Positive*%
%FSLAX46Y46*%
G04 Gerber Fmt 4.6, Leading zero omitted, Abs format (unit mm)*
G04 Created by KiCad (PCBNEW 8.0.5) date 2024-10-10 01:08:20*
%MOMM*%
%LPD*%
G01*
G04 APERTURE LIST*
G04 Aperture macros list*
%AMRoundRect*
0 Rectangle with rounded corners*
0 $1 Rounding radius*
0 $2 $3 $4 $5 $6 $7 $8 $9 X,Y pos of 4 corners*
0 Add a 4 corners polygon primitive as box body*
4,1,4,$2,$3,$4,$5,$6,$7,$8,$9,$2,$3,0*
0 Add four circle primitives for the rounded corners*
1,1,$1+$1,$2,$3*
1,1,$1+$1,$4,$5*
1,1,$1+$1,$6,$7*
1,1,$1+$1,$8,$9*
0 Add four rect primitives between the rounded corners*
20,1,$1+$1,$2,$3,$4,$5,0*
20,1,$1+$1,$4,$5,$6,$7,0*
20,1,$1+$1,$6,$7,$8,$9,0*
20,1,$1+$1,$8,$9,$2,$3,0*%
G04 Aperture macros list end*
%ADD10C,0.150000*%
%ADD11C,0.100000*%
%ADD12C,0.120000*%
%ADD13R,1.700000X1.700000*%
%ADD14O,1.700000X1.700000*%
%ADD15C,1.524000*%
%ADD16RoundRect,0.250000X1.425000X-0.362500X1.425000X0.362500X-1.425000X0.362500X-1.425000X-0.362500X0*%
%ADD17R,1.800000X1.800000*%
%ADD18C,1.800000*%
%ADD19O,1.600000X1.600000*%
%ADD20R,1.600000X1.600000*%
G04 APERTURE END LIST*
D10*
X15109819Y-59998333D02*
X15824104Y-59998333D01*
X15824104Y-59998333D02*
X15966961Y-60045952D01*
X15966961Y-60045952D02*
X16062200Y-60141190D01*
X16062200Y-60141190D02*
X16109819Y-60284047D01*
X16109819Y-60284047D02*
X16109819Y-60379285D01*
X15205057Y-59569761D02*
X15157438Y-59522142D01*
X15157438Y-59522142D02*
X15109819Y-59426904D01*
X15109819Y-59426904D02*
X15109819Y-59188809D01*
X15109819Y-59188809D02*
X15157438Y-59093571D01*
X15157438Y-59093571D02*
X15205057Y-59045952D01*
X15205057Y-59045952D02*
X15300295Y-58998333D01*
X15300295Y-58998333D02*
X15395533Y-58998333D01*
X15395533Y-58998333D02*
X15538390Y-59045952D01*
X15538390Y-59045952D02*
X16109819Y-59617380D01*
X16109819Y-59617380D02*
X16109819Y-58998333D01*
D11*
X26252200Y-25971667D02*
X26204580Y-26114524D01*
X26204580Y-26114524D02*
X26204580Y-26352619D01*
X26204580Y-26352619D02*
X26252200Y-26447857D01*
X26252200Y-26447857D02*
X26299819Y-26495476D01*
X26299819Y-26495476D02*
X26395057Y-26543095D01*
X26395057Y-26543095D02*
X26490295Y-26543095D01*
X26490295Y-26543095D02*
X26585533Y-26495476D01*
X26585533Y-26495476D02*
X26633152Y-26447857D01*
X26633152Y-26447857D02*
X26680771Y-26352619D01*
X26680771Y-26352619D02*
X26728390Y-26162143D01*
X26728390Y-26162143D02*
X26776009Y-26066905D01*
X26776009Y-26066905D02*
X26823628Y-26019286D01*
X26823628Y-26019286D02*
X26918866Y-25971667D01*
X26918866Y-25971667D02*
X27014104Y-25971667D01*
X27014104Y-25971667D02*
X27109342Y-26019286D01*
X27109342Y-26019286D02*
X27156961Y-26066905D01*
X27156961Y-26066905D02*
X27204580Y-26162143D01*
X27204580Y-26162143D02*
X27204580Y-26400238D01*
X27204580Y-26400238D02*
X27156961Y-26543095D01*
X27204580Y-26876429D02*
X26204580Y-27114524D01*
X26204580Y-27114524D02*
X26918866Y-27305000D01*
X26918866Y-27305000D02*
X26204580Y-27495476D01*
X26204580Y-27495476D02*
X27204580Y-27733572D01*
X26204580Y-28638333D02*
X26204580Y-28066905D01*
X26204580Y-28352619D02*
X27204580Y-28352619D01*
X27204580Y-28352619D02*
X27061723Y-28257381D01*
X27061723Y-28257381D02*
X26966485Y-28162143D01*
X26966485Y-28162143D02*
X26918866Y-28066905D01*
D10*
X22218819Y-42711666D02*
X21742628Y-43044999D01*
X22218819Y-43283094D02*
X21218819Y-43283094D01*
X21218819Y-43283094D02*
X21218819Y-42902142D01*
X21218819Y-42902142D02*
X21266438Y-42806904D01*
X21266438Y-42806904D02*
X21314057Y-42759285D01*
X21314057Y-42759285D02*
X21409295Y-42711666D01*
X21409295Y-42711666D02*
X21552152Y-42711666D01*
X21552152Y-42711666D02*
X21647390Y-42759285D01*
X21647390Y-42759285D02*
X21695009Y-42806904D01*
X21695009Y-42806904D02*
X21742628Y-42902142D01*
X21742628Y-42902142D02*
X21742628Y-43283094D01*
X21314057Y-42330713D02*
X21266438Y-42283094D01*
X21266438Y-42283094D02*
X21218819Y-42187856D01*
X21218819Y-42187856D02*
X21218819Y-41949761D01*
X21218819Y-41949761D02*
X21266438Y-41854523D01*
X21266438Y-41854523D02*
X21314057Y-41806904D01*
X21314057Y-41806904D02*
X21409295Y-41759285D01*
X21409295Y-41759285D02*
X21504533Y-41759285D01*
X21504533Y-41759285D02*
X21647390Y-41806904D01*
X21647390Y-41806904D02*
X22218819Y-42378332D01*
X22218819Y-42378332D02*
X22218819Y-41759285D01*
D11*
X23113904Y-49437580D02*
X23113904Y-48628057D01*
X23113904Y-48628057D02*
X23066285Y-48532819D01*
X23066285Y-48532819D02*
X23018666Y-48485200D01*
X23018666Y-48485200D02*
X22923428Y-48437580D01*
X22923428Y-48437580D02*
X22732952Y-48437580D01*
X22732952Y-48437580D02*
X22637714Y-48485200D01*
X22637714Y-48485200D02*
X22590095Y-48532819D01*
X22590095Y-48532819D02*
X22542476Y-48628057D01*
X22542476Y-48628057D02*
X22542476Y-49437580D01*
X21542476Y-48437580D02*
X22113904Y-48437580D01*
X21828190Y-48437580D02*
X21828190Y-49437580D01*
X21828190Y-49437580D02*
X21923428Y-49294723D01*
X21923428Y-49294723D02*
X22018666Y-49199485D01*
X22018666Y-49199485D02*
X22113904Y-49151866D01*
D10*
X19073905Y-32165819D02*
X19073905Y-31165819D01*
X19073905Y-31165819D02*
X19312000Y-31165819D01*
X19312000Y-31165819D02*
X19454857Y-31213438D01*
X19454857Y-31213438D02*
X19550095Y-31308676D01*
X19550095Y-31308676D02*
X19597714Y-31403914D01*
X19597714Y-31403914D02*
X19645333Y-31594390D01*
X19645333Y-31594390D02*
X19645333Y-31737247D01*
X19645333Y-31737247D02*
X19597714Y-31927723D01*
X19597714Y-31927723D02*
X19550095Y-32022961D01*
X19550095Y-32022961D02*
X19454857Y-32118200D01*
X19454857Y-32118200D02*
X19312000Y-32165819D01*
X19312000Y-32165819D02*
X19073905Y-32165819D01*
X20026286Y-31261057D02*
X20073905Y-31213438D01*
X20073905Y-31213438D02*
X20169143Y-31165819D01*
X20169143Y-31165819D02*
X20407238Y-31165819D01*
X20407238Y-31165819D02*
X20502476Y-31213438D01*
X20502476Y-31213438D02*
X20550095Y-31261057D01*
X20550095Y-31261057D02*
X20597714Y-31356295D01*
X20597714Y-31356295D02*
X20597714Y-31451533D01*
X20597714Y-31451533D02*
X20550095Y-31594390D01*
X20550095Y-31594390D02*
X19978667Y-32165819D01*
X19978667Y-32165819D02*
X20597714Y-32165819D01*
D11*
X19902200Y-25971667D02*
X19854580Y-26114524D01*
X19854580Y-26114524D02*
X19854580Y-26352619D01*
X19854580Y-26352619D02*
X19902200Y-26447857D01*
X19902200Y-26447857D02*
X19949819Y-26495476D01*
X19949819Y-26495476D02*
X20045057Y-26543095D01*
X20045057Y-26543095D02*
X20140295Y-26543095D01*
X20140295Y-26543095D02*
X20235533Y-26495476D01*
X20235533Y-26495476D02*
X20283152Y-26447857D01*
X20283152Y-26447857D02*
X20330771Y-26352619D01*
X20330771Y-26352619D02*
X20378390Y-26162143D01*
X20378390Y-26162143D02*
X20426009Y-26066905D01*
X20426009Y-26066905D02*
X20473628Y-26019286D01*
X20473628Y-26019286D02*
X20568866Y-25971667D01*
X20568866Y-25971667D02*
X20664104Y-25971667D01*
X20664104Y-25971667D02*
X20759342Y-26019286D01*
X20759342Y-26019286D02*
X20806961Y-26066905D01*
X20806961Y-26066905D02*
X20854580Y-26162143D01*
X20854580Y-26162143D02*
X20854580Y-26400238D01*
X20854580Y-26400238D02*
X20806961Y-26543095D01*
X20854580Y-26876429D02*
X19854580Y-27114524D01*
X19854580Y-27114524D02*
X20568866Y-27305000D01*
X20568866Y-27305000D02*
X19854580Y-27495476D01*
X19854580Y-27495476D02*
X20854580Y-27733572D01*
X20759342Y-28066905D02*
X20806961Y-28114524D01*
X20806961Y-28114524D02*
X20854580Y-28209762D01*
X20854580Y-28209762D02*
X20854580Y-28447857D01*
X20854580Y-28447857D02*
X20806961Y-28543095D01*
X20806961Y-28543095D02*
X20759342Y-28590714D01*
X20759342Y-28590714D02*
X20664104Y-28638333D01*
X20664104Y-28638333D02*
X20568866Y-28638333D01*
X20568866Y-28638333D02*
X20426009Y-28590714D01*
X20426009Y-28590714D02*
X19854580Y-28019286D01*
X19854580Y-28019286D02*
X19854580Y-28638333D01*
D10*
X17639819Y-57483333D02*
X18354104Y-57483333D01*
X18354104Y-57483333D02*
X18496961Y-57530952D01*
X18496961Y-57530952D02*
X18592200Y-57626190D01*
X18592200Y-57626190D02*
X18639819Y-57769047D01*
X18639819Y-57769047D02*
X18639819Y-57864285D01*
X17639819Y-57102380D02*
X17639819Y-56483333D01*
X17639819Y-56483333D02*
X18020771Y-56816666D01*
X18020771Y-56816666D02*
X18020771Y-56673809D01*
X18020771Y-56673809D02*
X18068390Y-56578571D01*
X18068390Y-56578571D02*
X18116009Y-56530952D01*
X18116009Y-56530952D02*
X18211247Y-56483333D01*
X18211247Y-56483333D02*
X18449342Y-56483333D01*
X18449342Y-56483333D02*
X18544580Y-56530952D01*
X18544580Y-56530952D02*
X18592200Y-56578571D01*
X18592200Y-56578571D02*
X18639819Y-56673809D01*
X18639819Y-56673809D02*
X18639819Y-56959523D01*
X18639819Y-56959523D02*
X18592200Y-57054761D01*
X18592200Y-57054761D02*
X18544580Y-57102380D01*
X18154819Y-42711666D02*
X17678628Y-43044999D01*
X18154819Y-43283094D02*
X17154819Y-43283094D01*
X17154819Y-43283094D02*
X17154819Y-42902142D01*
X17154819Y-42902142D02*
X17202438Y-42806904D01*
X17202438Y-42806904D02*
X17250057Y-42759285D01*
X17250057Y-42759285D02*
X17345295Y-42711666D01*
X17345295Y-42711666D02*
X17488152Y-42711666D01*
X17488152Y-42711666D02*
X17583390Y-42759285D01*
X17583390Y-42759285D02*
X17631009Y-42806904D01*
X17631009Y-42806904D02*
X17678628Y-42902142D01*
X17678628Y-42902142D02*
X17678628Y-43283094D01*
X18154819Y-41759285D02*
X18154819Y-42330713D01*
X18154819Y-42044999D02*
X17154819Y-42044999D01*
X17154819Y-42044999D02*
X17297676Y-42140237D01*
X17297676Y-42140237D02*
X17392914Y-42235475D01*
X17392914Y-42235475D02*
X17440533Y-42330713D01*
X17689285Y-43003773D02*
X17628809Y-43064250D01*
X17628809Y-43064250D02*
X17447380Y-43124726D01*
X17447380Y-43124726D02*
X17326428Y-43124726D01*
X17326428Y-43124726D02*
X17144999Y-43064250D01*
X17144999Y-43064250D02*
X17024047Y-42943297D01*
X17024047Y-42943297D02*
X16963570Y-42822345D01*
X16963570Y-42822345D02*
X16903094Y-42580440D01*
X16903094Y-42580440D02*
X16903094Y-42399011D01*
X16903094Y-42399011D02*
X16963570Y-42157107D01*
X16963570Y-42157107D02*
X17024047Y-42036154D01*
X17024047Y-42036154D02*
X17144999Y-41915202D01*
X17144999Y-41915202D02*
X17326428Y-41854726D01*
X17326428Y-41854726D02*
X17447380Y-41854726D01*
X17447380Y-41854726D02*
X17628809Y-41915202D01*
X17628809Y-41915202D02*
X17689285Y-41975678D01*
X18173094Y-41975678D02*
X18233570Y-41915202D01*
X18233570Y-41915202D02*
X18354523Y-41854726D01*
X18354523Y-41854726D02*
X18656904Y-41854726D01*
X18656904Y-41854726D02*
X18777856Y-41915202D01*
X18777856Y-41915202D02*
X18838332Y-41975678D01*
X18838332Y-41975678D02*
X18898809Y-42096630D01*
X18898809Y-42096630D02*
X18898809Y-42217583D01*
X18898809Y-42217583D02*
X18838332Y-42399011D01*
X18838332Y-42399011D02*
X18112618Y-43124726D01*
X18112618Y-43124726D02*
X18898809Y-43124726D01*
X20047856Y-41854726D02*
X19443094Y-41854726D01*
X19443094Y-41854726D02*
X19382618Y-42459488D01*
X19382618Y-42459488D02*
X19443094Y-42399011D01*
X19443094Y-42399011D02*
X19564047Y-42338535D01*
X19564047Y-42338535D02*
X19866428Y-42338535D01*
X19866428Y-42338535D02*
X19987380Y-42399011D01*
X19987380Y-42399011D02*
X20047856Y-42459488D01*
X20047856Y-42459488D02*
X20108333Y-42580440D01*
X20108333Y-42580440D02*
X20108333Y-42882821D01*
X20108333Y-42882821D02*
X20047856Y-43003773D01*
X20047856Y-43003773D02*
X19987380Y-43064250D01*
X19987380Y-43064250D02*
X19866428Y-43124726D01*
X19866428Y-43124726D02*
X19564047Y-43124726D01*
X19564047Y-43124726D02*
X19443094Y-43064250D01*
X19443094Y-43064250D02*
X19382618Y-43003773D01*
X20531666Y-41854726D02*
X21378333Y-41854726D01*
X21378333Y-41854726D02*
X20834047Y-43124726D01*
X22527381Y-43124726D02*
X21801666Y-43124726D01*
X22164523Y-43124726D02*
X22164523Y-41854726D01*
X22164523Y-41854726D02*
X22043571Y-42036154D01*
X22043571Y-42036154D02*
X21922619Y-42157107D01*
X21922619Y-42157107D02*
X21801666Y-42217583D01*
X23253095Y-42399011D02*
X23132143Y-42338535D01*
X23132143Y-42338535D02*
X23071666Y-42278059D01*
X23071666Y-42278059D02*
X23011190Y-42157107D01*
X23011190Y-42157107D02*
X23011190Y-42096630D01*
X23011190Y-42096630D02*
X23071666Y-41975678D01*
X23071666Y-41975678D02*
X23132143Y-41915202D01*
X23132143Y-41915202D02*
X23253095Y-41854726D01*
X23253095Y-41854726D02*
X23495000Y-41854726D01*
X23495000Y-41854726D02*
X23615952Y-41915202D01*
X23615952Y-41915202D02*
X23676428Y-41975678D01*
X23676428Y-41975678D02*
X23736905Y-42096630D01*
X23736905Y-42096630D02*
X23736905Y-42157107D01*
X23736905Y-42157107D02*
X23676428Y-42278059D01*
X23676428Y-42278059D02*
X23615952Y-42338535D01*
X23615952Y-42338535D02*
X23495000Y-42399011D01*
X23495000Y-42399011D02*
X23253095Y-42399011D01*
X23253095Y-42399011D02*
X23132143Y-42459488D01*
X23132143Y-42459488D02*
X23071666Y-42519964D01*
X23071666Y-42519964D02*
X23011190Y-42640916D01*
X23011190Y-42640916D02*
X23011190Y-42882821D01*
X23011190Y-42882821D02*
X23071666Y-43003773D01*
X23071666Y-43003773D02*
X23132143Y-43064250D01*
X23132143Y-43064250D02*
X23253095Y-43124726D01*
X23253095Y-43124726D02*
X23495000Y-43124726D01*
X23495000Y-43124726D02*
X23615952Y-43064250D01*
X23615952Y-43064250D02*
X23676428Y-43003773D01*
X23676428Y-43003773D02*
X23736905Y-42882821D01*
X23736905Y-42882821D02*
X23736905Y-42640916D01*
X23736905Y-42640916D02*
X23676428Y-42519964D01*
X23676428Y-42519964D02*
X23615952Y-42459488D01*
X23615952Y-42459488D02*
X23495000Y-42399011D01*
X24788905Y-31911819D02*
X24788905Y-30911819D01*
X24788905Y-30911819D02*
X25027000Y-30911819D01*
X25027000Y-30911819D02*
X25169857Y-30959438D01*
X25169857Y-30959438D02*
X25265095Y-31054676D01*
X25265095Y-31054676D02*
X25312714Y-31149914D01*
X25312714Y-31149914D02*
X25360333Y-31340390D01*
X25360333Y-31340390D02*
X25360333Y-31483247D01*
X25360333Y-31483247D02*
X25312714Y-31673723D01*
X25312714Y-31673723D02*
X25265095Y-31768961D01*
X25265095Y-31768961D02*
X25169857Y-31864200D01*
X25169857Y-31864200D02*
X25027000Y-31911819D01*
X25027000Y-31911819D02*
X24788905Y-31911819D01*
X26312714Y-31911819D02*
X25741286Y-31911819D01*
X26027000Y-31911819D02*
X26027000Y-30911819D01*
X26027000Y-30911819D02*
X25931762Y-31054676D01*
X25931762Y-31054676D02*
X25836524Y-31149914D01*
X25836524Y-31149914D02*
X25741286Y-31197533D01*
X30672819Y-17986333D02*
X31387104Y-17986333D01*
X31387104Y-17986333D02*
X31529961Y-18033952D01*
X31529961Y-18033952D02*
X31625200Y-18129190D01*
X31625200Y-18129190D02*
X31672819Y-18272047D01*
X31672819Y-18272047D02*
X31672819Y-18367285D01*
X31672819Y-16986333D02*
X31672819Y-17557761D01*
X31672819Y-17272047D02*
X30672819Y-17272047D01*
X30672819Y-17272047D02*
X30815676Y-17367285D01*
X30815676Y-17367285D02*
X30910914Y-17462523D01*
X30910914Y-17462523D02*
X30958533Y-17557761D01*
D12*
%TO.C,J2*%
X19695000Y-60995000D02*
X27375000Y-60995000D01*
X19695000Y-60995000D02*
X19695000Y-58335000D01*
X27375000Y-60995000D02*
X27375000Y-58335000D01*
X17095000Y-59665000D02*
X17095000Y-58335000D01*
X17095000Y-58335000D02*
X18425000Y-58335000D01*
X19695000Y-58335000D02*
X27375000Y-58335000D01*
%TO.C,SW1*%
D11*
X28702000Y-24765000D02*
X23622000Y-24765000D01*
X23622000Y-29845000D01*
X28702000Y-29845000D01*
X28702000Y-24765000D01*
D12*
%TO.C,R2*%
X26094000Y-44722064D02*
X26094000Y-40367936D01*
X22674000Y-44722064D02*
X22674000Y-40367936D01*
%TO.C,U1*%
D11*
X28702000Y-57785000D02*
X16002000Y-57785000D01*
X16002000Y-37465000D01*
X28702000Y-37465000D01*
X28702000Y-57785000D01*
D12*
%TO.C,D2*%
X18252000Y-33435000D02*
X18252000Y-33591000D01*
X18252000Y-35751000D02*
X18252000Y-35907000D01*
X18252000Y-33435484D02*
G75*
G02*
X21484335Y-33592392I1560000J-1235516D01*
G01*
X18771039Y-33591000D02*
G75*
G02*
X20853130Y-33591163I1040961J-1080000D01*
G01*
X20853130Y-35750837D02*
G75*
G02*
X18771039Y-35751000I-1041130J1079837D01*
G01*
X21484335Y-35749608D02*
G75*
G02*
X18252000Y-35906516I-1672335J1078608D01*
G01*
%TO.C,SW2*%
D11*
X22352000Y-24765000D02*
X17272000Y-24765000D01*
X17272000Y-29845000D01*
X22352000Y-29845000D01*
X22352000Y-24765000D01*
D12*
%TO.C,J3*%
X19625000Y-55820000D02*
X20955000Y-55820000D01*
X19625000Y-57150000D02*
X19625000Y-55820000D01*
X22225000Y-55820000D02*
X24825000Y-55820000D01*
X22225000Y-58480000D02*
X22225000Y-55820000D01*
X22225000Y-58480000D02*
X24825000Y-58480000D01*
X24825000Y-58480000D02*
X24825000Y-55820000D01*
%TO.C,R1*%
X22030000Y-44722064D02*
X22030000Y-40367936D01*
X18610000Y-44722064D02*
X18610000Y-40367936D01*
%TO.C,D1*%
X23967000Y-33181000D02*
X23967000Y-33337000D01*
X23967000Y-35497000D02*
X23967000Y-35653000D01*
X23967000Y-33181484D02*
G75*
G02*
X27199335Y-33338392I1560000J-1235516D01*
G01*
X24486039Y-33337000D02*
G75*
G02*
X26568130Y-33337163I1040961J-1080000D01*
G01*
X26568130Y-35496837D02*
G75*
G02*
X24486039Y-35497000I-1041130J1079837D01*
G01*
X27199335Y-35495608D02*
G75*
G02*
X23967000Y-35652516I-1672335J1078608D01*
G01*
%TO.C,J1*%
X27178000Y-16323000D02*
X14418000Y-16323000D01*
X27178000Y-16323000D02*
X27178000Y-18983000D01*
X14418000Y-16323000D02*
X14418000Y-18983000D01*
X29778000Y-17653000D02*
X29778000Y-18983000D01*
X29778000Y-18983000D02*
X28448000Y-18983000D01*
X27178000Y-18983000D02*
X14418000Y-18983000D01*
%TD*%
%LPC*%
D13*
%TO.C,J2*%
X18425000Y-59665000D03*
D14*
X20965000Y-59665000D03*
X23505000Y-59665000D03*
X26045000Y-59665000D03*
%TD*%
D15*
%TO.C,SW1*%
X24892000Y-31115000D03*
X27432000Y-31115000D03*
X27432000Y-23495000D03*
X24892000Y-23495000D03*
%TD*%
D16*
%TO.C,R2*%
X24384000Y-45507500D03*
X24384000Y-39582500D03*
%TD*%
D15*
%TO.C,U1*%
X27432000Y-56515000D03*
X27432000Y-53975000D03*
X27432000Y-51435000D03*
X27432000Y-48895000D03*
X27432000Y-46355000D03*
X27432000Y-43815000D03*
X27432000Y-41275000D03*
X27432000Y-38735000D03*
X17272000Y-38735000D03*
X17272000Y-41275000D03*
X17272000Y-43815000D03*
X17272000Y-46355000D03*
X17272000Y-48895000D03*
X17272000Y-51435000D03*
X17272000Y-53975000D03*
X17272000Y-56515000D03*
%TD*%
D17*
%TO.C,D2*%
X18542000Y-34671000D03*
D18*
X21082000Y-34671000D03*
%TD*%
D15*
%TO.C,SW2*%
X21082000Y-31115000D03*
X18542000Y-31115000D03*
X21082000Y-23495000D03*
X18542000Y-23495000D03*
%TD*%
D13*
%TO.C,J3*%
X20955000Y-57150000D03*
D14*
X23495000Y-57150000D03*
%TD*%
D16*
%TO.C,R1*%
X20320000Y-45507500D03*
X20320000Y-39582500D03*
%TD*%
D17*
%TO.C,D1*%
X24257000Y-34417000D03*
D18*
X26797000Y-34417000D03*
%TD*%
D14*
%TO.C,J1*%
X15748000Y-17653000D03*
X18288000Y-17653000D03*
X20828000Y-17653000D03*
X23368000Y-17653000D03*
X25908000Y-17653000D03*
D13*
X28448000Y-17653000D03*
%TD*%
D19*
%TO.C,A1*%
X14722000Y-23495000D03*
X14722000Y-26035000D03*
X14722000Y-28575000D03*
X14722000Y-31115000D03*
X14722000Y-33655000D03*
X14722000Y-36195000D03*
X14722000Y-38735000D03*
X14722000Y-41275000D03*
X14722000Y-43815000D03*
X14722000Y-46355000D03*
X14722000Y-48895000D03*
X14722000Y-51435000D03*
X14722000Y-53975000D03*
X14722000Y-56515000D03*
X14722000Y-59055000D03*
X29962000Y-59055000D03*
X29962000Y-56515000D03*
X29962000Y-53975000D03*
X29962000Y-51435000D03*
X29962000Y-48895000D03*
X29962000Y-46355000D03*
X29962000Y-43815000D03*
X29962000Y-41275000D03*
X29962000Y-38735000D03*
X29962000Y-36195000D03*
X29962000Y-33655000D03*
X29962000Y-31115000D03*
X29962000Y-28575000D03*
X29962000Y-26035000D03*
D20*
X29962000Y-23495000D03*
%TD*%
%LPD*%
M02*
