%TF.GenerationSoftware,KiCad,Pcbnew,8.0.5*%
%TF.CreationDate,2024-10-09T02:46:16+09:00*%
%TF.ProjectId,LT,4c542e6b-6963-4616-945f-706362585858,rev?*%
%TF.SameCoordinates,Original*%
%TF.FileFunction,Legend,Top*%
%TF.FilePolarity,Positive*%
%FSLAX46Y46*%
G04 Gerber Fmt 4.6, Leading zero omitted, Abs format (unit mm)*
G04 Created by KiCad (PCBNEW 8.0.5) date 2024-10-09 02:46:16*
%MOMM*%
%LPD*%
G01*
G04 APERTURE LIST*
G04 Aperture macros list*
%AMRoundRect*
0 Rectangle with rounded corners*
0 $1 Rounding radius*
0 $2 $3 $4 $5 $6 $7 $8 $9 X,Y pos of 4 corners*
0 Add a 4 corners polygon primitive as box body*
4,1,4,$2,$3,$4,$5,$6,$7,$8,$9,$2,$3,0*
0 Add four circle primitives for the rounded corners*
1,1,$1+$1,$2,$3*
1,1,$1+$1,$4,$5*
1,1,$1+$1,$6,$7*
1,1,$1+$1,$8,$9*
0 Add four rect primitives between the rounded corners*
20,1,$1+$1,$2,$3,$4,$5,0*
20,1,$1+$1,$4,$5,$6,$7,0*
20,1,$1+$1,$6,$7,$8,$9,0*
20,1,$1+$1,$8,$9,$2,$3,0*%
G04 Aperture macros list end*
%ADD10C,0.150000*%
%ADD11C,0.100000*%
%ADD12C,0.120000*%
%ADD13R,1.800000X1.800000*%
%ADD14C,1.800000*%
%ADD15C,1.524000*%
%ADD16RoundRect,0.250000X-0.362500X-1.075000X0.362500X-1.075000X0.362500X1.075000X-0.362500X1.075000X0*%
%ADD17O,1.700000X1.700000*%
%ADD18R,1.700000X1.700000*%
%ADD19RoundRect,0.250000X0.362500X1.075000X-0.362500X1.075000X-0.362500X-1.075000X0.362500X-1.075000X0*%
%ADD20RoundRect,0.150000X0.150000X-0.825000X0.150000X0.825000X-0.150000X0.825000X-0.150000X-0.825000X0*%
G04 APERTURE END LIST*
D10*
X41801905Y-16689819D02*
X41801905Y-15689819D01*
X41801905Y-15689819D02*
X42040000Y-15689819D01*
X42040000Y-15689819D02*
X42182857Y-15737438D01*
X42182857Y-15737438D02*
X42278095Y-15832676D01*
X42278095Y-15832676D02*
X42325714Y-15927914D01*
X42325714Y-15927914D02*
X42373333Y-16118390D01*
X42373333Y-16118390D02*
X42373333Y-16261247D01*
X42373333Y-16261247D02*
X42325714Y-16451723D01*
X42325714Y-16451723D02*
X42278095Y-16546961D01*
X42278095Y-16546961D02*
X42182857Y-16642200D01*
X42182857Y-16642200D02*
X42040000Y-16689819D01*
X42040000Y-16689819D02*
X41801905Y-16689819D01*
X42754286Y-15785057D02*
X42801905Y-15737438D01*
X42801905Y-15737438D02*
X42897143Y-15689819D01*
X42897143Y-15689819D02*
X43135238Y-15689819D01*
X43135238Y-15689819D02*
X43230476Y-15737438D01*
X43230476Y-15737438D02*
X43278095Y-15785057D01*
X43278095Y-15785057D02*
X43325714Y-15880295D01*
X43325714Y-15880295D02*
X43325714Y-15975533D01*
X43325714Y-15975533D02*
X43278095Y-16118390D01*
X43278095Y-16118390D02*
X42706667Y-16689819D01*
X42706667Y-16689819D02*
X43325714Y-16689819D01*
D11*
X43720833Y-26772419D02*
X43387500Y-26296228D01*
X43149405Y-26772419D02*
X43149405Y-25772419D01*
X43149405Y-25772419D02*
X43530357Y-25772419D01*
X43530357Y-25772419D02*
X43625595Y-25820038D01*
X43625595Y-25820038D02*
X43673214Y-25867657D01*
X43673214Y-25867657D02*
X43720833Y-25962895D01*
X43720833Y-25962895D02*
X43720833Y-26105752D01*
X43720833Y-26105752D02*
X43673214Y-26200990D01*
X43673214Y-26200990D02*
X43625595Y-26248609D01*
X43625595Y-26248609D02*
X43530357Y-26296228D01*
X43530357Y-26296228D02*
X43149405Y-26296228D01*
X44577976Y-26105752D02*
X44577976Y-26772419D01*
X44339881Y-25724800D02*
X44101786Y-26439085D01*
X44101786Y-26439085D02*
X44720833Y-26439085D01*
D10*
X73952142Y-31339819D02*
X73618809Y-30863628D01*
X73380714Y-31339819D02*
X73380714Y-30339819D01*
X73380714Y-30339819D02*
X73761666Y-30339819D01*
X73761666Y-30339819D02*
X73856904Y-30387438D01*
X73856904Y-30387438D02*
X73904523Y-30435057D01*
X73904523Y-30435057D02*
X73952142Y-30530295D01*
X73952142Y-30530295D02*
X73952142Y-30673152D01*
X73952142Y-30673152D02*
X73904523Y-30768390D01*
X73904523Y-30768390D02*
X73856904Y-30816009D01*
X73856904Y-30816009D02*
X73761666Y-30863628D01*
X73761666Y-30863628D02*
X73380714Y-30863628D01*
X74904523Y-31339819D02*
X74333095Y-31339819D01*
X74618809Y-31339819D02*
X74618809Y-30339819D01*
X74618809Y-30339819D02*
X74523571Y-30482676D01*
X74523571Y-30482676D02*
X74428333Y-30577914D01*
X74428333Y-30577914D02*
X74333095Y-30625533D01*
X75523571Y-30339819D02*
X75618809Y-30339819D01*
X75618809Y-30339819D02*
X75714047Y-30387438D01*
X75714047Y-30387438D02*
X75761666Y-30435057D01*
X75761666Y-30435057D02*
X75809285Y-30530295D01*
X75809285Y-30530295D02*
X75856904Y-30720771D01*
X75856904Y-30720771D02*
X75856904Y-30958866D01*
X75856904Y-30958866D02*
X75809285Y-31149342D01*
X75809285Y-31149342D02*
X75761666Y-31244580D01*
X75761666Y-31244580D02*
X75714047Y-31292200D01*
X75714047Y-31292200D02*
X75618809Y-31339819D01*
X75618809Y-31339819D02*
X75523571Y-31339819D01*
X75523571Y-31339819D02*
X75428333Y-31292200D01*
X75428333Y-31292200D02*
X75380714Y-31244580D01*
X75380714Y-31244580D02*
X75333095Y-31149342D01*
X75333095Y-31149342D02*
X75285476Y-30958866D01*
X75285476Y-30958866D02*
X75285476Y-30720771D01*
X75285476Y-30720771D02*
X75333095Y-30530295D01*
X75333095Y-30530295D02*
X75380714Y-30435057D01*
X75380714Y-30435057D02*
X75428333Y-30387438D01*
X75428333Y-30387438D02*
X75523571Y-30339819D01*
X15541666Y-26539819D02*
X15541666Y-27254104D01*
X15541666Y-27254104D02*
X15494047Y-27396961D01*
X15494047Y-27396961D02*
X15398809Y-27492200D01*
X15398809Y-27492200D02*
X15255952Y-27539819D01*
X15255952Y-27539819D02*
X15160714Y-27539819D01*
X15970238Y-26635057D02*
X16017857Y-26587438D01*
X16017857Y-26587438D02*
X16113095Y-26539819D01*
X16113095Y-26539819D02*
X16351190Y-26539819D01*
X16351190Y-26539819D02*
X16446428Y-26587438D01*
X16446428Y-26587438D02*
X16494047Y-26635057D01*
X16494047Y-26635057D02*
X16541666Y-26730295D01*
X16541666Y-26730295D02*
X16541666Y-26825533D01*
X16541666Y-26825533D02*
X16494047Y-26968390D01*
X16494047Y-26968390D02*
X15922619Y-27539819D01*
X15922619Y-27539819D02*
X16541666Y-27539819D01*
X44822319Y-19528333D02*
X45536604Y-19528333D01*
X45536604Y-19528333D02*
X45679461Y-19575952D01*
X45679461Y-19575952D02*
X45774700Y-19671190D01*
X45774700Y-19671190D02*
X45822319Y-19814047D01*
X45822319Y-19814047D02*
X45822319Y-19909285D01*
X45822319Y-18528333D02*
X45822319Y-19099761D01*
X45822319Y-18814047D02*
X44822319Y-18814047D01*
X44822319Y-18814047D02*
X44965176Y-18909285D01*
X44965176Y-18909285D02*
X45060414Y-19004523D01*
X45060414Y-19004523D02*
X45108033Y-19099761D01*
X52134642Y-35899819D02*
X51801309Y-35423628D01*
X51563214Y-35899819D02*
X51563214Y-34899819D01*
X51563214Y-34899819D02*
X51944166Y-34899819D01*
X51944166Y-34899819D02*
X52039404Y-34947438D01*
X52039404Y-34947438D02*
X52087023Y-34995057D01*
X52087023Y-34995057D02*
X52134642Y-35090295D01*
X52134642Y-35090295D02*
X52134642Y-35233152D01*
X52134642Y-35233152D02*
X52087023Y-35328390D01*
X52087023Y-35328390D02*
X52039404Y-35376009D01*
X52039404Y-35376009D02*
X51944166Y-35423628D01*
X51944166Y-35423628D02*
X51563214Y-35423628D01*
X53087023Y-35899819D02*
X52515595Y-35899819D01*
X52801309Y-35899819D02*
X52801309Y-34899819D01*
X52801309Y-34899819D02*
X52706071Y-35042676D01*
X52706071Y-35042676D02*
X52610833Y-35137914D01*
X52610833Y-35137914D02*
X52515595Y-35185533D01*
X54039404Y-35899819D02*
X53467976Y-35899819D01*
X53753690Y-35899819D02*
X53753690Y-34899819D01*
X53753690Y-34899819D02*
X53658452Y-35042676D01*
X53658452Y-35042676D02*
X53563214Y-35137914D01*
X53563214Y-35137914D02*
X53467976Y-35185533D01*
X21903333Y-35899819D02*
X21570000Y-35423628D01*
X21331905Y-35899819D02*
X21331905Y-34899819D01*
X21331905Y-34899819D02*
X21712857Y-34899819D01*
X21712857Y-34899819D02*
X21808095Y-34947438D01*
X21808095Y-34947438D02*
X21855714Y-34995057D01*
X21855714Y-34995057D02*
X21903333Y-35090295D01*
X21903333Y-35090295D02*
X21903333Y-35233152D01*
X21903333Y-35233152D02*
X21855714Y-35328390D01*
X21855714Y-35328390D02*
X21808095Y-35376009D01*
X21808095Y-35376009D02*
X21712857Y-35423628D01*
X21712857Y-35423628D02*
X21331905Y-35423628D01*
X22855714Y-35899819D02*
X22284286Y-35899819D01*
X22570000Y-35899819D02*
X22570000Y-34899819D01*
X22570000Y-34899819D02*
X22474762Y-35042676D01*
X22474762Y-35042676D02*
X22379524Y-35137914D01*
X22379524Y-35137914D02*
X22284286Y-35185533D01*
X18229761Y-33623773D02*
X18169285Y-33684250D01*
X18169285Y-33684250D02*
X17987856Y-33744726D01*
X17987856Y-33744726D02*
X17866904Y-33744726D01*
X17866904Y-33744726D02*
X17685475Y-33684250D01*
X17685475Y-33684250D02*
X17564523Y-33563297D01*
X17564523Y-33563297D02*
X17504046Y-33442345D01*
X17504046Y-33442345D02*
X17443570Y-33200440D01*
X17443570Y-33200440D02*
X17443570Y-33019011D01*
X17443570Y-33019011D02*
X17504046Y-32777107D01*
X17504046Y-32777107D02*
X17564523Y-32656154D01*
X17564523Y-32656154D02*
X17685475Y-32535202D01*
X17685475Y-32535202D02*
X17866904Y-32474726D01*
X17866904Y-32474726D02*
X17987856Y-32474726D01*
X17987856Y-32474726D02*
X18169285Y-32535202D01*
X18169285Y-32535202D02*
X18229761Y-32595678D01*
X18653094Y-32474726D02*
X19439285Y-32474726D01*
X19439285Y-32474726D02*
X19015951Y-32958535D01*
X19015951Y-32958535D02*
X19197380Y-32958535D01*
X19197380Y-32958535D02*
X19318332Y-33019011D01*
X19318332Y-33019011D02*
X19378808Y-33079488D01*
X19378808Y-33079488D02*
X19439285Y-33200440D01*
X19439285Y-33200440D02*
X19439285Y-33502821D01*
X19439285Y-33502821D02*
X19378808Y-33623773D01*
X19378808Y-33623773D02*
X19318332Y-33684250D01*
X19318332Y-33684250D02*
X19197380Y-33744726D01*
X19197380Y-33744726D02*
X18834523Y-33744726D01*
X18834523Y-33744726D02*
X18713570Y-33684250D01*
X18713570Y-33684250D02*
X18653094Y-33623773D01*
X20225475Y-32474726D02*
X20346428Y-32474726D01*
X20346428Y-32474726D02*
X20467380Y-32535202D01*
X20467380Y-32535202D02*
X20527856Y-32595678D01*
X20527856Y-32595678D02*
X20588332Y-32716630D01*
X20588332Y-32716630D02*
X20648809Y-32958535D01*
X20648809Y-32958535D02*
X20648809Y-33260916D01*
X20648809Y-33260916D02*
X20588332Y-33502821D01*
X20588332Y-33502821D02*
X20527856Y-33623773D01*
X20527856Y-33623773D02*
X20467380Y-33684250D01*
X20467380Y-33684250D02*
X20346428Y-33744726D01*
X20346428Y-33744726D02*
X20225475Y-33744726D01*
X20225475Y-33744726D02*
X20104523Y-33684250D01*
X20104523Y-33684250D02*
X20044047Y-33623773D01*
X20044047Y-33623773D02*
X19983570Y-33502821D01*
X19983570Y-33502821D02*
X19923094Y-33260916D01*
X19923094Y-33260916D02*
X19923094Y-32958535D01*
X19923094Y-32958535D02*
X19983570Y-32716630D01*
X19983570Y-32716630D02*
X20044047Y-32595678D01*
X20044047Y-32595678D02*
X20104523Y-32535202D01*
X20104523Y-32535202D02*
X20225475Y-32474726D01*
X21072142Y-32474726D02*
X21858333Y-32474726D01*
X21858333Y-32474726D02*
X21434999Y-32958535D01*
X21434999Y-32958535D02*
X21616428Y-32958535D01*
X21616428Y-32958535D02*
X21737380Y-33019011D01*
X21737380Y-33019011D02*
X21797856Y-33079488D01*
X21797856Y-33079488D02*
X21858333Y-33200440D01*
X21858333Y-33200440D02*
X21858333Y-33502821D01*
X21858333Y-33502821D02*
X21797856Y-33623773D01*
X21797856Y-33623773D02*
X21737380Y-33684250D01*
X21737380Y-33684250D02*
X21616428Y-33744726D01*
X21616428Y-33744726D02*
X21253571Y-33744726D01*
X21253571Y-33744726D02*
X21132618Y-33684250D01*
X21132618Y-33684250D02*
X21072142Y-33623773D01*
X22946904Y-32474726D02*
X22704999Y-32474726D01*
X22704999Y-32474726D02*
X22584047Y-32535202D01*
X22584047Y-32535202D02*
X22523571Y-32595678D01*
X22523571Y-32595678D02*
X22402618Y-32777107D01*
X22402618Y-32777107D02*
X22342142Y-33019011D01*
X22342142Y-33019011D02*
X22342142Y-33502821D01*
X22342142Y-33502821D02*
X22402618Y-33623773D01*
X22402618Y-33623773D02*
X22463095Y-33684250D01*
X22463095Y-33684250D02*
X22584047Y-33744726D01*
X22584047Y-33744726D02*
X22825952Y-33744726D01*
X22825952Y-33744726D02*
X22946904Y-33684250D01*
X22946904Y-33684250D02*
X23007380Y-33623773D01*
X23007380Y-33623773D02*
X23067857Y-33502821D01*
X23067857Y-33502821D02*
X23067857Y-33200440D01*
X23067857Y-33200440D02*
X23007380Y-33079488D01*
X23007380Y-33079488D02*
X22946904Y-33019011D01*
X22946904Y-33019011D02*
X22825952Y-32958535D01*
X22825952Y-32958535D02*
X22584047Y-32958535D01*
X22584047Y-32958535D02*
X22463095Y-33019011D01*
X22463095Y-33019011D02*
X22402618Y-33079488D01*
X22402618Y-33079488D02*
X22342142Y-33200440D01*
X23793571Y-33019011D02*
X23672619Y-32958535D01*
X23672619Y-32958535D02*
X23612142Y-32898059D01*
X23612142Y-32898059D02*
X23551666Y-32777107D01*
X23551666Y-32777107D02*
X23551666Y-32716630D01*
X23551666Y-32716630D02*
X23612142Y-32595678D01*
X23612142Y-32595678D02*
X23672619Y-32535202D01*
X23672619Y-32535202D02*
X23793571Y-32474726D01*
X23793571Y-32474726D02*
X24035476Y-32474726D01*
X24035476Y-32474726D02*
X24156428Y-32535202D01*
X24156428Y-32535202D02*
X24216904Y-32595678D01*
X24216904Y-32595678D02*
X24277381Y-32716630D01*
X24277381Y-32716630D02*
X24277381Y-32777107D01*
X24277381Y-32777107D02*
X24216904Y-32898059D01*
X24216904Y-32898059D02*
X24156428Y-32958535D01*
X24156428Y-32958535D02*
X24035476Y-33019011D01*
X24035476Y-33019011D02*
X23793571Y-33019011D01*
X23793571Y-33019011D02*
X23672619Y-33079488D01*
X23672619Y-33079488D02*
X23612142Y-33139964D01*
X23612142Y-33139964D02*
X23551666Y-33260916D01*
X23551666Y-33260916D02*
X23551666Y-33502821D01*
X23551666Y-33502821D02*
X23612142Y-33623773D01*
X23612142Y-33623773D02*
X23672619Y-33684250D01*
X23672619Y-33684250D02*
X23793571Y-33744726D01*
X23793571Y-33744726D02*
X24035476Y-33744726D01*
X24035476Y-33744726D02*
X24156428Y-33684250D01*
X24156428Y-33684250D02*
X24216904Y-33623773D01*
X24216904Y-33623773D02*
X24277381Y-33502821D01*
X24277381Y-33502821D02*
X24277381Y-33260916D01*
X24277381Y-33260916D02*
X24216904Y-33139964D01*
X24216904Y-33139964D02*
X24156428Y-33079488D01*
X24156428Y-33079488D02*
X24035476Y-33019011D01*
X24700714Y-32474726D02*
X25486905Y-32474726D01*
X25486905Y-32474726D02*
X25063571Y-32958535D01*
X25063571Y-32958535D02*
X25245000Y-32958535D01*
X25245000Y-32958535D02*
X25365952Y-33019011D01*
X25365952Y-33019011D02*
X25426428Y-33079488D01*
X25426428Y-33079488D02*
X25486905Y-33200440D01*
X25486905Y-33200440D02*
X25486905Y-33502821D01*
X25486905Y-33502821D02*
X25426428Y-33623773D01*
X25426428Y-33623773D02*
X25365952Y-33684250D01*
X25365952Y-33684250D02*
X25245000Y-33744726D01*
X25245000Y-33744726D02*
X24882143Y-33744726D01*
X24882143Y-33744726D02*
X24761190Y-33684250D01*
X24761190Y-33684250D02*
X24700714Y-33623773D01*
X25910238Y-32474726D02*
X26696429Y-32474726D01*
X26696429Y-32474726D02*
X26273095Y-32958535D01*
X26273095Y-32958535D02*
X26454524Y-32958535D01*
X26454524Y-32958535D02*
X26575476Y-33019011D01*
X26575476Y-33019011D02*
X26635952Y-33079488D01*
X26635952Y-33079488D02*
X26696429Y-33200440D01*
X26696429Y-33200440D02*
X26696429Y-33502821D01*
X26696429Y-33502821D02*
X26635952Y-33623773D01*
X26635952Y-33623773D02*
X26575476Y-33684250D01*
X26575476Y-33684250D02*
X26454524Y-33744726D01*
X26454524Y-33744726D02*
X26091667Y-33744726D01*
X26091667Y-33744726D02*
X25970714Y-33684250D01*
X25970714Y-33684250D02*
X25910238Y-33623773D01*
X37370833Y-35899819D02*
X37037500Y-35423628D01*
X36799405Y-35899819D02*
X36799405Y-34899819D01*
X36799405Y-34899819D02*
X37180357Y-34899819D01*
X37180357Y-34899819D02*
X37275595Y-34947438D01*
X37275595Y-34947438D02*
X37323214Y-34995057D01*
X37323214Y-34995057D02*
X37370833Y-35090295D01*
X37370833Y-35090295D02*
X37370833Y-35233152D01*
X37370833Y-35233152D02*
X37323214Y-35328390D01*
X37323214Y-35328390D02*
X37275595Y-35376009D01*
X37275595Y-35376009D02*
X37180357Y-35423628D01*
X37180357Y-35423628D02*
X36799405Y-35423628D01*
X38227976Y-34899819D02*
X38037500Y-34899819D01*
X38037500Y-34899819D02*
X37942262Y-34947438D01*
X37942262Y-34947438D02*
X37894643Y-34995057D01*
X37894643Y-34995057D02*
X37799405Y-35137914D01*
X37799405Y-35137914D02*
X37751786Y-35328390D01*
X37751786Y-35328390D02*
X37751786Y-35709342D01*
X37751786Y-35709342D02*
X37799405Y-35804580D01*
X37799405Y-35804580D02*
X37847024Y-35852200D01*
X37847024Y-35852200D02*
X37942262Y-35899819D01*
X37942262Y-35899819D02*
X38132738Y-35899819D01*
X38132738Y-35899819D02*
X38227976Y-35852200D01*
X38227976Y-35852200D02*
X38275595Y-35804580D01*
X38275595Y-35804580D02*
X38323214Y-35709342D01*
X38323214Y-35709342D02*
X38323214Y-35471247D01*
X38323214Y-35471247D02*
X38275595Y-35376009D01*
X38275595Y-35376009D02*
X38227976Y-35328390D01*
X38227976Y-35328390D02*
X38132738Y-35280771D01*
X38132738Y-35280771D02*
X37942262Y-35280771D01*
X37942262Y-35280771D02*
X37847024Y-35328390D01*
X37847024Y-35328390D02*
X37799405Y-35376009D01*
X37799405Y-35376009D02*
X37751786Y-35471247D01*
X28708333Y-31339819D02*
X28375000Y-30863628D01*
X28136905Y-31339819D02*
X28136905Y-30339819D01*
X28136905Y-30339819D02*
X28517857Y-30339819D01*
X28517857Y-30339819D02*
X28613095Y-30387438D01*
X28613095Y-30387438D02*
X28660714Y-30435057D01*
X28660714Y-30435057D02*
X28708333Y-30530295D01*
X28708333Y-30530295D02*
X28708333Y-30673152D01*
X28708333Y-30673152D02*
X28660714Y-30768390D01*
X28660714Y-30768390D02*
X28613095Y-30816009D01*
X28613095Y-30816009D02*
X28517857Y-30863628D01*
X28517857Y-30863628D02*
X28136905Y-30863628D01*
X29041667Y-30339819D02*
X29660714Y-30339819D01*
X29660714Y-30339819D02*
X29327381Y-30720771D01*
X29327381Y-30720771D02*
X29470238Y-30720771D01*
X29470238Y-30720771D02*
X29565476Y-30768390D01*
X29565476Y-30768390D02*
X29613095Y-30816009D01*
X29613095Y-30816009D02*
X29660714Y-30911247D01*
X29660714Y-30911247D02*
X29660714Y-31149342D01*
X29660714Y-31149342D02*
X29613095Y-31244580D01*
X29613095Y-31244580D02*
X29565476Y-31292200D01*
X29565476Y-31292200D02*
X29470238Y-31339819D01*
X29470238Y-31339819D02*
X29184524Y-31339819D01*
X29184524Y-31339819D02*
X29089286Y-31292200D01*
X29089286Y-31292200D02*
X29041667Y-31244580D01*
D11*
X28480833Y-26772419D02*
X28147500Y-26296228D01*
X27909405Y-26772419D02*
X27909405Y-25772419D01*
X27909405Y-25772419D02*
X28290357Y-25772419D01*
X28290357Y-25772419D02*
X28385595Y-25820038D01*
X28385595Y-25820038D02*
X28433214Y-25867657D01*
X28433214Y-25867657D02*
X28480833Y-25962895D01*
X28480833Y-25962895D02*
X28480833Y-26105752D01*
X28480833Y-26105752D02*
X28433214Y-26200990D01*
X28433214Y-26200990D02*
X28385595Y-26248609D01*
X28385595Y-26248609D02*
X28290357Y-26296228D01*
X28290357Y-26296228D02*
X27909405Y-26296228D01*
X28861786Y-25867657D02*
X28909405Y-25820038D01*
X28909405Y-25820038D02*
X29004643Y-25772419D01*
X29004643Y-25772419D02*
X29242738Y-25772419D01*
X29242738Y-25772419D02*
X29337976Y-25820038D01*
X29337976Y-25820038D02*
X29385595Y-25867657D01*
X29385595Y-25867657D02*
X29433214Y-25962895D01*
X29433214Y-25962895D02*
X29433214Y-26058133D01*
X29433214Y-26058133D02*
X29385595Y-26200990D01*
X29385595Y-26200990D02*
X28814167Y-26772419D01*
X28814167Y-26772419D02*
X29433214Y-26772419D01*
D10*
X25369405Y-16689819D02*
X25369405Y-15689819D01*
X25369405Y-15689819D02*
X25607500Y-15689819D01*
X25607500Y-15689819D02*
X25750357Y-15737438D01*
X25750357Y-15737438D02*
X25845595Y-15832676D01*
X25845595Y-15832676D02*
X25893214Y-15927914D01*
X25893214Y-15927914D02*
X25940833Y-16118390D01*
X25940833Y-16118390D02*
X25940833Y-16261247D01*
X25940833Y-16261247D02*
X25893214Y-16451723D01*
X25893214Y-16451723D02*
X25845595Y-16546961D01*
X25845595Y-16546961D02*
X25750357Y-16642200D01*
X25750357Y-16642200D02*
X25607500Y-16689819D01*
X25607500Y-16689819D02*
X25369405Y-16689819D01*
X26893214Y-16689819D02*
X26321786Y-16689819D01*
X26607500Y-16689819D02*
X26607500Y-15689819D01*
X26607500Y-15689819D02*
X26512262Y-15832676D01*
X26512262Y-15832676D02*
X26417024Y-15927914D01*
X26417024Y-15927914D02*
X26321786Y-15975533D01*
D11*
X74200833Y-26772419D02*
X73867500Y-26296228D01*
X73629405Y-26772419D02*
X73629405Y-25772419D01*
X73629405Y-25772419D02*
X74010357Y-25772419D01*
X74010357Y-25772419D02*
X74105595Y-25820038D01*
X74105595Y-25820038D02*
X74153214Y-25867657D01*
X74153214Y-25867657D02*
X74200833Y-25962895D01*
X74200833Y-25962895D02*
X74200833Y-26105752D01*
X74200833Y-26105752D02*
X74153214Y-26200990D01*
X74153214Y-26200990D02*
X74105595Y-26248609D01*
X74105595Y-26248609D02*
X74010357Y-26296228D01*
X74010357Y-26296228D02*
X73629405Y-26296228D01*
X74772262Y-26200990D02*
X74677024Y-26153371D01*
X74677024Y-26153371D02*
X74629405Y-26105752D01*
X74629405Y-26105752D02*
X74581786Y-26010514D01*
X74581786Y-26010514D02*
X74581786Y-25962895D01*
X74581786Y-25962895D02*
X74629405Y-25867657D01*
X74629405Y-25867657D02*
X74677024Y-25820038D01*
X74677024Y-25820038D02*
X74772262Y-25772419D01*
X74772262Y-25772419D02*
X74962738Y-25772419D01*
X74962738Y-25772419D02*
X75057976Y-25820038D01*
X75057976Y-25820038D02*
X75105595Y-25867657D01*
X75105595Y-25867657D02*
X75153214Y-25962895D01*
X75153214Y-25962895D02*
X75153214Y-26010514D01*
X75153214Y-26010514D02*
X75105595Y-26105752D01*
X75105595Y-26105752D02*
X75057976Y-26153371D01*
X75057976Y-26153371D02*
X74962738Y-26200990D01*
X74962738Y-26200990D02*
X74772262Y-26200990D01*
X74772262Y-26200990D02*
X74677024Y-26248609D01*
X74677024Y-26248609D02*
X74629405Y-26296228D01*
X74629405Y-26296228D02*
X74581786Y-26391466D01*
X74581786Y-26391466D02*
X74581786Y-26581942D01*
X74581786Y-26581942D02*
X74629405Y-26677180D01*
X74629405Y-26677180D02*
X74677024Y-26724800D01*
X74677024Y-26724800D02*
X74772262Y-26772419D01*
X74772262Y-26772419D02*
X74962738Y-26772419D01*
X74962738Y-26772419D02*
X75057976Y-26724800D01*
X75057976Y-26724800D02*
X75105595Y-26677180D01*
X75105595Y-26677180D02*
X75153214Y-26581942D01*
X75153214Y-26581942D02*
X75153214Y-26391466D01*
X75153214Y-26391466D02*
X75105595Y-26296228D01*
X75105595Y-26296228D02*
X75057976Y-26248609D01*
X75057976Y-26248609D02*
X74962738Y-26200990D01*
D10*
X43948333Y-31339819D02*
X43615000Y-30863628D01*
X43376905Y-31339819D02*
X43376905Y-30339819D01*
X43376905Y-30339819D02*
X43757857Y-30339819D01*
X43757857Y-30339819D02*
X43853095Y-30387438D01*
X43853095Y-30387438D02*
X43900714Y-30435057D01*
X43900714Y-30435057D02*
X43948333Y-30530295D01*
X43948333Y-30530295D02*
X43948333Y-30673152D01*
X43948333Y-30673152D02*
X43900714Y-30768390D01*
X43900714Y-30768390D02*
X43853095Y-30816009D01*
X43853095Y-30816009D02*
X43757857Y-30863628D01*
X43757857Y-30863628D02*
X43376905Y-30863628D01*
X44853095Y-30339819D02*
X44376905Y-30339819D01*
X44376905Y-30339819D02*
X44329286Y-30816009D01*
X44329286Y-30816009D02*
X44376905Y-30768390D01*
X44376905Y-30768390D02*
X44472143Y-30720771D01*
X44472143Y-30720771D02*
X44710238Y-30720771D01*
X44710238Y-30720771D02*
X44805476Y-30768390D01*
X44805476Y-30768390D02*
X44853095Y-30816009D01*
X44853095Y-30816009D02*
X44900714Y-30911247D01*
X44900714Y-30911247D02*
X44900714Y-31149342D01*
X44900714Y-31149342D02*
X44853095Y-31244580D01*
X44853095Y-31244580D02*
X44805476Y-31292200D01*
X44805476Y-31292200D02*
X44710238Y-31339819D01*
X44710238Y-31339819D02*
X44472143Y-31339819D01*
X44472143Y-31339819D02*
X44376905Y-31292200D01*
X44376905Y-31292200D02*
X44329286Y-31244580D01*
D11*
X58960833Y-26772419D02*
X58627500Y-26296228D01*
X58389405Y-26772419D02*
X58389405Y-25772419D01*
X58389405Y-25772419D02*
X58770357Y-25772419D01*
X58770357Y-25772419D02*
X58865595Y-25820038D01*
X58865595Y-25820038D02*
X58913214Y-25867657D01*
X58913214Y-25867657D02*
X58960833Y-25962895D01*
X58960833Y-25962895D02*
X58960833Y-26105752D01*
X58960833Y-26105752D02*
X58913214Y-26200990D01*
X58913214Y-26200990D02*
X58865595Y-26248609D01*
X58865595Y-26248609D02*
X58770357Y-26296228D01*
X58770357Y-26296228D02*
X58389405Y-26296228D01*
X59294167Y-25772419D02*
X59960833Y-25772419D01*
X59960833Y-25772419D02*
X59532262Y-26772419D01*
D10*
X15541666Y-33539819D02*
X15541666Y-34254104D01*
X15541666Y-34254104D02*
X15494047Y-34396961D01*
X15494047Y-34396961D02*
X15398809Y-34492200D01*
X15398809Y-34492200D02*
X15255952Y-34539819D01*
X15255952Y-34539819D02*
X15160714Y-34539819D01*
X15922619Y-33539819D02*
X16541666Y-33539819D01*
X16541666Y-33539819D02*
X16208333Y-33920771D01*
X16208333Y-33920771D02*
X16351190Y-33920771D01*
X16351190Y-33920771D02*
X16446428Y-33968390D01*
X16446428Y-33968390D02*
X16494047Y-34016009D01*
X16494047Y-34016009D02*
X16541666Y-34111247D01*
X16541666Y-34111247D02*
X16541666Y-34349342D01*
X16541666Y-34349342D02*
X16494047Y-34444580D01*
X16494047Y-34444580D02*
X16446428Y-34492200D01*
X16446428Y-34492200D02*
X16351190Y-34539819D01*
X16351190Y-34539819D02*
X16065476Y-34539819D01*
X16065476Y-34539819D02*
X15970238Y-34492200D01*
X15970238Y-34492200D02*
X15922619Y-34444580D01*
X71016905Y-16689819D02*
X71016905Y-15689819D01*
X71016905Y-15689819D02*
X71255000Y-15689819D01*
X71255000Y-15689819D02*
X71397857Y-15737438D01*
X71397857Y-15737438D02*
X71493095Y-15832676D01*
X71493095Y-15832676D02*
X71540714Y-15927914D01*
X71540714Y-15927914D02*
X71588333Y-16118390D01*
X71588333Y-16118390D02*
X71588333Y-16261247D01*
X71588333Y-16261247D02*
X71540714Y-16451723D01*
X71540714Y-16451723D02*
X71493095Y-16546961D01*
X71493095Y-16546961D02*
X71397857Y-16642200D01*
X71397857Y-16642200D02*
X71255000Y-16689819D01*
X71255000Y-16689819D02*
X71016905Y-16689819D01*
X72445476Y-16023152D02*
X72445476Y-16689819D01*
X72207381Y-15642200D02*
X71969286Y-16356485D01*
X71969286Y-16356485D02*
X72588333Y-16356485D01*
X67374642Y-35899819D02*
X67041309Y-35423628D01*
X66803214Y-35899819D02*
X66803214Y-34899819D01*
X66803214Y-34899819D02*
X67184166Y-34899819D01*
X67184166Y-34899819D02*
X67279404Y-34947438D01*
X67279404Y-34947438D02*
X67327023Y-34995057D01*
X67327023Y-34995057D02*
X67374642Y-35090295D01*
X67374642Y-35090295D02*
X67374642Y-35233152D01*
X67374642Y-35233152D02*
X67327023Y-35328390D01*
X67327023Y-35328390D02*
X67279404Y-35376009D01*
X67279404Y-35376009D02*
X67184166Y-35423628D01*
X67184166Y-35423628D02*
X66803214Y-35423628D01*
X68327023Y-35899819D02*
X67755595Y-35899819D01*
X68041309Y-35899819D02*
X68041309Y-34899819D01*
X68041309Y-34899819D02*
X67946071Y-35042676D01*
X67946071Y-35042676D02*
X67850833Y-35137914D01*
X67850833Y-35137914D02*
X67755595Y-35185533D01*
X68707976Y-34995057D02*
X68755595Y-34947438D01*
X68755595Y-34947438D02*
X68850833Y-34899819D01*
X68850833Y-34899819D02*
X69088928Y-34899819D01*
X69088928Y-34899819D02*
X69184166Y-34947438D01*
X69184166Y-34947438D02*
X69231785Y-34995057D01*
X69231785Y-34995057D02*
X69279404Y-35090295D01*
X69279404Y-35090295D02*
X69279404Y-35185533D01*
X69279404Y-35185533D02*
X69231785Y-35328390D01*
X69231785Y-35328390D02*
X68660357Y-35899819D01*
X68660357Y-35899819D02*
X69279404Y-35899819D01*
X60216905Y-16689819D02*
X60216905Y-15689819D01*
X60216905Y-15689819D02*
X60455000Y-15689819D01*
X60455000Y-15689819D02*
X60597857Y-15737438D01*
X60597857Y-15737438D02*
X60693095Y-15832676D01*
X60693095Y-15832676D02*
X60740714Y-15927914D01*
X60740714Y-15927914D02*
X60788333Y-16118390D01*
X60788333Y-16118390D02*
X60788333Y-16261247D01*
X60788333Y-16261247D02*
X60740714Y-16451723D01*
X60740714Y-16451723D02*
X60693095Y-16546961D01*
X60693095Y-16546961D02*
X60597857Y-16642200D01*
X60597857Y-16642200D02*
X60455000Y-16689819D01*
X60455000Y-16689819D02*
X60216905Y-16689819D01*
X61121667Y-15689819D02*
X61740714Y-15689819D01*
X61740714Y-15689819D02*
X61407381Y-16070771D01*
X61407381Y-16070771D02*
X61550238Y-16070771D01*
X61550238Y-16070771D02*
X61645476Y-16118390D01*
X61645476Y-16118390D02*
X61693095Y-16166009D01*
X61693095Y-16166009D02*
X61740714Y-16261247D01*
X61740714Y-16261247D02*
X61740714Y-16499342D01*
X61740714Y-16499342D02*
X61693095Y-16594580D01*
X61693095Y-16594580D02*
X61645476Y-16642200D01*
X61645476Y-16642200D02*
X61550238Y-16689819D01*
X61550238Y-16689819D02*
X61264524Y-16689819D01*
X61264524Y-16689819D02*
X61169286Y-16642200D01*
X61169286Y-16642200D02*
X61121667Y-16594580D01*
X59188333Y-31339819D02*
X58855000Y-30863628D01*
X58616905Y-31339819D02*
X58616905Y-30339819D01*
X58616905Y-30339819D02*
X58997857Y-30339819D01*
X58997857Y-30339819D02*
X59093095Y-30387438D01*
X59093095Y-30387438D02*
X59140714Y-30435057D01*
X59140714Y-30435057D02*
X59188333Y-30530295D01*
X59188333Y-30530295D02*
X59188333Y-30673152D01*
X59188333Y-30673152D02*
X59140714Y-30768390D01*
X59140714Y-30768390D02*
X59093095Y-30816009D01*
X59093095Y-30816009D02*
X58997857Y-30863628D01*
X58997857Y-30863628D02*
X58616905Y-30863628D01*
X59664524Y-31339819D02*
X59855000Y-31339819D01*
X59855000Y-31339819D02*
X59950238Y-31292200D01*
X59950238Y-31292200D02*
X59997857Y-31244580D01*
X59997857Y-31244580D02*
X60093095Y-31101723D01*
X60093095Y-31101723D02*
X60140714Y-30911247D01*
X60140714Y-30911247D02*
X60140714Y-30530295D01*
X60140714Y-30530295D02*
X60093095Y-30435057D01*
X60093095Y-30435057D02*
X60045476Y-30387438D01*
X60045476Y-30387438D02*
X59950238Y-30339819D01*
X59950238Y-30339819D02*
X59759762Y-30339819D01*
X59759762Y-30339819D02*
X59664524Y-30387438D01*
X59664524Y-30387438D02*
X59616905Y-30435057D01*
X59616905Y-30435057D02*
X59569286Y-30530295D01*
X59569286Y-30530295D02*
X59569286Y-30768390D01*
X59569286Y-30768390D02*
X59616905Y-30863628D01*
X59616905Y-30863628D02*
X59664524Y-30911247D01*
X59664524Y-30911247D02*
X59759762Y-30958866D01*
X59759762Y-30958866D02*
X59950238Y-30958866D01*
X59950238Y-30958866D02*
X60045476Y-30911247D01*
X60045476Y-30911247D02*
X60093095Y-30863628D01*
X60093095Y-30863628D02*
X60140714Y-30768390D01*
X28464819Y-18476904D02*
X29274342Y-18476904D01*
X29274342Y-18476904D02*
X29369580Y-18429285D01*
X29369580Y-18429285D02*
X29417200Y-18381666D01*
X29417200Y-18381666D02*
X29464819Y-18286428D01*
X29464819Y-18286428D02*
X29464819Y-18095952D01*
X29464819Y-18095952D02*
X29417200Y-18000714D01*
X29417200Y-18000714D02*
X29369580Y-17953095D01*
X29369580Y-17953095D02*
X29274342Y-17905476D01*
X29274342Y-17905476D02*
X28464819Y-17905476D01*
X28560057Y-17476904D02*
X28512438Y-17429285D01*
X28512438Y-17429285D02*
X28464819Y-17334047D01*
X28464819Y-17334047D02*
X28464819Y-17095952D01*
X28464819Y-17095952D02*
X28512438Y-17000714D01*
X28512438Y-17000714D02*
X28560057Y-16953095D01*
X28560057Y-16953095D02*
X28655295Y-16905476D01*
X28655295Y-16905476D02*
X28750533Y-16905476D01*
X28750533Y-16905476D02*
X28893390Y-16953095D01*
X28893390Y-16953095D02*
X29464819Y-17524523D01*
X29464819Y-17524523D02*
X29464819Y-16905476D01*
X31054523Y-18173773D02*
X30994047Y-18234250D01*
X30994047Y-18234250D02*
X30812618Y-18294726D01*
X30812618Y-18294726D02*
X30691666Y-18294726D01*
X30691666Y-18294726D02*
X30510237Y-18234250D01*
X30510237Y-18234250D02*
X30389285Y-18113297D01*
X30389285Y-18113297D02*
X30328808Y-17992345D01*
X30328808Y-17992345D02*
X30268332Y-17750440D01*
X30268332Y-17750440D02*
X30268332Y-17569011D01*
X30268332Y-17569011D02*
X30328808Y-17327107D01*
X30328808Y-17327107D02*
X30389285Y-17206154D01*
X30389285Y-17206154D02*
X30510237Y-17085202D01*
X30510237Y-17085202D02*
X30691666Y-17024726D01*
X30691666Y-17024726D02*
X30812618Y-17024726D01*
X30812618Y-17024726D02*
X30994047Y-17085202D01*
X30994047Y-17085202D02*
X31054523Y-17145678D01*
X32203570Y-17024726D02*
X31598808Y-17024726D01*
X31598808Y-17024726D02*
X31538332Y-17629488D01*
X31538332Y-17629488D02*
X31598808Y-17569011D01*
X31598808Y-17569011D02*
X31719761Y-17508535D01*
X31719761Y-17508535D02*
X32022142Y-17508535D01*
X32022142Y-17508535D02*
X32143094Y-17569011D01*
X32143094Y-17569011D02*
X32203570Y-17629488D01*
X32203570Y-17629488D02*
X32264047Y-17750440D01*
X32264047Y-17750440D02*
X32264047Y-18052821D01*
X32264047Y-18052821D02*
X32203570Y-18173773D01*
X32203570Y-18173773D02*
X32143094Y-18234250D01*
X32143094Y-18234250D02*
X32022142Y-18294726D01*
X32022142Y-18294726D02*
X31719761Y-18294726D01*
X31719761Y-18294726D02*
X31598808Y-18234250D01*
X31598808Y-18234250D02*
X31538332Y-18173773D01*
X33352618Y-17448059D02*
X33352618Y-18294726D01*
X33050237Y-16964250D02*
X32747856Y-17871392D01*
X32747856Y-17871392D02*
X33534047Y-17871392D01*
X33896904Y-17024726D02*
X34743571Y-17024726D01*
X34743571Y-17024726D02*
X34199285Y-18294726D01*
X35892619Y-18294726D02*
X35166904Y-18294726D01*
X35529761Y-18294726D02*
X35529761Y-17024726D01*
X35529761Y-17024726D02*
X35408809Y-17206154D01*
X35408809Y-17206154D02*
X35287857Y-17327107D01*
X35287857Y-17327107D02*
X35166904Y-17387583D01*
X36981190Y-17448059D02*
X36981190Y-18294726D01*
X36678809Y-16964250D02*
X36376428Y-17871392D01*
X36376428Y-17871392D02*
X37162619Y-17871392D01*
X37525476Y-17024726D02*
X38311667Y-17024726D01*
X38311667Y-17024726D02*
X37888333Y-17508535D01*
X37888333Y-17508535D02*
X38069762Y-17508535D01*
X38069762Y-17508535D02*
X38190714Y-17569011D01*
X38190714Y-17569011D02*
X38251190Y-17629488D01*
X38251190Y-17629488D02*
X38311667Y-17750440D01*
X38311667Y-17750440D02*
X38311667Y-18052821D01*
X38311667Y-18052821D02*
X38251190Y-18173773D01*
X38251190Y-18173773D02*
X38190714Y-18234250D01*
X38190714Y-18234250D02*
X38069762Y-18294726D01*
X38069762Y-18294726D02*
X37706905Y-18294726D01*
X37706905Y-18294726D02*
X37585952Y-18234250D01*
X37585952Y-18234250D02*
X37525476Y-18173773D01*
D12*
%TO.C,D2*%
X40980000Y-17959000D02*
X40980000Y-18115000D01*
X40980000Y-20275000D02*
X40980000Y-20431000D01*
X40980000Y-17959484D02*
G75*
G02*
X44212335Y-18116392I1560000J-1235516D01*
G01*
X41499039Y-18115000D02*
G75*
G02*
X43581130Y-18115163I1040961J-1080000D01*
G01*
X43581130Y-20274837D02*
G75*
G02*
X41499039Y-20275000I-1041130J1079837D01*
G01*
X44212335Y-20273608D02*
G75*
G02*
X40980000Y-20430516I-1672335J1078608D01*
G01*
%TO.C,R4*%
D11*
X40077500Y-23005000D02*
X47697500Y-23005000D01*
X47697500Y-30625000D01*
X40077500Y-30625000D01*
X40077500Y-23005000D01*
D12*
%TO.C,R10*%
X73067936Y-34525000D02*
X76122064Y-34525000D01*
X73067936Y-31805000D02*
X76122064Y-31805000D01*
%TO.C,J2*%
X17205000Y-26085000D02*
X15875000Y-26085000D01*
X17205000Y-24755000D02*
X17205000Y-26085000D01*
X17205000Y-23485000D02*
X17205000Y-15805000D01*
X17205000Y-23485000D02*
X14545000Y-23485000D01*
X17205000Y-15805000D02*
X14545000Y-15805000D01*
X14545000Y-23485000D02*
X14545000Y-15805000D01*
%TO.C,J1*%
X56647500Y-20525000D02*
X56647500Y-17865000D01*
X48967500Y-20525000D02*
X56647500Y-20525000D01*
X48967500Y-20525000D02*
X48967500Y-17865000D01*
X48967500Y-17865000D02*
X56647500Y-17865000D01*
X47697500Y-20525000D02*
X46367500Y-20525000D01*
X46367500Y-20525000D02*
X46367500Y-19195000D01*
%TO.C,R11*%
X54304564Y-34525000D02*
X51250436Y-34525000D01*
X54304564Y-31805000D02*
X51250436Y-31805000D01*
%TO.C,R1*%
X23597064Y-34525000D02*
X20542936Y-34525000D01*
X23597064Y-31805000D02*
X20542936Y-31805000D01*
%TO.C,R6*%
X39064564Y-34525000D02*
X36010436Y-34525000D01*
X39064564Y-31805000D02*
X36010436Y-31805000D01*
%TO.C,R3*%
X27347936Y-34525000D02*
X30402064Y-34525000D01*
X27347936Y-31805000D02*
X30402064Y-31805000D01*
%TO.C,R2*%
D11*
X24837500Y-23005000D02*
X32457500Y-23005000D01*
X32457500Y-30625000D01*
X24837500Y-30625000D01*
X24837500Y-23005000D01*
D12*
%TO.C,D1*%
X27779835Y-20273608D02*
G75*
G02*
X24547500Y-20430516I-1672335J1078608D01*
G01*
X27148630Y-20274837D02*
G75*
G02*
X25066539Y-20275000I-1041130J1079837D01*
G01*
X25066539Y-18115000D02*
G75*
G02*
X27148630Y-18115163I1040961J-1080000D01*
G01*
X24547500Y-17959484D02*
G75*
G02*
X27779835Y-18116392I1560000J-1235516D01*
G01*
X24547500Y-20275000D02*
X24547500Y-20431000D01*
X24547500Y-17959000D02*
X24547500Y-18115000D01*
%TO.C,R8*%
D11*
X70557500Y-23005000D02*
X78177500Y-23005000D01*
X78177500Y-30625000D01*
X70557500Y-30625000D01*
X70557500Y-23005000D01*
D12*
%TO.C,R5*%
X42587936Y-34525000D02*
X45642064Y-34525000D01*
X42587936Y-31805000D02*
X45642064Y-31805000D01*
%TO.C,R7*%
D11*
X55317500Y-23005000D02*
X62937500Y-23005000D01*
X62937500Y-30625000D01*
X55317500Y-30625000D01*
X55317500Y-23005000D01*
D12*
%TO.C,J3*%
X17205000Y-33085000D02*
X15875000Y-33085000D01*
X17205000Y-31755000D02*
X17205000Y-33085000D01*
X17205000Y-30485000D02*
X17205000Y-27885000D01*
X17205000Y-30485000D02*
X14545000Y-30485000D01*
X17205000Y-27885000D02*
X14545000Y-27885000D01*
X14545000Y-30485000D02*
X14545000Y-27885000D01*
%TO.C,D4*%
X70195000Y-17959000D02*
X70195000Y-18115000D01*
X70195000Y-20275000D02*
X70195000Y-20431000D01*
X70195000Y-17959484D02*
G75*
G02*
X73427335Y-18116392I1560000J-1235516D01*
G01*
X70714039Y-18115000D02*
G75*
G02*
X72796130Y-18115163I1040961J-1080000D01*
G01*
X72796130Y-20274837D02*
G75*
G02*
X70714039Y-20275000I-1041130J1079837D01*
G01*
X73427335Y-20273608D02*
G75*
G02*
X70195000Y-20430516I-1672335J1078608D01*
G01*
%TO.C,R12*%
X69544564Y-34525000D02*
X66490436Y-34525000D01*
X69544564Y-31805000D02*
X66490436Y-31805000D01*
%TO.C,D3*%
X62627335Y-20273608D02*
G75*
G02*
X59395000Y-20430516I-1672335J1078608D01*
G01*
X61996130Y-20274837D02*
G75*
G02*
X59914039Y-20275000I-1041130J1079837D01*
G01*
X59914039Y-18115000D02*
G75*
G02*
X61996130Y-18115163I1040961J-1080000D01*
G01*
X59395000Y-17959484D02*
G75*
G02*
X62627335Y-18116392I1560000J-1235516D01*
G01*
X59395000Y-20275000D02*
X59395000Y-20431000D01*
X59395000Y-17959000D02*
X59395000Y-18115000D01*
%TO.C,R9*%
X57827936Y-34525000D02*
X60882064Y-34525000D01*
X57827936Y-31805000D02*
X60882064Y-31805000D01*
%TO.C,U2*%
X29920000Y-20415000D02*
X29590000Y-20655000D01*
X29590000Y-20175000D01*
X29920000Y-20415000D01*
G36*
X29920000Y-20415000D02*
G01*
X29590000Y-20655000D01*
X29590000Y-20175000D01*
X29920000Y-20415000D01*
G37*
X38725000Y-17715000D02*
X38725000Y-19665000D01*
X38725000Y-17715000D02*
X38725000Y-15765000D01*
X29855000Y-17715000D02*
X29855000Y-19665000D01*
X29855000Y-17715000D02*
X29855000Y-15765000D01*
%TD*%
%LPC*%
D13*
%TO.C,D2*%
X41270000Y-19195000D03*
D14*
X43810000Y-19195000D03*
%TD*%
D15*
%TO.C,R4*%
X41347500Y-29355000D03*
X46427500Y-29355000D03*
X43887500Y-24275000D03*
%TD*%
D16*
%TO.C,R10*%
X76907500Y-33165000D03*
X72282500Y-33165000D03*
%TD*%
D17*
%TO.C,J2*%
X15875000Y-17135000D03*
X15875000Y-19675000D03*
X15875000Y-22215000D03*
D18*
X15875000Y-24755000D03*
%TD*%
D17*
%TO.C,J1*%
X55317500Y-19195000D03*
X52777500Y-19195000D03*
X50237500Y-19195000D03*
D18*
X47697500Y-19195000D03*
%TD*%
D19*
%TO.C,R11*%
X50465000Y-33165000D03*
X55090000Y-33165000D03*
%TD*%
%TO.C,R1*%
X19757500Y-33165000D03*
X24382500Y-33165000D03*
%TD*%
%TO.C,R6*%
X35225000Y-33165000D03*
X39850000Y-33165000D03*
%TD*%
D16*
%TO.C,R3*%
X31187500Y-33165000D03*
X26562500Y-33165000D03*
%TD*%
D15*
%TO.C,R2*%
X26107500Y-29355000D03*
X31187500Y-29355000D03*
X28647500Y-24275000D03*
%TD*%
D14*
%TO.C,D1*%
X27377500Y-19195000D03*
D13*
X24837500Y-19195000D03*
%TD*%
D15*
%TO.C,R8*%
X71827500Y-29355000D03*
X76907500Y-29355000D03*
X74367500Y-24275000D03*
%TD*%
D16*
%TO.C,R5*%
X46427500Y-33165000D03*
X41802500Y-33165000D03*
%TD*%
D15*
%TO.C,R7*%
X56587500Y-29355000D03*
X61667500Y-29355000D03*
X59127500Y-24275000D03*
%TD*%
D17*
%TO.C,J3*%
X15875000Y-29215000D03*
D18*
X15875000Y-31755000D03*
%TD*%
D13*
%TO.C,D4*%
X70485000Y-19195000D03*
D14*
X73025000Y-19195000D03*
%TD*%
D19*
%TO.C,R12*%
X65705000Y-33165000D03*
X70330000Y-33165000D03*
%TD*%
D14*
%TO.C,D3*%
X62225000Y-19195000D03*
D13*
X59685000Y-19195000D03*
%TD*%
D16*
%TO.C,R9*%
X61667500Y-33165000D03*
X57042500Y-33165000D03*
%TD*%
D20*
%TO.C,U2*%
X30480000Y-15240000D03*
X31750000Y-15240000D03*
X33020000Y-15240000D03*
X34290000Y-15240000D03*
X35560000Y-15240000D03*
X36830000Y-15240000D03*
X38100000Y-15240000D03*
X38100000Y-20190000D03*
X36830000Y-20190000D03*
X35560000Y-20190000D03*
X34290000Y-20190000D03*
X33020000Y-20190000D03*
X31750000Y-20190000D03*
X30480000Y-20190000D03*
%TD*%
D14*
%TO.C,U6*%
X68017500Y-24130000D03*
X65477500Y-24130000D03*
X68017500Y-28230000D03*
X65477500Y-28230000D03*
%TD*%
%TO.C,U1*%
X22297500Y-24130000D03*
X19757500Y-24130000D03*
X22297500Y-28230000D03*
X19757500Y-28230000D03*
%TD*%
%TO.C,U4*%
X37537500Y-24130000D03*
X34997500Y-24130000D03*
X37537500Y-28230000D03*
X34997500Y-28230000D03*
%TD*%
%TO.C,U5*%
X52777500Y-24130000D03*
X50237500Y-24130000D03*
X52777500Y-28230000D03*
X50237500Y-28230000D03*
%TD*%
%LPD*%
M02*
