%TF.GenerationSoftware,KiCad,Pcbnew,8.0.5*%
%TF.CreationDate,2024-10-09T02:46:16+09:00*%
%TF.ProjectId,LT,4c542e6b-6963-4616-945f-706362585858,rev?*%
%TF.SameCoordinates,Original*%
%TF.FileFunction,Soldermask,Bot*%
%TF.FilePolarity,Negative*%
%FSLAX46Y46*%
G04 Gerber Fmt 4.6, Leading zero omitted, Abs format (unit mm)*
G04 Created by KiCad (PCBNEW 8.0.5) date 2024-10-09 02:46:16*
%MOMM*%
%LPD*%
G01*
G04 APERTURE LIST*
%ADD10R,1.800000X1.800000*%
%ADD11C,1.800000*%
%ADD12C,1.524000*%
%ADD13O,1.700000X1.700000*%
%ADD14R,1.700000X1.700000*%
G04 APERTURE END LIST*
D10*
%TO.C,D2*%
X41270000Y-19195000D03*
D11*
X43810000Y-19195000D03*
%TD*%
D12*
%TO.C,R4*%
X41347500Y-29355000D03*
X46427500Y-29355000D03*
X43887500Y-24275000D03*
%TD*%
D13*
%TO.C,J2*%
X15875000Y-17135000D03*
X15875000Y-19675000D03*
X15875000Y-22215000D03*
D14*
X15875000Y-24755000D03*
%TD*%
D13*
%TO.C,J1*%
X55317500Y-19195000D03*
X52777500Y-19195000D03*
X50237500Y-19195000D03*
D14*
X47697500Y-19195000D03*
%TD*%
D12*
%TO.C,R2*%
X26107500Y-29355000D03*
X31187500Y-29355000D03*
X28647500Y-24275000D03*
%TD*%
D11*
%TO.C,D1*%
X27377500Y-19195000D03*
D10*
X24837500Y-19195000D03*
%TD*%
D12*
%TO.C,R8*%
X71827500Y-29355000D03*
X76907500Y-29355000D03*
X74367500Y-24275000D03*
%TD*%
%TO.C,R7*%
X56587500Y-29355000D03*
X61667500Y-29355000D03*
X59127500Y-24275000D03*
%TD*%
D13*
%TO.C,J3*%
X15875000Y-29215000D03*
D14*
X15875000Y-31755000D03*
%TD*%
D10*
%TO.C,D4*%
X70485000Y-19195000D03*
D11*
X73025000Y-19195000D03*
%TD*%
%TO.C,D3*%
X62225000Y-19195000D03*
D10*
X59685000Y-19195000D03*
%TD*%
D11*
%TO.C,U6*%
X68017500Y-24130000D03*
X65477500Y-24130000D03*
X68017500Y-28230000D03*
X65477500Y-28230000D03*
%TD*%
%TO.C,U1*%
X22297500Y-24130000D03*
X19757500Y-24130000D03*
X22297500Y-28230000D03*
X19757500Y-28230000D03*
%TD*%
%TO.C,U4*%
X37537500Y-24130000D03*
X34997500Y-24130000D03*
X37537500Y-28230000D03*
X34997500Y-28230000D03*
%TD*%
%TO.C,U5*%
X52777500Y-24130000D03*
X50237500Y-24130000D03*
X52777500Y-28230000D03*
X50237500Y-28230000D03*
%TD*%
M02*
