%TF.GenerationSoftware,KiCad,Pcbnew,8.0.5*%
%TF.CreationDate,2024-10-30T18:10:09+09:00*%
%TF.ProjectId,BD,42442e6b-6963-4616-945f-706362585858,rev?*%
%TF.SameCoordinates,Original*%
%TF.FileFunction,Copper,L2,Bot*%
%TF.FilePolarity,Positive*%
%FSLAX46Y46*%
G04 Gerber Fmt 4.6, Leading zero omitted, Abs format (unit mm)*
G04 Created by KiCad (PCBNEW 8.0.5) date 2024-10-30 18:10:09*
%MOMM*%
%LPD*%
G01*
G04 APERTURE LIST*
G04 Aperture macros list*
%AMRoundRect*
0 Rectangle with rounded corners*
0 $1 Rounding radius*
0 $2 $3 $4 $5 $6 $7 $8 $9 X,Y pos of 4 corners*
0 Add a 4 corners polygon primitive as box body*
4,1,4,$2,$3,$4,$5,$6,$7,$8,$9,$2,$3,0*
0 Add four circle primitives for the rounded corners*
1,1,$1+$1,$2,$3*
1,1,$1+$1,$4,$5*
1,1,$1+$1,$6,$7*
1,1,$1+$1,$8,$9*
0 Add four rect primitives between the rounded corners*
20,1,$1+$1,$2,$3,$4,$5,0*
20,1,$1+$1,$4,$5,$6,$7,0*
20,1,$1+$1,$6,$7,$8,$9,0*
20,1,$1+$1,$8,$9,$2,$3,0*%
G04 Aperture macros list end*
%TA.AperFunction,ComponentPad*%
%ADD10C,1.400000*%
%TD*%
%TA.AperFunction,ComponentPad*%
%ADD11O,1.400000X1.400000*%
%TD*%
%TA.AperFunction,ComponentPad*%
%ADD12R,1.700000X1.700000*%
%TD*%
%TA.AperFunction,ComponentPad*%
%ADD13O,1.700000X1.700000*%
%TD*%
%TA.AperFunction,ComponentPad*%
%ADD14R,1.800000X1.800000*%
%TD*%
%TA.AperFunction,ComponentPad*%
%ADD15C,1.800000*%
%TD*%
%TA.AperFunction,ComponentPad*%
%ADD16C,1.524000*%
%TD*%
%TA.AperFunction,ComponentPad*%
%ADD17R,3.500000X3.500000*%
%TD*%
%TA.AperFunction,ComponentPad*%
%ADD18RoundRect,0.750000X-1.000000X0.750000X-1.000000X-0.750000X1.000000X-0.750000X1.000000X0.750000X0*%
%TD*%
%TA.AperFunction,ComponentPad*%
%ADD19RoundRect,0.875000X-0.875000X0.875000X-0.875000X-0.875000X0.875000X-0.875000X0.875000X0.875000X0*%
%TD*%
%TA.AperFunction,ComponentPad*%
%ADD20R,1.600000X1.600000*%
%TD*%
%TA.AperFunction,ComponentPad*%
%ADD21O,1.600000X1.600000*%
%TD*%
%TA.AperFunction,ViaPad*%
%ADD22C,0.600000*%
%TD*%
%TA.AperFunction,Conductor*%
%ADD23C,0.200000*%
%TD*%
%TA.AperFunction,Conductor*%
%ADD24C,0.500000*%
%TD*%
G04 APERTURE END LIST*
D10*
%TO.P,R2,1*%
%TO.N,+5V*%
X36771500Y-47340000D03*
D11*
%TO.P,R2,2*%
%TO.N,SW2*%
X41851500Y-47340000D03*
%TD*%
D12*
%TO.P,J2,1,Pin_1*%
%TO.N,Net-(J2-Pin_1)*%
X32717500Y-77978000D03*
D13*
%TO.P,J2,2,Pin_2*%
%TO.N,Net-(J2-Pin_2)*%
X35257500Y-77978000D03*
%TO.P,J2,3,Pin_3*%
%TO.N,Net-(J2-Pin_3)*%
X37797500Y-77978000D03*
%TO.P,J2,4,Pin_4*%
%TO.N,Net-(J2-Pin_4)*%
X40337500Y-77978000D03*
%TD*%
D14*
%TO.P,D1,1,K*%
%TO.N,GND*%
X32194500Y-53690000D03*
D15*
%TO.P,D1,2,A*%
%TO.N,Net-(A1-D2)*%
X34734500Y-53690000D03*
%TD*%
D16*
%TO.P,SW1,1,1*%
%TO.N,SW1*%
X32453500Y-45054000D03*
%TO.P,SW1,2,2*%
%TO.N,GND*%
X34993500Y-45054000D03*
%TO.P,SW1,3*%
%TO.N,N/C*%
X34993500Y-37434000D03*
%TO.P,SW1,4*%
X32453500Y-37434000D03*
%TD*%
D10*
%TO.P,R1,1*%
%TO.N,+5V*%
X36771500Y-49626000D03*
D11*
%TO.P,R1,2*%
%TO.N,SW1*%
X31691500Y-49626000D03*
%TD*%
D16*
%TO.P,U1,1,LARGE*%
%TO.N,GND*%
X41851500Y-75026000D03*
%TO.P,U1,2,MODE*%
X41851500Y-72486000D03*
%TO.P,U1,3,STBY*%
%TO.N,+5V*%
X41851500Y-69946000D03*
%TO.P,U1,4,IN4*%
%TO.N,IN4*%
X41851500Y-67406000D03*
%TO.P,U1,5,IN3*%
%TO.N,IN3*%
X41851500Y-64866000D03*
%TO.P,U1,6,IN2*%
%TO.N,IN2*%
X41851500Y-62326000D03*
%TO.P,U1,7,IN1*%
%TO.N,IN1*%
X41851500Y-59786000D03*
%TO.P,U1,8,GND*%
%TO.N,GND*%
X41851500Y-57246000D03*
%TO.P,U1,9,GND*%
%TO.N,unconnected-(U1-GND-Pad9)*%
X31691500Y-57246000D03*
%TO.P,U1,10,GND*%
%TO.N,unconnected-(U1-GND-Pad10)*%
X31691500Y-59786000D03*
%TO.P,U1,11,OUT1*%
%TO.N,Net-(J2-Pin_4)*%
X31691500Y-62326000D03*
%TO.P,U1,12,OUT2*%
%TO.N,Net-(J2-Pin_3)*%
X31691500Y-64866000D03*
%TO.P,U1,13,OUT3*%
%TO.N,Net-(J2-Pin_2)*%
X31691500Y-67406000D03*
%TO.P,U1,14,OUT4*%
%TO.N,Net-(J2-Pin_1)*%
X31691500Y-69946000D03*
%TO.P,U1,15,VM*%
%TO.N,VCC*%
X31691500Y-72486000D03*
%TO.P,U1,16,VM*%
X31691500Y-75026000D03*
%TD*%
%TO.P,SW2,1,1*%
%TO.N,SW2*%
X41597500Y-45054000D03*
%TO.P,SW2,2,2*%
%TO.N,GND*%
X39057500Y-45054000D03*
%TO.P,SW2,3*%
%TO.N,N/C*%
X41597500Y-37434000D03*
%TO.P,SW2,4*%
X39057500Y-37434000D03*
%TD*%
D14*
%TO.P,D2,1,K*%
%TO.N,GND*%
X39306500Y-53690000D03*
D15*
%TO.P,D2,2,A*%
%TO.N,Net-(A1-D4)*%
X41846500Y-53690000D03*
%TD*%
D12*
%TO.P,J1,1,Pin_1*%
%TO.N,Net-(A1-A0)*%
X26103500Y-67406000D03*
D13*
%TO.P,J1,2,Pin_2*%
%TO.N,Net-(A1-A1)*%
X26103500Y-64866000D03*
%TO.P,J1,3,Pin_3*%
%TO.N,Net-(A1-A2)*%
X26103500Y-62326000D03*
%TO.P,J1,4,Pin_4*%
%TO.N,Net-(A1-A3)*%
X26103500Y-59786000D03*
%TO.P,J1,5,Pin_5*%
%TO.N,Net-(A1-SDA{slash}A4)*%
X26103500Y-57246000D03*
%TO.P,J1,6,Pin_6*%
%TO.N,Net-(A1-SCL{slash}A5)*%
X26103500Y-54706000D03*
%TD*%
D17*
%TO.P,J4,1*%
%TO.N,VCC*%
X36830000Y-30480000D03*
D18*
%TO.P,J4,2*%
%TO.N,GND*%
X36830000Y-24480000D03*
D19*
%TO.P,J4,3*%
%TO.N,N/C*%
X41530000Y-27480000D03*
%TD*%
D20*
%TO.P,A1,1,TX1*%
%TO.N,unconnected-(A1-TX1-Pad1)*%
X44391500Y-39466000D03*
D21*
%TO.P,A1,2,RX1*%
%TO.N,unconnected-(A1-RX1-Pad2)*%
X44391500Y-42006000D03*
%TO.P,A1,3,~{RESET}*%
%TO.N,unconnected-(A1-~{RESET}-Pad3)*%
X44391500Y-44546000D03*
%TO.P,A1,4,GND*%
%TO.N,GND*%
X44391500Y-47086000D03*
%TO.P,A1,5,D2*%
%TO.N,Net-(A1-D2)*%
X44391500Y-49626000D03*
%TO.P,A1,6,D3*%
%TO.N,unconnected-(A1-D3-Pad6)*%
X44391500Y-52166000D03*
%TO.P,A1,7,D4*%
%TO.N,Net-(A1-D4)*%
X44391500Y-54706000D03*
%TO.P,A1,8,D5*%
%TO.N,IN1*%
X44391500Y-57246000D03*
%TO.P,A1,9,D6*%
%TO.N,IN2*%
X44391500Y-59786000D03*
%TO.P,A1,10,D7*%
%TO.N,unconnected-(A1-D7-Pad10)*%
X44391500Y-62326000D03*
%TO.P,A1,11,D8*%
%TO.N,unconnected-(A1-D8-Pad11)*%
X44391500Y-64866000D03*
%TO.P,A1,12,D9*%
%TO.N,IN3*%
X44391500Y-67406000D03*
%TO.P,A1,13,D10*%
%TO.N,IN4*%
X44391500Y-69946000D03*
%TO.P,A1,14,MOSI*%
%TO.N,unconnected-(A1-MOSI-Pad14)*%
X44391500Y-72486000D03*
%TO.P,A1,15,MISO*%
%TO.N,unconnected-(A1-MISO-Pad15)*%
X44391500Y-75026000D03*
%TO.P,A1,16,SCK*%
%TO.N,unconnected-(A1-SCK-Pad16)*%
X29151500Y-75026000D03*
%TO.P,A1,17,3V3*%
%TO.N,unconnected-(A1-3V3-Pad17)*%
X29151500Y-72486000D03*
%TO.P,A1,18,AREF*%
%TO.N,unconnected-(A1-AREF-Pad18)*%
X29151500Y-69946000D03*
%TO.P,A1,19,A0*%
%TO.N,Net-(A1-A0)*%
X29151500Y-67406000D03*
%TO.P,A1,20,A1*%
%TO.N,Net-(A1-A1)*%
X29151500Y-64866000D03*
%TO.P,A1,21,A2*%
%TO.N,Net-(A1-A2)*%
X29151500Y-62326000D03*
%TO.P,A1,22,A3*%
%TO.N,Net-(A1-A3)*%
X29151500Y-59786000D03*
%TO.P,A1,23,SDA/A4*%
%TO.N,Net-(A1-SDA{slash}A4)*%
X29151500Y-57246000D03*
%TO.P,A1,24,SCL/A5*%
%TO.N,Net-(A1-SCL{slash}A5)*%
X29151500Y-54706000D03*
%TO.P,A1,25,A6*%
%TO.N,SW1*%
X29151500Y-52166000D03*
%TO.P,A1,26,A7*%
%TO.N,SW2*%
X29151500Y-49626000D03*
%TO.P,A1,27,+5V*%
%TO.N,+5V*%
X29151500Y-47086000D03*
%TO.P,A1,28,~{RESET}*%
%TO.N,unconnected-(A1-~{RESET}-Pad28)*%
X29151500Y-44546000D03*
%TO.P,A1,29,GND*%
%TO.N,GND*%
X29151500Y-42006000D03*
%TO.P,A1,30,VIN*%
%TO.N,VCC*%
X29151500Y-39466000D03*
%TD*%
D22*
%TO.N,GND*%
X33723500Y-48102000D03*
X38549500Y-50134000D03*
X31183500Y-48102000D03*
X43121500Y-46070000D03*
X30734000Y-42164000D03*
X37279500Y-53690000D03*
X43121500Y-48356000D03*
X37279500Y-55976000D03*
%TO.N,Net-(A1-D2)*%
X43121500Y-55214000D03*
X38041500Y-55214000D03*
X35501500Y-55214000D03*
%TO.N,SW2*%
X38803500Y-51150000D03*
X34739500Y-50896000D03*
%TD*%
D23*
%TO.N,SW1*%
X31691500Y-49626000D02*
X32453500Y-48864000D01*
X32453500Y-48864000D02*
X32453500Y-45054000D01*
X31691500Y-49626000D02*
X29151500Y-52166000D01*
D24*
%TO.N,GND*%
X44137500Y-47086000D02*
X43121500Y-46070000D01*
X44391500Y-47086000D02*
X44137500Y-47086000D01*
X39306500Y-53690000D02*
X39819500Y-53177000D01*
D23*
X30576000Y-42006000D02*
X30734000Y-42164000D01*
D24*
X44391500Y-47086000D02*
X43121500Y-48356000D01*
X29151500Y-42006000D02*
X30576000Y-42006000D01*
X39306500Y-53690000D02*
X39306500Y-53187000D01*
D23*
%TO.N,Net-(A1-D2)*%
X43121500Y-50896000D02*
X43121500Y-55214000D01*
X43121500Y-55468000D02*
X43121500Y-55214000D01*
X44391500Y-49626000D02*
X43121500Y-50896000D01*
X38041500Y-55214000D02*
X35501500Y-55214000D01*
%TO.N,Net-(A1-A1)*%
X26103500Y-64866000D02*
X29151500Y-64866000D01*
%TO.N,Net-(A1-SCL{slash}A5)*%
X26103500Y-54706000D02*
X29151500Y-54706000D01*
%TO.N,SW2*%
X38549500Y-51404000D02*
X38803500Y-51150000D01*
X34739500Y-50896000D02*
X35247500Y-51404000D01*
X35247500Y-51404000D02*
X38549500Y-51404000D01*
X41851500Y-47086000D02*
X41597500Y-46832000D01*
%TO.N,Net-(A1-A0)*%
X29151500Y-67406000D02*
X26103500Y-67406000D01*
%TO.N,Net-(A1-A2)*%
X29151500Y-62326000D02*
X26103500Y-62326000D01*
%TO.N,Net-(A1-A3)*%
X26103500Y-59786000D02*
X29151500Y-59786000D01*
%TO.N,Net-(A1-SDA{slash}A4)*%
X29151500Y-57246000D02*
X26103500Y-57246000D01*
%TD*%
%TA.AperFunction,Conductor*%
%TO.N,GND*%
G36*
X41138777Y-55995685D02*
G01*
X41184532Y-56048489D01*
X41194476Y-56117647D01*
X41165451Y-56181203D01*
X41153511Y-56191970D01*
X41153310Y-56194257D01*
X41824053Y-56865000D01*
X41801340Y-56865000D01*
X41704439Y-56890964D01*
X41617560Y-56941124D01*
X41546624Y-57012060D01*
X41496464Y-57098939D01*
X41470500Y-57195840D01*
X41470500Y-57218553D01*
X40799758Y-56547811D01*
X40754401Y-56612590D01*
X40661079Y-56812720D01*
X40661075Y-56812729D01*
X40603926Y-57026013D01*
X40603924Y-57026023D01*
X40584679Y-57245999D01*
X40584679Y-57246000D01*
X40603924Y-57465976D01*
X40603926Y-57465986D01*
X40661075Y-57679270D01*
X40661080Y-57679284D01*
X40754398Y-57879405D01*
X40754401Y-57879411D01*
X40799758Y-57944187D01*
X40799759Y-57944188D01*
X41470500Y-57273447D01*
X41470500Y-57296160D01*
X41496464Y-57393061D01*
X41546624Y-57479940D01*
X41617560Y-57550876D01*
X41704439Y-57601036D01*
X41801340Y-57627000D01*
X41824053Y-57627000D01*
X41153310Y-58297740D01*
X41153875Y-58304202D01*
X41186488Y-58345002D01*
X41193682Y-58414500D01*
X41162159Y-58476855D01*
X41101930Y-58512269D01*
X41071740Y-58516000D01*
X40581500Y-58516000D01*
X40581500Y-55976000D01*
X41071738Y-55976000D01*
X41138777Y-55995685D01*
G37*
%TD.AperFunction*%
%TA.AperFunction,Conductor*%
G36*
X42903241Y-57944188D02*
G01*
X42909703Y-57943622D01*
X42950502Y-57911011D01*
X43020000Y-57903817D01*
X43082355Y-57935340D01*
X43117769Y-57995569D01*
X43121500Y-58025759D01*
X43121500Y-58392000D01*
X43101815Y-58459039D01*
X43049011Y-58504794D01*
X42997500Y-58516000D01*
X42631260Y-58516000D01*
X42564221Y-58496315D01*
X42518466Y-58443511D01*
X42508522Y-58374353D01*
X42537547Y-58310797D01*
X42549487Y-58300028D01*
X42549688Y-58297741D01*
X41878948Y-57627000D01*
X41901660Y-57627000D01*
X41998561Y-57601036D01*
X42085440Y-57550876D01*
X42156376Y-57479940D01*
X42206536Y-57393061D01*
X42232500Y-57296160D01*
X42232500Y-57273447D01*
X42903241Y-57944188D01*
G37*
%TD.AperFunction*%
%TA.AperFunction,Conductor*%
G36*
X42829155Y-55992612D02*
G01*
X42889716Y-56027577D01*
X43029595Y-56065057D01*
X43089254Y-56101421D01*
X43119783Y-56164268D01*
X43121500Y-56184831D01*
X43121500Y-56466239D01*
X43101815Y-56533278D01*
X43049011Y-56579033D01*
X42979853Y-56588977D01*
X42916297Y-56559952D01*
X42905528Y-56548011D01*
X42903240Y-56547810D01*
X42232500Y-57218551D01*
X42232500Y-57195840D01*
X42206536Y-57098939D01*
X42156376Y-57012060D01*
X42085440Y-56941124D01*
X41998561Y-56890964D01*
X41901660Y-56865000D01*
X41878948Y-56865000D01*
X42549688Y-56194259D01*
X42549122Y-56187793D01*
X42516513Y-56146998D01*
X42509319Y-56077500D01*
X42540842Y-56015145D01*
X42601071Y-55979731D01*
X42631261Y-55976000D01*
X42767157Y-55976000D01*
X42829155Y-55992612D01*
G37*
%TD.AperFunction*%
%TD*%
%TA.AperFunction,Conductor*%
%TO.N,GND*%
G36*
X34857411Y-22722185D02*
G01*
X34903166Y-22774989D01*
X34913110Y-22844147D01*
X34884085Y-22907703D01*
X34878053Y-22914181D01*
X34866569Y-22925664D01*
X34866559Y-22925676D01*
X34738431Y-23110619D01*
X34738428Y-23110625D01*
X34645377Y-23315480D01*
X34590400Y-23533667D01*
X34580000Y-23665803D01*
X34580000Y-24230000D01*
X35396988Y-24230000D01*
X35364075Y-24287007D01*
X35330000Y-24414174D01*
X35330000Y-24545826D01*
X35364075Y-24672993D01*
X35396988Y-24730000D01*
X34580001Y-24730000D01*
X34580001Y-25294197D01*
X34590400Y-25426332D01*
X34645377Y-25644519D01*
X34738428Y-25849374D01*
X34738431Y-25849380D01*
X34866559Y-26034323D01*
X34866569Y-26034335D01*
X35025664Y-26193430D01*
X35025676Y-26193440D01*
X35210619Y-26321568D01*
X35210625Y-26321571D01*
X35415480Y-26414622D01*
X35633667Y-26469599D01*
X35765810Y-26479999D01*
X36579999Y-26479999D01*
X36580000Y-26479998D01*
X36580000Y-24980000D01*
X37080000Y-24980000D01*
X37080000Y-26479999D01*
X37894182Y-26479999D01*
X37894197Y-26479998D01*
X38026332Y-26469599D01*
X38244519Y-26414622D01*
X38449374Y-26321571D01*
X38449380Y-26321568D01*
X38634323Y-26193440D01*
X38634335Y-26193430D01*
X38793430Y-26034335D01*
X38793440Y-26034323D01*
X38921568Y-25849380D01*
X38921571Y-25849374D01*
X39014622Y-25644519D01*
X39069599Y-25426332D01*
X39079999Y-25294196D01*
X39080000Y-25294184D01*
X39080000Y-24730000D01*
X38263012Y-24730000D01*
X38295925Y-24672993D01*
X38330000Y-24545826D01*
X38330000Y-24414174D01*
X38295925Y-24287007D01*
X38263012Y-24230000D01*
X39079999Y-24230000D01*
X39079999Y-23665817D01*
X39079998Y-23665802D01*
X39069599Y-23533667D01*
X39014622Y-23315480D01*
X38921571Y-23110625D01*
X38921568Y-23110619D01*
X38793440Y-22925676D01*
X38793430Y-22925664D01*
X38781947Y-22914181D01*
X38748462Y-22852858D01*
X38753446Y-22783166D01*
X38795318Y-22727233D01*
X38860782Y-22702816D01*
X38869628Y-22702500D01*
X45291000Y-22702500D01*
X45358039Y-22722185D01*
X45403794Y-22774989D01*
X45415000Y-22826500D01*
X45415000Y-38046336D01*
X45395315Y-38113375D01*
X45342511Y-38159130D01*
X45277747Y-38169625D01*
X45239373Y-38165500D01*
X45239365Y-38165500D01*
X43543629Y-38165500D01*
X43543623Y-38165501D01*
X43484016Y-38171908D01*
X43349171Y-38222202D01*
X43349164Y-38222206D01*
X43233955Y-38308452D01*
X43233952Y-38308455D01*
X43147706Y-38423664D01*
X43147702Y-38423671D01*
X43097408Y-38558517D01*
X43091001Y-38618116D01*
X43091000Y-38618135D01*
X43091000Y-40313870D01*
X43091001Y-40313876D01*
X43097408Y-40373483D01*
X43147702Y-40508328D01*
X43147706Y-40508335D01*
X43233952Y-40623544D01*
X43233955Y-40623547D01*
X43349164Y-40709793D01*
X43349171Y-40709797D01*
X43394118Y-40726561D01*
X43484017Y-40760091D01*
X43519096Y-40763862D01*
X43583644Y-40790599D01*
X43623493Y-40847991D01*
X43625988Y-40917816D01*
X43590336Y-40977905D01*
X43576964Y-40988725D01*
X43552358Y-41005954D01*
X43391454Y-41166858D01*
X43260932Y-41353265D01*
X43260931Y-41353267D01*
X43164761Y-41559502D01*
X43164758Y-41559511D01*
X43105866Y-41779302D01*
X43105864Y-41779313D01*
X43086032Y-42005998D01*
X43086032Y-42006001D01*
X43105864Y-42232686D01*
X43105866Y-42232697D01*
X43164758Y-42452488D01*
X43164761Y-42452497D01*
X43260931Y-42658732D01*
X43260932Y-42658734D01*
X43391454Y-42845141D01*
X43552358Y-43006045D01*
X43552361Y-43006047D01*
X43738766Y-43136568D01*
X43796775Y-43163618D01*
X43849214Y-43209791D01*
X43868366Y-43276984D01*
X43848150Y-43343865D01*
X43796775Y-43388382D01*
X43738767Y-43415431D01*
X43738765Y-43415432D01*
X43552358Y-43545954D01*
X43391454Y-43706858D01*
X43260932Y-43893265D01*
X43260931Y-43893267D01*
X43164761Y-44099502D01*
X43164758Y-44099511D01*
X43105866Y-44319302D01*
X43105864Y-44319313D01*
X43086032Y-44545998D01*
X43086032Y-44546001D01*
X43105864Y-44772686D01*
X43105866Y-44772697D01*
X43164758Y-44992488D01*
X43164761Y-44992497D01*
X43260931Y-45198732D01*
X43260932Y-45198734D01*
X43391454Y-45385141D01*
X43552358Y-45546045D01*
X43599193Y-45578839D01*
X43738766Y-45676568D01*
X43797365Y-45703893D01*
X43849805Y-45750065D01*
X43868957Y-45817258D01*
X43848742Y-45884139D01*
X43797367Y-45928657D01*
X43739015Y-45955867D01*
X43552679Y-46086342D01*
X43391842Y-46247179D01*
X43261365Y-46433517D01*
X43165234Y-46639673D01*
X43165231Y-46639680D01*
X43137580Y-46742876D01*
X43101215Y-46802536D01*
X43038368Y-46833065D01*
X42968992Y-46824770D01*
X42915114Y-46780285D01*
X42906805Y-46766054D01*
X42876561Y-46705316D01*
X42876556Y-46705308D01*
X42742479Y-46527761D01*
X42578062Y-46377876D01*
X42578060Y-46377874D01*
X42384027Y-46257735D01*
X42385180Y-46255872D01*
X42341001Y-46214906D01*
X42323585Y-46147241D01*
X42345516Y-46080903D01*
X42376388Y-46049845D01*
X42412120Y-46024826D01*
X42568326Y-45868620D01*
X42695034Y-45687662D01*
X42788394Y-45487450D01*
X42845570Y-45274068D01*
X42864823Y-45054000D01*
X42845570Y-44833932D01*
X42788394Y-44620550D01*
X42695034Y-44420339D01*
X42594475Y-44276725D01*
X42568327Y-44239381D01*
X42568323Y-44239377D01*
X42412120Y-44083174D01*
X42412116Y-44083171D01*
X42412115Y-44083170D01*
X42231166Y-43956468D01*
X42231162Y-43956466D01*
X42231160Y-43956465D01*
X42030950Y-43863106D01*
X42030947Y-43863105D01*
X42030945Y-43863104D01*
X41817570Y-43805930D01*
X41817562Y-43805929D01*
X41597502Y-43786677D01*
X41597498Y-43786677D01*
X41377437Y-43805929D01*
X41377429Y-43805930D01*
X41164054Y-43863104D01*
X41164048Y-43863107D01*
X40963840Y-43956465D01*
X40963838Y-43956466D01*
X40782877Y-44083175D01*
X40626675Y-44239377D01*
X40499967Y-44420337D01*
X40439605Y-44549782D01*
X40393432Y-44602221D01*
X40326238Y-44621372D01*
X40259357Y-44601156D01*
X40214841Y-44549780D01*
X40154598Y-44420589D01*
X40154597Y-44420587D01*
X40109241Y-44355811D01*
X40109240Y-44355810D01*
X39438500Y-45026551D01*
X39438500Y-45003840D01*
X39412536Y-44906939D01*
X39362376Y-44820060D01*
X39291440Y-44749124D01*
X39204561Y-44698964D01*
X39107660Y-44673000D01*
X39084948Y-44673000D01*
X39755688Y-44002259D01*
X39755687Y-44002258D01*
X39690911Y-43956901D01*
X39690905Y-43956898D01*
X39490784Y-43863580D01*
X39490770Y-43863575D01*
X39277486Y-43806426D01*
X39277476Y-43806424D01*
X39057501Y-43787179D01*
X39057499Y-43787179D01*
X38837523Y-43806424D01*
X38837513Y-43806426D01*
X38624229Y-43863575D01*
X38624220Y-43863579D01*
X38424090Y-43956901D01*
X38359311Y-44002258D01*
X39030053Y-44673000D01*
X39007340Y-44673000D01*
X38910439Y-44698964D01*
X38823560Y-44749124D01*
X38752624Y-44820060D01*
X38702464Y-44906939D01*
X38676500Y-45003840D01*
X38676500Y-45026553D01*
X38005758Y-44355811D01*
X37960401Y-44420590D01*
X37867079Y-44620720D01*
X37867075Y-44620729D01*
X37809926Y-44834013D01*
X37809924Y-44834023D01*
X37790679Y-45053999D01*
X37790679Y-45054000D01*
X37809924Y-45273976D01*
X37809926Y-45273986D01*
X37867075Y-45487270D01*
X37867080Y-45487284D01*
X37960398Y-45687405D01*
X37960401Y-45687411D01*
X38005758Y-45752187D01*
X38005759Y-45752188D01*
X38676500Y-45081447D01*
X38676500Y-45104160D01*
X38702464Y-45201061D01*
X38752624Y-45287940D01*
X38823560Y-45358876D01*
X38910439Y-45409036D01*
X39007340Y-45435000D01*
X39030053Y-45435000D01*
X38359310Y-46105740D01*
X38424090Y-46151099D01*
X38424092Y-46151100D01*
X38624215Y-46244419D01*
X38624229Y-46244424D01*
X38837513Y-46301573D01*
X38837523Y-46301575D01*
X39057499Y-46320821D01*
X39057501Y-46320821D01*
X39277476Y-46301575D01*
X39277486Y-46301573D01*
X39490770Y-46244424D01*
X39490784Y-46244419D01*
X39690907Y-46151100D01*
X39690917Y-46151094D01*
X39755688Y-46105741D01*
X39084948Y-45435000D01*
X39107660Y-45435000D01*
X39204561Y-45409036D01*
X39291440Y-45358876D01*
X39362376Y-45287940D01*
X39412536Y-45201061D01*
X39438500Y-45104160D01*
X39438500Y-45081447D01*
X40109241Y-45752188D01*
X40154594Y-45687417D01*
X40154595Y-45687416D01*
X40214840Y-45558219D01*
X40261012Y-45505780D01*
X40328206Y-45486627D01*
X40395087Y-45506842D01*
X40439605Y-45558218D01*
X40499966Y-45687662D01*
X40499968Y-45687666D01*
X40626670Y-45868615D01*
X40626675Y-45868621D01*
X40782878Y-46024824D01*
X40782884Y-46024829D01*
X40963833Y-46151531D01*
X40963835Y-46151532D01*
X40963838Y-46151534D01*
X40996999Y-46166997D01*
X41066022Y-46199183D01*
X41118462Y-46245355D01*
X41137614Y-46312548D01*
X41117398Y-46379430D01*
X41097156Y-46403202D01*
X40960520Y-46527761D01*
X40826443Y-46705308D01*
X40826438Y-46705316D01*
X40727275Y-46904461D01*
X40727269Y-46904476D01*
X40666385Y-47118462D01*
X40666384Y-47118464D01*
X40645857Y-47339999D01*
X40645857Y-47340000D01*
X40666384Y-47561535D01*
X40666385Y-47561537D01*
X40727269Y-47775523D01*
X40727275Y-47775538D01*
X40826438Y-47974683D01*
X40826443Y-47974691D01*
X40960520Y-48152238D01*
X41124937Y-48302123D01*
X41124939Y-48302125D01*
X41314095Y-48419245D01*
X41314096Y-48419245D01*
X41314099Y-48419247D01*
X41521560Y-48499618D01*
X41740257Y-48540500D01*
X41740259Y-48540500D01*
X41962741Y-48540500D01*
X41962743Y-48540500D01*
X42181440Y-48499618D01*
X42388901Y-48419247D01*
X42578062Y-48302124D01*
X42742481Y-48152236D01*
X42876558Y-47974689D01*
X42975729Y-47775528D01*
X42999470Y-47692085D01*
X43036749Y-47632993D01*
X43100058Y-47603435D01*
X43169298Y-47612797D01*
X43222485Y-47658106D01*
X43231118Y-47673616D01*
X43261364Y-47738479D01*
X43261365Y-47738481D01*
X43391842Y-47924820D01*
X43552679Y-48085657D01*
X43739018Y-48216134D01*
X43739020Y-48216135D01*
X43797365Y-48243342D01*
X43849805Y-48289514D01*
X43868957Y-48356707D01*
X43848742Y-48423589D01*
X43797367Y-48468105D01*
X43738768Y-48495431D01*
X43738764Y-48495433D01*
X43552358Y-48625954D01*
X43391454Y-48786858D01*
X43260932Y-48973265D01*
X43260931Y-48973267D01*
X43164761Y-49179502D01*
X43164758Y-49179511D01*
X43105866Y-49399302D01*
X43105864Y-49399313D01*
X43086032Y-49625998D01*
X43086032Y-49626001D01*
X43105864Y-49852686D01*
X43105866Y-49852697D01*
X43131652Y-49948931D01*
X43129989Y-50018781D01*
X43099558Y-50068705D01*
X42752786Y-50415478D01*
X42640981Y-50527282D01*
X42592810Y-50610717D01*
X42561924Y-50664212D01*
X42561923Y-50664213D01*
X42544025Y-50731011D01*
X42520999Y-50816943D01*
X42520999Y-50816945D01*
X42520999Y-50985046D01*
X42521000Y-50985059D01*
X42521000Y-52267153D01*
X42501315Y-52334192D01*
X42448511Y-52379947D01*
X42379353Y-52389891D01*
X42356737Y-52384434D01*
X42191484Y-52327702D01*
X42003904Y-52296401D01*
X41962549Y-52289500D01*
X41730451Y-52289500D01*
X41689096Y-52296401D01*
X41501515Y-52327702D01*
X41282004Y-52403061D01*
X41281994Y-52403065D01*
X41278322Y-52405053D01*
X41219301Y-52420000D01*
X40587847Y-52420000D01*
X40520808Y-52400315D01*
X40513535Y-52395266D01*
X40448589Y-52346647D01*
X40448586Y-52346645D01*
X40313879Y-52296403D01*
X40313872Y-52296401D01*
X40254344Y-52290000D01*
X39556500Y-52290000D01*
X39556500Y-53314722D01*
X39480194Y-53270667D01*
X39365744Y-53240000D01*
X39247256Y-53240000D01*
X39132806Y-53270667D01*
X39056500Y-53314722D01*
X39056500Y-52290000D01*
X38358655Y-52290000D01*
X38299127Y-52296401D01*
X38299120Y-52296403D01*
X38164413Y-52346645D01*
X38164406Y-52346649D01*
X38049312Y-52432809D01*
X38049309Y-52432812D01*
X37963149Y-52547906D01*
X37963145Y-52547913D01*
X37912903Y-52682620D01*
X37912901Y-52682627D01*
X37906500Y-52742155D01*
X37906500Y-53440000D01*
X38931222Y-53440000D01*
X38887167Y-53516306D01*
X38856500Y-53630756D01*
X38856500Y-53749244D01*
X38887167Y-53863694D01*
X38931222Y-53940000D01*
X37906500Y-53940000D01*
X37906500Y-54325163D01*
X37886815Y-54392202D01*
X37834011Y-54437957D01*
X37823455Y-54442204D01*
X37691980Y-54488209D01*
X37539236Y-54584185D01*
X37536403Y-54586445D01*
X37534224Y-54587334D01*
X37533342Y-54587889D01*
X37533244Y-54587734D01*
X37471717Y-54612855D01*
X37459088Y-54613500D01*
X36083912Y-54613500D01*
X36016873Y-54593815D01*
X36006597Y-54586445D01*
X36003763Y-54584185D01*
X36003762Y-54584184D01*
X35996037Y-54579330D01*
X35982623Y-54570901D01*
X35936332Y-54518566D01*
X35925685Y-54449512D01*
X35944786Y-54398089D01*
X35970424Y-54358849D01*
X36063657Y-54146300D01*
X36120634Y-53921305D01*
X36122370Y-53900355D01*
X36139800Y-53690006D01*
X36139800Y-53689993D01*
X36120635Y-53458702D01*
X36120633Y-53458691D01*
X36063657Y-53233699D01*
X35970424Y-53021151D01*
X35843483Y-52826852D01*
X35843480Y-52826849D01*
X35843479Y-52826847D01*
X35686284Y-52656087D01*
X35686279Y-52656083D01*
X35686277Y-52656081D01*
X35503134Y-52513535D01*
X35503128Y-52513531D01*
X35299004Y-52403064D01*
X35298995Y-52403061D01*
X35079484Y-52327702D01*
X34891904Y-52296401D01*
X34850549Y-52289500D01*
X34618451Y-52289500D01*
X34577096Y-52296401D01*
X34389515Y-52327702D01*
X34170004Y-52403061D01*
X34169995Y-52403064D01*
X33965871Y-52513531D01*
X33965865Y-52513535D01*
X33782722Y-52656081D01*
X33782715Y-52656087D01*
X33773984Y-52665572D01*
X33714095Y-52701561D01*
X33644257Y-52699458D01*
X33586643Y-52659932D01*
X33566575Y-52624918D01*
X33537855Y-52547915D01*
X33537850Y-52547906D01*
X33451690Y-52432812D01*
X33451687Y-52432809D01*
X33336593Y-52346649D01*
X33336586Y-52346645D01*
X33201879Y-52296403D01*
X33201872Y-52296401D01*
X33142344Y-52290000D01*
X32444500Y-52290000D01*
X32444500Y-53314722D01*
X32368194Y-53270667D01*
X32253744Y-53240000D01*
X32135256Y-53240000D01*
X32020806Y-53270667D01*
X31944500Y-53314722D01*
X31944500Y-52290000D01*
X31246655Y-52290000D01*
X31187127Y-52296401D01*
X31187120Y-52296403D01*
X31052413Y-52346645D01*
X31052406Y-52346649D01*
X30937312Y-52432809D01*
X30937309Y-52432812D01*
X30851149Y-52547906D01*
X30851145Y-52547913D01*
X30800903Y-52682620D01*
X30800901Y-52682627D01*
X30794500Y-52742155D01*
X30794500Y-53440000D01*
X31819222Y-53440000D01*
X31775167Y-53516306D01*
X31744500Y-53630756D01*
X31744500Y-53749244D01*
X31775167Y-53863694D01*
X31819222Y-53940000D01*
X30794500Y-53940000D01*
X30794500Y-54637844D01*
X30800901Y-54697372D01*
X30800903Y-54697379D01*
X30851145Y-54832086D01*
X30851149Y-54832093D01*
X30937309Y-54947187D01*
X30937312Y-54947190D01*
X31052406Y-55033350D01*
X31052413Y-55033354D01*
X31187120Y-55083596D01*
X31187127Y-55083598D01*
X31246655Y-55089999D01*
X31246672Y-55090000D01*
X31944500Y-55090000D01*
X31944500Y-54065277D01*
X32020806Y-54109333D01*
X32135256Y-54140000D01*
X32253744Y-54140000D01*
X32368194Y-54109333D01*
X32444500Y-54065277D01*
X32444500Y-55090000D01*
X33142328Y-55090000D01*
X33142344Y-55089999D01*
X33201872Y-55083598D01*
X33201879Y-55083596D01*
X33336586Y-55033354D01*
X33336593Y-55033350D01*
X33451687Y-54947190D01*
X33451690Y-54947187D01*
X33537850Y-54832093D01*
X33537855Y-54832084D01*
X33566575Y-54755081D01*
X33608445Y-54699147D01*
X33673909Y-54674729D01*
X33742182Y-54689580D01*
X33773984Y-54714428D01*
X33782716Y-54723913D01*
X33782719Y-54723915D01*
X33782722Y-54723918D01*
X33965865Y-54866464D01*
X33965871Y-54866468D01*
X33965874Y-54866470D01*
X34169997Y-54976936D01*
X34389519Y-55052298D01*
X34592345Y-55086143D01*
X34655230Y-55116593D01*
X34691669Y-55176208D01*
X34695935Y-55208452D01*
X34695935Y-55214000D01*
X34716130Y-55393249D01*
X34716131Y-55393254D01*
X34775711Y-55563523D01*
X34865265Y-55706047D01*
X34871684Y-55716262D01*
X34999238Y-55843816D01*
X35151978Y-55939789D01*
X35176930Y-55948520D01*
X35322245Y-55999368D01*
X35322250Y-55999369D01*
X35501496Y-56019565D01*
X35501500Y-56019565D01*
X35501504Y-56019565D01*
X35680749Y-55999369D01*
X35680752Y-55999368D01*
X35680755Y-55999368D01*
X35851022Y-55939789D01*
X36003762Y-55843816D01*
X36003767Y-55843810D01*
X36006597Y-55841555D01*
X36008775Y-55840665D01*
X36009658Y-55840111D01*
X36009755Y-55840265D01*
X36071283Y-55815145D01*
X36083912Y-55814500D01*
X37459088Y-55814500D01*
X37526127Y-55834185D01*
X37536403Y-55841555D01*
X37539236Y-55843814D01*
X37539238Y-55843816D01*
X37691978Y-55939789D01*
X37716930Y-55948520D01*
X37862245Y-55999368D01*
X37862250Y-55999369D01*
X38041496Y-56019565D01*
X38041500Y-56019565D01*
X38041504Y-56019565D01*
X38220749Y-55999369D01*
X38220752Y-55999368D01*
X38220755Y-55999368D01*
X38391022Y-55939789D01*
X38543762Y-55843816D01*
X38671316Y-55716262D01*
X38767289Y-55563522D01*
X38826868Y-55393255D01*
X38847065Y-55214000D01*
X38847845Y-55207081D01*
X38849056Y-55207217D01*
X38866750Y-55146961D01*
X38919554Y-55101206D01*
X38971065Y-55090000D01*
X39056500Y-55090000D01*
X39056500Y-54065277D01*
X39132806Y-54109333D01*
X39247256Y-54140000D01*
X39365744Y-54140000D01*
X39480194Y-54109333D01*
X39556500Y-54065277D01*
X39556500Y-55090000D01*
X40254328Y-55090000D01*
X40254344Y-55089999D01*
X40313872Y-55083598D01*
X40313879Y-55083596D01*
X40414167Y-55046192D01*
X40483859Y-55041208D01*
X40545182Y-55074693D01*
X40578666Y-55136016D01*
X40581500Y-55162374D01*
X40581500Y-58516000D01*
X40602537Y-59567941D01*
X40602090Y-59581226D01*
X40584177Y-59785997D01*
X40584177Y-59786002D01*
X40603430Y-60006066D01*
X40603431Y-60006073D01*
X40608037Y-60023263D01*
X40612237Y-60052876D01*
X40649482Y-61915162D01*
X40645282Y-61949734D01*
X40603430Y-62105929D01*
X40603430Y-62105932D01*
X40584177Y-62326000D01*
X40603430Y-62546068D01*
X40660606Y-62759450D01*
X40660608Y-62759454D01*
X40662008Y-62764679D01*
X40661166Y-62764904D01*
X40667115Y-62796787D01*
X40697641Y-64323103D01*
X40686049Y-64377984D01*
X40660605Y-64432550D01*
X40603430Y-64645929D01*
X40603429Y-64645937D01*
X40584177Y-64865997D01*
X40584177Y-64866002D01*
X40603429Y-65086062D01*
X40603430Y-65086070D01*
X40660604Y-65299445D01*
X40660608Y-65299456D01*
X40708633Y-65402446D01*
X40720226Y-65452370D01*
X40746352Y-66758642D01*
X40734759Y-66813526D01*
X40660608Y-66972543D01*
X40660604Y-66972554D01*
X40603430Y-67185929D01*
X40603429Y-67185937D01*
X40584177Y-67405997D01*
X40584177Y-67406002D01*
X40603429Y-67626062D01*
X40603430Y-67626070D01*
X40660604Y-67839445D01*
X40660605Y-67839447D01*
X40660606Y-67839450D01*
X40753966Y-68039662D01*
X40753968Y-68039666D01*
X40756672Y-68044350D01*
X40773256Y-68103864D01*
X40795409Y-69211538D01*
X40777069Y-69278957D01*
X40773012Y-69285136D01*
X40753966Y-69312337D01*
X40660607Y-69512548D01*
X40660604Y-69512554D01*
X40603430Y-69725929D01*
X40603429Y-69725937D01*
X40584177Y-69945997D01*
X40584177Y-69946002D01*
X40603429Y-70166062D01*
X40603430Y-70166070D01*
X40660604Y-70379445D01*
X40660605Y-70379447D01*
X40660606Y-70379450D01*
X40743498Y-70557214D01*
X40753965Y-70579660D01*
X40753966Y-70579662D01*
X40803150Y-70649904D01*
X40825477Y-70716110D01*
X40825550Y-70718547D01*
X40835499Y-71215999D01*
X40835500Y-71216000D01*
X41071738Y-71216000D01*
X41138777Y-71235685D01*
X41184532Y-71288489D01*
X41194476Y-71357647D01*
X41165451Y-71421203D01*
X41153511Y-71431970D01*
X41153310Y-71434257D01*
X41824053Y-72105000D01*
X41801340Y-72105000D01*
X41704439Y-72130964D01*
X41617560Y-72181124D01*
X41546624Y-72252060D01*
X41496464Y-72338939D01*
X41470500Y-72435840D01*
X41470500Y-72458553D01*
X40799758Y-71787811D01*
X40754401Y-71852590D01*
X40661079Y-72052720D01*
X40661075Y-72052729D01*
X40603926Y-72266013D01*
X40603924Y-72266023D01*
X40584679Y-72485999D01*
X40584679Y-72486000D01*
X40603924Y-72705976D01*
X40603926Y-72705986D01*
X40661075Y-72919270D01*
X40661080Y-72919284D01*
X40754398Y-73119405D01*
X40754401Y-73119411D01*
X40799758Y-73184187D01*
X40799759Y-73184188D01*
X41470500Y-72513447D01*
X41470500Y-72536160D01*
X41496464Y-72633061D01*
X41546624Y-72719940D01*
X41617560Y-72790876D01*
X41704439Y-72841036D01*
X41801340Y-72867000D01*
X41824051Y-72867000D01*
X41153310Y-73537740D01*
X41218089Y-73583098D01*
X41347873Y-73643618D01*
X41400312Y-73689790D01*
X41419464Y-73756984D01*
X41399248Y-73823865D01*
X41347873Y-73868382D01*
X41218090Y-73928901D01*
X41153311Y-73974258D01*
X41824053Y-74645000D01*
X41801340Y-74645000D01*
X41704439Y-74670964D01*
X41617560Y-74721124D01*
X41546624Y-74792060D01*
X41496464Y-74878939D01*
X41470500Y-74975840D01*
X41470500Y-74998553D01*
X40799758Y-74327811D01*
X40754401Y-74392590D01*
X40661079Y-74592720D01*
X40661075Y-74592729D01*
X40603926Y-74806013D01*
X40603924Y-74806023D01*
X40584679Y-75025999D01*
X40584679Y-75026000D01*
X40603924Y-75245976D01*
X40603926Y-75245986D01*
X40661075Y-75459270D01*
X40661080Y-75459284D01*
X40754398Y-75659405D01*
X40754401Y-75659411D01*
X40799758Y-75724187D01*
X40799759Y-75724188D01*
X41470500Y-75053447D01*
X41470500Y-75076160D01*
X41496464Y-75173061D01*
X41546624Y-75259940D01*
X41617560Y-75330876D01*
X41704439Y-75381036D01*
X41801340Y-75407000D01*
X41824051Y-75407000D01*
X41153310Y-76077740D01*
X41218090Y-76123099D01*
X41218092Y-76123100D01*
X41418215Y-76216419D01*
X41418229Y-76216424D01*
X41631513Y-76273573D01*
X41631524Y-76273575D01*
X41778284Y-76286415D01*
X41843353Y-76311867D01*
X41884332Y-76368458D01*
X41888210Y-76438220D01*
X41885114Y-76449153D01*
X41879762Y-76465210D01*
X41839889Y-76522585D01*
X41775327Y-76549295D01*
X41762125Y-76550000D01*
X40327500Y-76550000D01*
X34231500Y-76550000D01*
X33339500Y-76550000D01*
X33272461Y-76530315D01*
X33226706Y-76477511D01*
X33215500Y-76426000D01*
X33215500Y-73502001D01*
X33191595Y-71852590D01*
X32961500Y-55976000D01*
X30545500Y-55976000D01*
X30478461Y-55956315D01*
X30432706Y-55903511D01*
X30421500Y-55852000D01*
X30421500Y-55007367D01*
X30425724Y-54975276D01*
X30437135Y-54932692D01*
X30455401Y-54723913D01*
X30456968Y-54706001D01*
X30456968Y-54705998D01*
X30447153Y-54593815D01*
X30437135Y-54479308D01*
X30425725Y-54436725D01*
X30421500Y-54404632D01*
X30421500Y-52467367D01*
X30425724Y-52435276D01*
X30437135Y-52392692D01*
X30456968Y-52166000D01*
X30437135Y-51939308D01*
X30425725Y-51896725D01*
X30421500Y-51864632D01*
X30421500Y-51796596D01*
X30441185Y-51729557D01*
X30457819Y-51708915D01*
X30839873Y-51326861D01*
X31270737Y-50895996D01*
X33933935Y-50895996D01*
X33933935Y-50896003D01*
X33954130Y-51075249D01*
X33954131Y-51075254D01*
X34013711Y-51245523D01*
X34066320Y-51329249D01*
X34109684Y-51398262D01*
X34237238Y-51525816D01*
X34389978Y-51621789D01*
X34560245Y-51681368D01*
X34647169Y-51691161D01*
X34711580Y-51718226D01*
X34720965Y-51726700D01*
X34762639Y-51768374D01*
X34762649Y-51768385D01*
X34766979Y-51772715D01*
X34766980Y-51772716D01*
X34878784Y-51884520D01*
X34878786Y-51884521D01*
X34878790Y-51884524D01*
X35001839Y-51955565D01*
X35015716Y-51963577D01*
X35127519Y-51993534D01*
X35168442Y-52004500D01*
X35168443Y-52004500D01*
X38462831Y-52004500D01*
X38462847Y-52004501D01*
X38470443Y-52004501D01*
X38628554Y-52004501D01*
X38628557Y-52004501D01*
X38781285Y-51963577D01*
X38781294Y-51963571D01*
X38783368Y-51962713D01*
X38816947Y-51954049D01*
X38901134Y-51944564D01*
X38982750Y-51935369D01*
X38982753Y-51935368D01*
X38982755Y-51935368D01*
X39153022Y-51875789D01*
X39305762Y-51779816D01*
X39433316Y-51652262D01*
X39529289Y-51499522D01*
X39588868Y-51329255D01*
X39589138Y-51326861D01*
X39609065Y-51150003D01*
X39609065Y-51149996D01*
X39588869Y-50970750D01*
X39588868Y-50970745D01*
X39577851Y-50939261D01*
X39529289Y-50800478D01*
X39501698Y-50756568D01*
X39485640Y-50731011D01*
X39433316Y-50647738D01*
X39305762Y-50520184D01*
X39153023Y-50424211D01*
X38982754Y-50364631D01*
X38982749Y-50364630D01*
X38803504Y-50344435D01*
X38803496Y-50344435D01*
X38624250Y-50364630D01*
X38624245Y-50364631D01*
X38453976Y-50424211D01*
X38301237Y-50520184D01*
X38173684Y-50647737D01*
X38137550Y-50705245D01*
X38127994Y-50720454D01*
X38112274Y-50745472D01*
X38059939Y-50791763D01*
X38007280Y-50803500D01*
X37581887Y-50803500D01*
X37514848Y-50783815D01*
X37469093Y-50731011D01*
X37459149Y-50661853D01*
X37488174Y-50598297D01*
X37498349Y-50587863D01*
X37662479Y-50438238D01*
X37718065Y-50364631D01*
X37796558Y-50260689D01*
X37895729Y-50061528D01*
X37956615Y-49847536D01*
X37977143Y-49626000D01*
X37956615Y-49404464D01*
X37895729Y-49190472D01*
X37895724Y-49190461D01*
X37796561Y-48991316D01*
X37796556Y-48991308D01*
X37662479Y-48813761D01*
X37498062Y-48663876D01*
X37498060Y-48663874D01*
X37376207Y-48588427D01*
X37329571Y-48536400D01*
X37318467Y-48467418D01*
X37346420Y-48403384D01*
X37376207Y-48377573D01*
X37498062Y-48302124D01*
X37662481Y-48152236D01*
X37796558Y-47974689D01*
X37895729Y-47775528D01*
X37956615Y-47561536D01*
X37977143Y-47340000D01*
X37956615Y-47118464D01*
X37895729Y-46904472D01*
X37895724Y-46904461D01*
X37796561Y-46705316D01*
X37796556Y-46705308D01*
X37662479Y-46527761D01*
X37498062Y-46377876D01*
X37498060Y-46377874D01*
X37308904Y-46260754D01*
X37308898Y-46260752D01*
X37101440Y-46180382D01*
X36882743Y-46139500D01*
X36660257Y-46139500D01*
X36441560Y-46180382D01*
X36310364Y-46231207D01*
X36234101Y-46260752D01*
X36234095Y-46260754D01*
X36044939Y-46377874D01*
X36044937Y-46377876D01*
X35880520Y-46527761D01*
X35746443Y-46705308D01*
X35746438Y-46705316D01*
X35647275Y-46904461D01*
X35647269Y-46904476D01*
X35586385Y-47118462D01*
X35586384Y-47118464D01*
X35565857Y-47339999D01*
X35565857Y-47340000D01*
X35586384Y-47561535D01*
X35586385Y-47561537D01*
X35647269Y-47775523D01*
X35647275Y-47775538D01*
X35746438Y-47974683D01*
X35746443Y-47974691D01*
X35880520Y-48152238D01*
X36044937Y-48302123D01*
X36044939Y-48302125D01*
X36166792Y-48377573D01*
X36213428Y-48429601D01*
X36224532Y-48498582D01*
X36196579Y-48562617D01*
X36166792Y-48588427D01*
X36044939Y-48663874D01*
X36044937Y-48663876D01*
X35880520Y-48813761D01*
X35746443Y-48991308D01*
X35746438Y-48991316D01*
X35647275Y-49190461D01*
X35647269Y-49190476D01*
X35586385Y-49404462D01*
X35586384Y-49404464D01*
X35565857Y-49625999D01*
X35565857Y-49626000D01*
X35586384Y-49847535D01*
X35586385Y-49847537D01*
X35647269Y-50061523D01*
X35647275Y-50061538D01*
X35746438Y-50260683D01*
X35746443Y-50260691D01*
X35880520Y-50438238D01*
X36044651Y-50587863D01*
X36080933Y-50647574D01*
X36079172Y-50717422D01*
X36039929Y-50775229D01*
X35975662Y-50802644D01*
X35961113Y-50803500D01*
X35643207Y-50803500D01*
X35576168Y-50783815D01*
X35530413Y-50731011D01*
X35526165Y-50720454D01*
X35524868Y-50716748D01*
X35524868Y-50716745D01*
X35465289Y-50546478D01*
X35369316Y-50393738D01*
X35241762Y-50266184D01*
X35233007Y-50260683D01*
X35089023Y-50170211D01*
X34918754Y-50110631D01*
X34918749Y-50110630D01*
X34739504Y-50090435D01*
X34739496Y-50090435D01*
X34560250Y-50110630D01*
X34560245Y-50110631D01*
X34389976Y-50170211D01*
X34237237Y-50266184D01*
X34109684Y-50393737D01*
X34013711Y-50546476D01*
X33954131Y-50716745D01*
X33954130Y-50716750D01*
X33933935Y-50895996D01*
X31270737Y-50895996D01*
X31331819Y-50834914D01*
X31393140Y-50801431D01*
X31442283Y-50800708D01*
X31580257Y-50826500D01*
X31580259Y-50826500D01*
X31802741Y-50826500D01*
X31802743Y-50826500D01*
X32021440Y-50785618D01*
X32228901Y-50705247D01*
X32418062Y-50588124D01*
X32582481Y-50438236D01*
X32716558Y-50260689D01*
X32815729Y-50061528D01*
X32876615Y-49847536D01*
X32897143Y-49626000D01*
X32876615Y-49404464D01*
X32871230Y-49385538D01*
X32871814Y-49315673D01*
X32902813Y-49263922D01*
X32934020Y-49232716D01*
X33013077Y-49095784D01*
X33054001Y-48943057D01*
X33054001Y-48784942D01*
X33054001Y-48777347D01*
X33054000Y-48777329D01*
X33054000Y-46239304D01*
X33073685Y-46172265D01*
X33106875Y-46137730D01*
X33268120Y-46024826D01*
X33424326Y-45868620D01*
X33551034Y-45687662D01*
X33611394Y-45558218D01*
X33657566Y-45505779D01*
X33724759Y-45486627D01*
X33791641Y-45506843D01*
X33836158Y-45558219D01*
X33896398Y-45687405D01*
X33896401Y-45687411D01*
X33941758Y-45752187D01*
X33941759Y-45752188D01*
X34612500Y-45081447D01*
X34612500Y-45104160D01*
X34638464Y-45201061D01*
X34688624Y-45287940D01*
X34759560Y-45358876D01*
X34846439Y-45409036D01*
X34943340Y-45435000D01*
X34966053Y-45435000D01*
X34295310Y-46105740D01*
X34360090Y-46151099D01*
X34360092Y-46151100D01*
X34560215Y-46244419D01*
X34560229Y-46244424D01*
X34773513Y-46301573D01*
X34773523Y-46301575D01*
X34993499Y-46320821D01*
X34993501Y-46320821D01*
X35213476Y-46301575D01*
X35213486Y-46301573D01*
X35426770Y-46244424D01*
X35426784Y-46244419D01*
X35626907Y-46151100D01*
X35626917Y-46151094D01*
X35691688Y-46105741D01*
X35020948Y-45435000D01*
X35043660Y-45435000D01*
X35140561Y-45409036D01*
X35227440Y-45358876D01*
X35298376Y-45287940D01*
X35348536Y-45201061D01*
X35374500Y-45104160D01*
X35374500Y-45081447D01*
X36045241Y-45752188D01*
X36090594Y-45687417D01*
X36090600Y-45687407D01*
X36183919Y-45487284D01*
X36183924Y-45487270D01*
X36241073Y-45273986D01*
X36241075Y-45273976D01*
X36260321Y-45054000D01*
X36260321Y-45053999D01*
X36241075Y-44834023D01*
X36241073Y-44834013D01*
X36183924Y-44620729D01*
X36183920Y-44620720D01*
X36090596Y-44420586D01*
X36045241Y-44355811D01*
X36045240Y-44355810D01*
X35374500Y-45026551D01*
X35374500Y-45003840D01*
X35348536Y-44906939D01*
X35298376Y-44820060D01*
X35227440Y-44749124D01*
X35140561Y-44698964D01*
X35043660Y-44673000D01*
X35020948Y-44673000D01*
X35691688Y-44002259D01*
X35691687Y-44002258D01*
X35626911Y-43956901D01*
X35626905Y-43956898D01*
X35426784Y-43863580D01*
X35426770Y-43863575D01*
X35213486Y-43806426D01*
X35213476Y-43806424D01*
X34993501Y-43787179D01*
X34993499Y-43787179D01*
X34773523Y-43806424D01*
X34773513Y-43806426D01*
X34560229Y-43863575D01*
X34560220Y-43863579D01*
X34360090Y-43956901D01*
X34295311Y-44002258D01*
X34966053Y-44673000D01*
X34943340Y-44673000D01*
X34846439Y-44698964D01*
X34759560Y-44749124D01*
X34688624Y-44820060D01*
X34638464Y-44906939D01*
X34612500Y-45003840D01*
X34612500Y-45026553D01*
X33941758Y-44355811D01*
X33896401Y-44420590D01*
X33836158Y-44549781D01*
X33789985Y-44602220D01*
X33722792Y-44621372D01*
X33655911Y-44601156D01*
X33611394Y-44549781D01*
X33551151Y-44420590D01*
X33551034Y-44420339D01*
X33450475Y-44276725D01*
X33424327Y-44239381D01*
X33424323Y-44239377D01*
X33268120Y-44083174D01*
X33268116Y-44083171D01*
X33268115Y-44083170D01*
X33087166Y-43956468D01*
X33087162Y-43956466D01*
X33087160Y-43956465D01*
X32886950Y-43863106D01*
X32886947Y-43863105D01*
X32886945Y-43863104D01*
X32673570Y-43805930D01*
X32673562Y-43805929D01*
X32453502Y-43786677D01*
X32453498Y-43786677D01*
X32233437Y-43805929D01*
X32233429Y-43805930D01*
X32020054Y-43863104D01*
X32020048Y-43863107D01*
X31819840Y-43956465D01*
X31819838Y-43956466D01*
X31638877Y-44083175D01*
X31482675Y-44239377D01*
X31355966Y-44420338D01*
X31355965Y-44420340D01*
X31262607Y-44620548D01*
X31262604Y-44620554D01*
X31205430Y-44833929D01*
X31205429Y-44833937D01*
X31186177Y-45053997D01*
X31186177Y-45054002D01*
X31205429Y-45274062D01*
X31205430Y-45274070D01*
X31262604Y-45487445D01*
X31262605Y-45487447D01*
X31262606Y-45487450D01*
X31293444Y-45553582D01*
X31355966Y-45687662D01*
X31355968Y-45687666D01*
X31482670Y-45868615D01*
X31482674Y-45868620D01*
X31638880Y-46024826D01*
X31800123Y-46137729D01*
X31843748Y-46192306D01*
X31853000Y-46239304D01*
X31853000Y-48301500D01*
X31833315Y-48368539D01*
X31780511Y-48414294D01*
X31729000Y-48425500D01*
X31580257Y-48425500D01*
X31361560Y-48466382D01*
X31231308Y-48516842D01*
X31154101Y-48546752D01*
X31154095Y-48546754D01*
X30964939Y-48663874D01*
X30964937Y-48663876D01*
X30800520Y-48813761D01*
X30666443Y-48991308D01*
X30666438Y-48991316D01*
X30656500Y-49011276D01*
X30608997Y-49062513D01*
X30541334Y-49079934D01*
X30474993Y-49058008D01*
X30431039Y-49003697D01*
X30421500Y-48956004D01*
X30421500Y-47387367D01*
X30425724Y-47355276D01*
X30437135Y-47312692D01*
X30456968Y-47086000D01*
X30437135Y-46859308D01*
X30425725Y-46816725D01*
X30421500Y-46784632D01*
X30421500Y-44847367D01*
X30425724Y-44815276D01*
X30437135Y-44772692D01*
X30456968Y-44546000D01*
X30437135Y-44319308D01*
X30425725Y-44276725D01*
X30421500Y-44244632D01*
X30421500Y-43022000D01*
X30265298Y-43022000D01*
X30198259Y-43002315D01*
X30152504Y-42949511D01*
X30142560Y-42880353D01*
X30163723Y-42826876D01*
X30281633Y-42658482D01*
X30377765Y-42452326D01*
X30377769Y-42452317D01*
X30430372Y-42256000D01*
X29584512Y-42256000D01*
X29617425Y-42198993D01*
X29651500Y-42071826D01*
X29651500Y-41940174D01*
X29617425Y-41813007D01*
X29584512Y-41756000D01*
X30430372Y-41756000D01*
X30430372Y-41755999D01*
X30377769Y-41559682D01*
X30377765Y-41559673D01*
X30281633Y-41353516D01*
X30274357Y-41343125D01*
X30252029Y-41276919D01*
X30269038Y-41209152D01*
X30319985Y-41161338D01*
X30375931Y-41148000D01*
X30480000Y-41148000D01*
X30480000Y-38100000D01*
X27686000Y-38100000D01*
X27686000Y-41148000D01*
X27927069Y-41148000D01*
X27994108Y-41167685D01*
X28039863Y-41220489D01*
X28049807Y-41289647D01*
X28028643Y-41343125D01*
X28021366Y-41353516D01*
X27925234Y-41559673D01*
X27925230Y-41559682D01*
X27872627Y-41755999D01*
X27872628Y-41756000D01*
X28718488Y-41756000D01*
X28685575Y-41813007D01*
X28651500Y-41940174D01*
X28651500Y-42071826D01*
X28685575Y-42198993D01*
X28718488Y-42256000D01*
X27872628Y-42256000D01*
X27925230Y-42452317D01*
X27925234Y-42452326D01*
X28021366Y-42658482D01*
X28139277Y-42826876D01*
X28161604Y-42893082D01*
X28144594Y-42960850D01*
X28093646Y-43008663D01*
X28037702Y-43022000D01*
X24950000Y-43022000D01*
X24882961Y-43002315D01*
X24837206Y-42949511D01*
X24826000Y-42898000D01*
X24826000Y-37433997D01*
X31186177Y-37433997D01*
X31186177Y-37434002D01*
X31205429Y-37654062D01*
X31205430Y-37654070D01*
X31262604Y-37867445D01*
X31262605Y-37867447D01*
X31262606Y-37867450D01*
X31295882Y-37938811D01*
X31355966Y-38067662D01*
X31355968Y-38067666D01*
X31482670Y-38248615D01*
X31482675Y-38248621D01*
X31638878Y-38404824D01*
X31638884Y-38404829D01*
X31819833Y-38531531D01*
X31819835Y-38531532D01*
X31819838Y-38531534D01*
X32020050Y-38624894D01*
X32233432Y-38682070D01*
X32390623Y-38695822D01*
X32453498Y-38701323D01*
X32453500Y-38701323D01*
X32453502Y-38701323D01*
X32508517Y-38696509D01*
X32673568Y-38682070D01*
X32886950Y-38624894D01*
X33087162Y-38531534D01*
X33268120Y-38404826D01*
X33424326Y-38248620D01*
X33551034Y-38067662D01*
X33611118Y-37938811D01*
X33657290Y-37886371D01*
X33724483Y-37867219D01*
X33791365Y-37887435D01*
X33835882Y-37938811D01*
X33895964Y-38067658D01*
X33895968Y-38067666D01*
X34022670Y-38248615D01*
X34022675Y-38248621D01*
X34178878Y-38404824D01*
X34178884Y-38404829D01*
X34359833Y-38531531D01*
X34359835Y-38531532D01*
X34359838Y-38531534D01*
X34560050Y-38624894D01*
X34773432Y-38682070D01*
X34930623Y-38695822D01*
X34993498Y-38701323D01*
X34993500Y-38701323D01*
X34993502Y-38701323D01*
X35048517Y-38696509D01*
X35213568Y-38682070D01*
X35426950Y-38624894D01*
X35627162Y-38531534D01*
X35808120Y-38404826D01*
X35964326Y-38248620D01*
X36091034Y-38067662D01*
X36184394Y-37867450D01*
X36241570Y-37654068D01*
X36260823Y-37434000D01*
X36260823Y-37433997D01*
X37790177Y-37433997D01*
X37790177Y-37434002D01*
X37809429Y-37654062D01*
X37809430Y-37654070D01*
X37866604Y-37867445D01*
X37866605Y-37867447D01*
X37866606Y-37867450D01*
X37899882Y-37938811D01*
X37959966Y-38067662D01*
X37959968Y-38067666D01*
X38086670Y-38248615D01*
X38086675Y-38248621D01*
X38242878Y-38404824D01*
X38242884Y-38404829D01*
X38423833Y-38531531D01*
X38423835Y-38531532D01*
X38423838Y-38531534D01*
X38624050Y-38624894D01*
X38837432Y-38682070D01*
X38994623Y-38695822D01*
X39057498Y-38701323D01*
X39057500Y-38701323D01*
X39057502Y-38701323D01*
X39112517Y-38696509D01*
X39277568Y-38682070D01*
X39490950Y-38624894D01*
X39691162Y-38531534D01*
X39872120Y-38404826D01*
X40028326Y-38248620D01*
X40155034Y-38067662D01*
X40215118Y-37938811D01*
X40261290Y-37886371D01*
X40328483Y-37867219D01*
X40395365Y-37887435D01*
X40439882Y-37938811D01*
X40499964Y-38067658D01*
X40499968Y-38067666D01*
X40626670Y-38248615D01*
X40626675Y-38248621D01*
X40782878Y-38404824D01*
X40782884Y-38404829D01*
X40963833Y-38531531D01*
X40963835Y-38531532D01*
X40963838Y-38531534D01*
X41164050Y-38624894D01*
X41377432Y-38682070D01*
X41534623Y-38695822D01*
X41597498Y-38701323D01*
X41597500Y-38701323D01*
X41597502Y-38701323D01*
X41652517Y-38696509D01*
X41817568Y-38682070D01*
X42030950Y-38624894D01*
X42231162Y-38531534D01*
X42412120Y-38404826D01*
X42568326Y-38248620D01*
X42695034Y-38067662D01*
X42788394Y-37867450D01*
X42845570Y-37654068D01*
X42864823Y-37434000D01*
X42845570Y-37213932D01*
X42788394Y-37000550D01*
X42695034Y-36800339D01*
X42568326Y-36619380D01*
X42412120Y-36463174D01*
X42412116Y-36463171D01*
X42412115Y-36463170D01*
X42231166Y-36336468D01*
X42231162Y-36336466D01*
X42231160Y-36336465D01*
X42030950Y-36243106D01*
X42030947Y-36243105D01*
X42030945Y-36243104D01*
X41817570Y-36185930D01*
X41817562Y-36185929D01*
X41597502Y-36166677D01*
X41597498Y-36166677D01*
X41377437Y-36185929D01*
X41377429Y-36185930D01*
X41164054Y-36243104D01*
X41164048Y-36243107D01*
X40963840Y-36336465D01*
X40963838Y-36336466D01*
X40782877Y-36463175D01*
X40626675Y-36619377D01*
X40499966Y-36800338D01*
X40499965Y-36800340D01*
X40439882Y-36929189D01*
X40393709Y-36981628D01*
X40326516Y-37000780D01*
X40259635Y-36980564D01*
X40215118Y-36929189D01*
X40155034Y-36800340D01*
X40155033Y-36800338D01*
X40028327Y-36619381D01*
X40028323Y-36619377D01*
X39872120Y-36463174D01*
X39872116Y-36463171D01*
X39872115Y-36463170D01*
X39691166Y-36336468D01*
X39691162Y-36336466D01*
X39691160Y-36336465D01*
X39490950Y-36243106D01*
X39490947Y-36243105D01*
X39490945Y-36243104D01*
X39277570Y-36185930D01*
X39277562Y-36185929D01*
X39057502Y-36166677D01*
X39057498Y-36166677D01*
X38837437Y-36185929D01*
X38837429Y-36185930D01*
X38624054Y-36243104D01*
X38624048Y-36243107D01*
X38423840Y-36336465D01*
X38423838Y-36336466D01*
X38242877Y-36463175D01*
X38086675Y-36619377D01*
X37959966Y-36800338D01*
X37959965Y-36800340D01*
X37866607Y-37000548D01*
X37866604Y-37000554D01*
X37809430Y-37213929D01*
X37809429Y-37213937D01*
X37790177Y-37433997D01*
X36260823Y-37433997D01*
X36241570Y-37213932D01*
X36184394Y-37000550D01*
X36091034Y-36800339D01*
X35964326Y-36619380D01*
X35808120Y-36463174D01*
X35808116Y-36463171D01*
X35808115Y-36463170D01*
X35627166Y-36336468D01*
X35627162Y-36336466D01*
X35627160Y-36336465D01*
X35426950Y-36243106D01*
X35426947Y-36243105D01*
X35426945Y-36243104D01*
X35213570Y-36185930D01*
X35213562Y-36185929D01*
X34993502Y-36166677D01*
X34993498Y-36166677D01*
X34773437Y-36185929D01*
X34773429Y-36185930D01*
X34560054Y-36243104D01*
X34560048Y-36243107D01*
X34359840Y-36336465D01*
X34359838Y-36336466D01*
X34178877Y-36463175D01*
X34022675Y-36619377D01*
X33895966Y-36800338D01*
X33895965Y-36800340D01*
X33835882Y-36929189D01*
X33789709Y-36981628D01*
X33722516Y-37000780D01*
X33655635Y-36980564D01*
X33611118Y-36929189D01*
X33551034Y-36800340D01*
X33551033Y-36800338D01*
X33424327Y-36619381D01*
X33424323Y-36619377D01*
X33268120Y-36463174D01*
X33268116Y-36463171D01*
X33268115Y-36463170D01*
X33087166Y-36336468D01*
X33087162Y-36336466D01*
X33087160Y-36336465D01*
X32886950Y-36243106D01*
X32886947Y-36243105D01*
X32886945Y-36243104D01*
X32673570Y-36185930D01*
X32673562Y-36185929D01*
X32453502Y-36166677D01*
X32453498Y-36166677D01*
X32233437Y-36185929D01*
X32233429Y-36185930D01*
X32020054Y-36243104D01*
X32020048Y-36243107D01*
X31819840Y-36336465D01*
X31819838Y-36336466D01*
X31638877Y-36463175D01*
X31482675Y-36619377D01*
X31355966Y-36800338D01*
X31355965Y-36800340D01*
X31262607Y-37000548D01*
X31262604Y-37000554D01*
X31205430Y-37213929D01*
X31205429Y-37213937D01*
X31186177Y-37433997D01*
X24826000Y-37433997D01*
X24826000Y-32999998D01*
X40994390Y-32999998D01*
X40994390Y-33000001D01*
X41014804Y-33285433D01*
X41075628Y-33565037D01*
X41175635Y-33833166D01*
X41312770Y-34084309D01*
X41312775Y-34084317D01*
X41484254Y-34313387D01*
X41484270Y-34313405D01*
X41686594Y-34515729D01*
X41686612Y-34515745D01*
X41915682Y-34687224D01*
X41915690Y-34687229D01*
X42166833Y-34824364D01*
X42166832Y-34824364D01*
X42166836Y-34824365D01*
X42166839Y-34824367D01*
X42434954Y-34924369D01*
X42434960Y-34924370D01*
X42434962Y-34924371D01*
X42714566Y-34985195D01*
X42714568Y-34985195D01*
X42714572Y-34985196D01*
X42968220Y-35003337D01*
X42999999Y-35005610D01*
X43000000Y-35005610D01*
X43000001Y-35005610D01*
X43028595Y-35003564D01*
X43285428Y-34985196D01*
X43565046Y-34924369D01*
X43833161Y-34824367D01*
X44084315Y-34687226D01*
X44313395Y-34515739D01*
X44515739Y-34313395D01*
X44687226Y-34084315D01*
X44824367Y-33833161D01*
X44924369Y-33565046D01*
X44985196Y-33285428D01*
X45005610Y-33000000D01*
X44985196Y-32714572D01*
X44957563Y-32587547D01*
X44924371Y-32434962D01*
X44924370Y-32434960D01*
X44924369Y-32434954D01*
X44824367Y-32166839D01*
X44744025Y-32019705D01*
X44687229Y-31915690D01*
X44687224Y-31915682D01*
X44515745Y-31686612D01*
X44515729Y-31686594D01*
X44313405Y-31484270D01*
X44313387Y-31484254D01*
X44084317Y-31312775D01*
X44084309Y-31312770D01*
X43833166Y-31175635D01*
X43833167Y-31175635D01*
X43725915Y-31135632D01*
X43565046Y-31075631D01*
X43565043Y-31075630D01*
X43565037Y-31075628D01*
X43285433Y-31014804D01*
X43000001Y-30994390D01*
X42999999Y-30994390D01*
X42714566Y-31014804D01*
X42434962Y-31075628D01*
X42166833Y-31175635D01*
X41915690Y-31312770D01*
X41915682Y-31312775D01*
X41686612Y-31484254D01*
X41686594Y-31484270D01*
X41484270Y-31686594D01*
X41484254Y-31686612D01*
X41312775Y-31915682D01*
X41312770Y-31915690D01*
X41175635Y-32166833D01*
X41075628Y-32434962D01*
X41014804Y-32714566D01*
X40994390Y-32999998D01*
X24826000Y-32999998D01*
X24826000Y-28682135D01*
X34579500Y-28682135D01*
X34579500Y-32277870D01*
X34579501Y-32277876D01*
X34585908Y-32337483D01*
X34636202Y-32472328D01*
X34636206Y-32472335D01*
X34722452Y-32587544D01*
X34722455Y-32587547D01*
X34837664Y-32673793D01*
X34837671Y-32673797D01*
X34972517Y-32724091D01*
X34972516Y-32724091D01*
X34979444Y-32724835D01*
X35032127Y-32730500D01*
X38627872Y-32730499D01*
X38687483Y-32724091D01*
X38822331Y-32673796D01*
X38937546Y-32587546D01*
X39023796Y-32472331D01*
X39074091Y-32337483D01*
X39080500Y-32277873D01*
X39080499Y-28752024D01*
X39100184Y-28684986D01*
X39152988Y-28639231D01*
X39222146Y-28629287D01*
X39285702Y-28658312D01*
X39323476Y-28717090D01*
X39326243Y-28728480D01*
X39326753Y-28731120D01*
X39409425Y-28950189D01*
X39527929Y-29152131D01*
X39527934Y-29152138D01*
X39678856Y-29331141D01*
X39678858Y-29331143D01*
X39857861Y-29482065D01*
X39857868Y-29482070D01*
X40059810Y-29600574D01*
X40278874Y-29683245D01*
X40508759Y-29727705D01*
X40561378Y-29730500D01*
X40561386Y-29730500D01*
X42498614Y-29730500D01*
X42498622Y-29730500D01*
X42551241Y-29727705D01*
X42781126Y-29683245D01*
X43000190Y-29600574D01*
X43202132Y-29482070D01*
X43381142Y-29331142D01*
X43532070Y-29152132D01*
X43650574Y-28950190D01*
X43733245Y-28731126D01*
X43777705Y-28501241D01*
X43780500Y-28448622D01*
X43780500Y-26511378D01*
X43777705Y-26458759D01*
X43733245Y-26228874D01*
X43650574Y-26009810D01*
X43532070Y-25807868D01*
X43532065Y-25807861D01*
X43381143Y-25628858D01*
X43381141Y-25628856D01*
X43202138Y-25477934D01*
X43202131Y-25477929D01*
X43000189Y-25359425D01*
X42909832Y-25325326D01*
X42781126Y-25276755D01*
X42781121Y-25276754D01*
X42551243Y-25232295D01*
X42498652Y-25229501D01*
X42498629Y-25229500D01*
X42498622Y-25229500D01*
X40561378Y-25229500D01*
X40561370Y-25229500D01*
X40561347Y-25229501D01*
X40508756Y-25232295D01*
X40508755Y-25232295D01*
X40278878Y-25276754D01*
X40278876Y-25276754D01*
X40278874Y-25276755D01*
X40232656Y-25294197D01*
X40059810Y-25359425D01*
X39857868Y-25477929D01*
X39857861Y-25477934D01*
X39678858Y-25628856D01*
X39678856Y-25628858D01*
X39527934Y-25807861D01*
X39527929Y-25807868D01*
X39409425Y-26009810D01*
X39354659Y-26154933D01*
X39326755Y-26228874D01*
X39326754Y-26228876D01*
X39326754Y-26228878D01*
X39282295Y-26458755D01*
X39282295Y-26458756D01*
X39279501Y-26511347D01*
X39279500Y-26511386D01*
X39279500Y-28448613D01*
X39279501Y-28448657D01*
X39281433Y-28485028D01*
X39265332Y-28553017D01*
X39215030Y-28601508D01*
X39146496Y-28615106D01*
X39081490Y-28589493D01*
X39041426Y-28534937D01*
X39023798Y-28487673D01*
X39023793Y-28487664D01*
X38937547Y-28372455D01*
X38937544Y-28372452D01*
X38822335Y-28286206D01*
X38822328Y-28286202D01*
X38687482Y-28235908D01*
X38687483Y-28235908D01*
X38627883Y-28229501D01*
X38627881Y-28229500D01*
X38627873Y-28229500D01*
X38627864Y-28229500D01*
X35032129Y-28229500D01*
X35032123Y-28229501D01*
X34972516Y-28235908D01*
X34837671Y-28286202D01*
X34837664Y-28286206D01*
X34722455Y-28372452D01*
X34722452Y-28372455D01*
X34636206Y-28487664D01*
X34636202Y-28487671D01*
X34585908Y-28622517D01*
X34579501Y-28682116D01*
X34579500Y-28682135D01*
X24826000Y-28682135D01*
X24826000Y-25999998D01*
X25994390Y-25999998D01*
X25994390Y-26000001D01*
X26014804Y-26285433D01*
X26075628Y-26565037D01*
X26175635Y-26833166D01*
X26312770Y-27084309D01*
X26312775Y-27084317D01*
X26484254Y-27313387D01*
X26484270Y-27313405D01*
X26686594Y-27515729D01*
X26686612Y-27515745D01*
X26915682Y-27687224D01*
X26915690Y-27687229D01*
X27166833Y-27824364D01*
X27166832Y-27824364D01*
X27166836Y-27824365D01*
X27166839Y-27824367D01*
X27434954Y-27924369D01*
X27434960Y-27924370D01*
X27434962Y-27924371D01*
X27714566Y-27985195D01*
X27714568Y-27985195D01*
X27714572Y-27985196D01*
X27968220Y-28003337D01*
X27999999Y-28005610D01*
X28000000Y-28005610D01*
X28000001Y-28005610D01*
X28028595Y-28003564D01*
X28285428Y-27985196D01*
X28565046Y-27924369D01*
X28833161Y-27824367D01*
X29084315Y-27687226D01*
X29313395Y-27515739D01*
X29515739Y-27313395D01*
X29687226Y-27084315D01*
X29824367Y-26833161D01*
X29924369Y-26565046D01*
X29936044Y-26511378D01*
X29985195Y-26285433D01*
X29985195Y-26285432D01*
X29985196Y-26285428D01*
X30005610Y-26000000D01*
X29985196Y-25714572D01*
X29924369Y-25434954D01*
X29824367Y-25166839D01*
X29744025Y-25019705D01*
X29687229Y-24915690D01*
X29687224Y-24915682D01*
X29515745Y-24686612D01*
X29515729Y-24686594D01*
X29313405Y-24484270D01*
X29313387Y-24484254D01*
X29084317Y-24312775D01*
X29084309Y-24312770D01*
X28833166Y-24175635D01*
X28833167Y-24175635D01*
X28725915Y-24135632D01*
X28565046Y-24075631D01*
X28565043Y-24075630D01*
X28565037Y-24075628D01*
X28285433Y-24014804D01*
X28000001Y-23994390D01*
X27999999Y-23994390D01*
X27714566Y-24014804D01*
X27434962Y-24075628D01*
X27166833Y-24175635D01*
X26915690Y-24312770D01*
X26915682Y-24312775D01*
X26686612Y-24484254D01*
X26686594Y-24484270D01*
X26484270Y-24686594D01*
X26484254Y-24686612D01*
X26312775Y-24915682D01*
X26312770Y-24915690D01*
X26175635Y-25166833D01*
X26075628Y-25434962D01*
X26014804Y-25714566D01*
X25994390Y-25999998D01*
X24826000Y-25999998D01*
X24826000Y-22826500D01*
X24845685Y-22759461D01*
X24898489Y-22713706D01*
X24950000Y-22702500D01*
X34790372Y-22702500D01*
X34857411Y-22722185D01*
G37*
%TD.AperFunction*%
%TD*%
M02*
