%TF.GenerationSoftware,KiCad,Pcbnew,8.0.5*%
%TF.CreationDate,2024-10-30T18:10:09+09:00*%
%TF.ProjectId,BD,42442e6b-6963-4616-945f-706362585858,rev?*%
%TF.SameCoordinates,Original*%
%TF.FileFunction,Legend,Top*%
%TF.FilePolarity,Positive*%
%FSLAX46Y46*%
G04 Gerber Fmt 4.6, Leading zero omitted, Abs format (unit mm)*
G04 Created by KiCad (PCBNEW 8.0.5) date 2024-10-30 18:10:09*
%MOMM*%
%LPD*%
G01*
G04 APERTURE LIST*
G04 Aperture macros list*
%AMRoundRect*
0 Rectangle with rounded corners*
0 $1 Rounding radius*
0 $2 $3 $4 $5 $6 $7 $8 $9 X,Y pos of 4 corners*
0 Add a 4 corners polygon primitive as box body*
4,1,4,$2,$3,$4,$5,$6,$7,$8,$9,$2,$3,0*
0 Add four circle primitives for the rounded corners*
1,1,$1+$1,$2,$3*
1,1,$1+$1,$4,$5*
1,1,$1+$1,$6,$7*
1,1,$1+$1,$8,$9*
0 Add four rect primitives between the rounded corners*
20,1,$1+$1,$2,$3,$4,$5,0*
20,1,$1+$1,$4,$5,$6,$7,0*
20,1,$1+$1,$6,$7,$8,$9,0*
20,1,$1+$1,$8,$9,$2,$3,0*%
G04 Aperture macros list end*
%ADD10C,0.150000*%
%ADD11C,0.100000*%
%ADD12C,0.120000*%
%ADD13C,1.400000*%
%ADD14O,1.400000X1.400000*%
%ADD15R,1.700000X1.700000*%
%ADD16O,1.700000X1.700000*%
%ADD17R,1.800000X1.800000*%
%ADD18C,1.800000*%
%ADD19C,1.524000*%
%ADD20R,3.500000X3.500000*%
%ADD21RoundRect,0.750000X-1.000000X0.750000X-1.000000X-0.750000X1.000000X-0.750000X1.000000X0.750000X0*%
%ADD22RoundRect,0.875000X-0.875000X0.875000X-0.875000X-0.875000X0.875000X-0.875000X0.875000X0.875000X0*%
%ADD23R,1.600000X1.600000*%
%ADD24O,1.600000X1.600000*%
G04 APERTURE END LIST*
D10*
X39144833Y-45874819D02*
X38811500Y-45398628D01*
X38573405Y-45874819D02*
X38573405Y-44874819D01*
X38573405Y-44874819D02*
X38954357Y-44874819D01*
X38954357Y-44874819D02*
X39049595Y-44922438D01*
X39049595Y-44922438D02*
X39097214Y-44970057D01*
X39097214Y-44970057D02*
X39144833Y-45065295D01*
X39144833Y-45065295D02*
X39144833Y-45208152D01*
X39144833Y-45208152D02*
X39097214Y-45303390D01*
X39097214Y-45303390D02*
X39049595Y-45351009D01*
X39049595Y-45351009D02*
X38954357Y-45398628D01*
X38954357Y-45398628D02*
X38573405Y-45398628D01*
X39525786Y-44970057D02*
X39573405Y-44922438D01*
X39573405Y-44922438D02*
X39668643Y-44874819D01*
X39668643Y-44874819D02*
X39906738Y-44874819D01*
X39906738Y-44874819D02*
X40001976Y-44922438D01*
X40001976Y-44922438D02*
X40049595Y-44970057D01*
X40049595Y-44970057D02*
X40097214Y-45065295D01*
X40097214Y-45065295D02*
X40097214Y-45160533D01*
X40097214Y-45160533D02*
X40049595Y-45303390D01*
X40049595Y-45303390D02*
X39478167Y-45874819D01*
X39478167Y-45874819D02*
X40097214Y-45874819D01*
X29402319Y-78311333D02*
X30116604Y-78311333D01*
X30116604Y-78311333D02*
X30259461Y-78358952D01*
X30259461Y-78358952D02*
X30354700Y-78454190D01*
X30354700Y-78454190D02*
X30402319Y-78597047D01*
X30402319Y-78597047D02*
X30402319Y-78692285D01*
X29497557Y-77882761D02*
X29449938Y-77835142D01*
X29449938Y-77835142D02*
X29402319Y-77739904D01*
X29402319Y-77739904D02*
X29402319Y-77501809D01*
X29402319Y-77501809D02*
X29449938Y-77406571D01*
X29449938Y-77406571D02*
X29497557Y-77358952D01*
X29497557Y-77358952D02*
X29592795Y-77311333D01*
X29592795Y-77311333D02*
X29688033Y-77311333D01*
X29688033Y-77311333D02*
X29830890Y-77358952D01*
X29830890Y-77358952D02*
X30402319Y-77930380D01*
X30402319Y-77930380D02*
X30402319Y-77311333D01*
X32726405Y-51184819D02*
X32726405Y-50184819D01*
X32726405Y-50184819D02*
X32964500Y-50184819D01*
X32964500Y-50184819D02*
X33107357Y-50232438D01*
X33107357Y-50232438D02*
X33202595Y-50327676D01*
X33202595Y-50327676D02*
X33250214Y-50422914D01*
X33250214Y-50422914D02*
X33297833Y-50613390D01*
X33297833Y-50613390D02*
X33297833Y-50756247D01*
X33297833Y-50756247D02*
X33250214Y-50946723D01*
X33250214Y-50946723D02*
X33202595Y-51041961D01*
X33202595Y-51041961D02*
X33107357Y-51137200D01*
X33107357Y-51137200D02*
X32964500Y-51184819D01*
X32964500Y-51184819D02*
X32726405Y-51184819D01*
X34250214Y-51184819D02*
X33678786Y-51184819D01*
X33964500Y-51184819D02*
X33964500Y-50184819D01*
X33964500Y-50184819D02*
X33869262Y-50327676D01*
X33869262Y-50327676D02*
X33774024Y-50422914D01*
X33774024Y-50422914D02*
X33678786Y-50470533D01*
D11*
X33813700Y-39910667D02*
X33766080Y-40053524D01*
X33766080Y-40053524D02*
X33766080Y-40291619D01*
X33766080Y-40291619D02*
X33813700Y-40386857D01*
X33813700Y-40386857D02*
X33861319Y-40434476D01*
X33861319Y-40434476D02*
X33956557Y-40482095D01*
X33956557Y-40482095D02*
X34051795Y-40482095D01*
X34051795Y-40482095D02*
X34147033Y-40434476D01*
X34147033Y-40434476D02*
X34194652Y-40386857D01*
X34194652Y-40386857D02*
X34242271Y-40291619D01*
X34242271Y-40291619D02*
X34289890Y-40101143D01*
X34289890Y-40101143D02*
X34337509Y-40005905D01*
X34337509Y-40005905D02*
X34385128Y-39958286D01*
X34385128Y-39958286D02*
X34480366Y-39910667D01*
X34480366Y-39910667D02*
X34575604Y-39910667D01*
X34575604Y-39910667D02*
X34670842Y-39958286D01*
X34670842Y-39958286D02*
X34718461Y-40005905D01*
X34718461Y-40005905D02*
X34766080Y-40101143D01*
X34766080Y-40101143D02*
X34766080Y-40339238D01*
X34766080Y-40339238D02*
X34718461Y-40482095D01*
X34766080Y-40815429D02*
X33766080Y-41053524D01*
X33766080Y-41053524D02*
X34480366Y-41244000D01*
X34480366Y-41244000D02*
X33766080Y-41434476D01*
X33766080Y-41434476D02*
X34766080Y-41672572D01*
X33766080Y-42577333D02*
X33766080Y-42005905D01*
X33766080Y-42291619D02*
X34766080Y-42291619D01*
X34766080Y-42291619D02*
X34623223Y-42196381D01*
X34623223Y-42196381D02*
X34527985Y-42101143D01*
X34527985Y-42101143D02*
X34480366Y-42005905D01*
D10*
X34064833Y-52000819D02*
X33731500Y-51524628D01*
X33493405Y-52000819D02*
X33493405Y-51000819D01*
X33493405Y-51000819D02*
X33874357Y-51000819D01*
X33874357Y-51000819D02*
X33969595Y-51048438D01*
X33969595Y-51048438D02*
X34017214Y-51096057D01*
X34017214Y-51096057D02*
X34064833Y-51191295D01*
X34064833Y-51191295D02*
X34064833Y-51334152D01*
X34064833Y-51334152D02*
X34017214Y-51429390D01*
X34017214Y-51429390D02*
X33969595Y-51477009D01*
X33969595Y-51477009D02*
X33874357Y-51524628D01*
X33874357Y-51524628D02*
X33493405Y-51524628D01*
X35017214Y-52000819D02*
X34445786Y-52000819D01*
X34731500Y-52000819D02*
X34731500Y-51000819D01*
X34731500Y-51000819D02*
X34636262Y-51143676D01*
X34636262Y-51143676D02*
X34541024Y-51238914D01*
X34541024Y-51238914D02*
X34445786Y-51286533D01*
D11*
X37533404Y-67948580D02*
X37533404Y-67139057D01*
X37533404Y-67139057D02*
X37485785Y-67043819D01*
X37485785Y-67043819D02*
X37438166Y-66996200D01*
X37438166Y-66996200D02*
X37342928Y-66948580D01*
X37342928Y-66948580D02*
X37152452Y-66948580D01*
X37152452Y-66948580D02*
X37057214Y-66996200D01*
X37057214Y-66996200D02*
X37009595Y-67043819D01*
X37009595Y-67043819D02*
X36961976Y-67139057D01*
X36961976Y-67139057D02*
X36961976Y-67948580D01*
X35961976Y-66948580D02*
X36533404Y-66948580D01*
X36247690Y-66948580D02*
X36247690Y-67948580D01*
X36247690Y-67948580D02*
X36342928Y-67805723D01*
X36342928Y-67805723D02*
X36438166Y-67710485D01*
X36438166Y-67710485D02*
X36533404Y-67662866D01*
X40417700Y-39910667D02*
X40370080Y-40053524D01*
X40370080Y-40053524D02*
X40370080Y-40291619D01*
X40370080Y-40291619D02*
X40417700Y-40386857D01*
X40417700Y-40386857D02*
X40465319Y-40434476D01*
X40465319Y-40434476D02*
X40560557Y-40482095D01*
X40560557Y-40482095D02*
X40655795Y-40482095D01*
X40655795Y-40482095D02*
X40751033Y-40434476D01*
X40751033Y-40434476D02*
X40798652Y-40386857D01*
X40798652Y-40386857D02*
X40846271Y-40291619D01*
X40846271Y-40291619D02*
X40893890Y-40101143D01*
X40893890Y-40101143D02*
X40941509Y-40005905D01*
X40941509Y-40005905D02*
X40989128Y-39958286D01*
X40989128Y-39958286D02*
X41084366Y-39910667D01*
X41084366Y-39910667D02*
X41179604Y-39910667D01*
X41179604Y-39910667D02*
X41274842Y-39958286D01*
X41274842Y-39958286D02*
X41322461Y-40005905D01*
X41322461Y-40005905D02*
X41370080Y-40101143D01*
X41370080Y-40101143D02*
X41370080Y-40339238D01*
X41370080Y-40339238D02*
X41322461Y-40482095D01*
X41370080Y-40815429D02*
X40370080Y-41053524D01*
X40370080Y-41053524D02*
X41084366Y-41244000D01*
X41084366Y-41244000D02*
X40370080Y-41434476D01*
X40370080Y-41434476D02*
X41370080Y-41672572D01*
X41274842Y-42005905D02*
X41322461Y-42053524D01*
X41322461Y-42053524D02*
X41370080Y-42148762D01*
X41370080Y-42148762D02*
X41370080Y-42386857D01*
X41370080Y-42386857D02*
X41322461Y-42482095D01*
X41322461Y-42482095D02*
X41274842Y-42529714D01*
X41274842Y-42529714D02*
X41179604Y-42577333D01*
X41179604Y-42577333D02*
X41084366Y-42577333D01*
X41084366Y-42577333D02*
X40941509Y-42529714D01*
X40941509Y-42529714D02*
X40370080Y-41958286D01*
X40370080Y-41958286D02*
X40370080Y-42577333D01*
D10*
X39838405Y-51184819D02*
X39838405Y-50184819D01*
X39838405Y-50184819D02*
X40076500Y-50184819D01*
X40076500Y-50184819D02*
X40219357Y-50232438D01*
X40219357Y-50232438D02*
X40314595Y-50327676D01*
X40314595Y-50327676D02*
X40362214Y-50422914D01*
X40362214Y-50422914D02*
X40409833Y-50613390D01*
X40409833Y-50613390D02*
X40409833Y-50756247D01*
X40409833Y-50756247D02*
X40362214Y-50946723D01*
X40362214Y-50946723D02*
X40314595Y-51041961D01*
X40314595Y-51041961D02*
X40219357Y-51137200D01*
X40219357Y-51137200D02*
X40076500Y-51184819D01*
X40076500Y-51184819D02*
X39838405Y-51184819D01*
X40790786Y-50280057D02*
X40838405Y-50232438D01*
X40838405Y-50232438D02*
X40933643Y-50184819D01*
X40933643Y-50184819D02*
X41171738Y-50184819D01*
X41171738Y-50184819D02*
X41266976Y-50232438D01*
X41266976Y-50232438D02*
X41314595Y-50280057D01*
X41314595Y-50280057D02*
X41362214Y-50375295D01*
X41362214Y-50375295D02*
X41362214Y-50470533D01*
X41362214Y-50470533D02*
X41314595Y-50613390D01*
X41314595Y-50613390D02*
X40743167Y-51184819D01*
X40743167Y-51184819D02*
X41362214Y-51184819D01*
X25770166Y-69630819D02*
X25770166Y-70345104D01*
X25770166Y-70345104D02*
X25722547Y-70487961D01*
X25722547Y-70487961D02*
X25627309Y-70583200D01*
X25627309Y-70583200D02*
X25484452Y-70630819D01*
X25484452Y-70630819D02*
X25389214Y-70630819D01*
X26770166Y-70630819D02*
X26198738Y-70630819D01*
X26484452Y-70630819D02*
X26484452Y-69630819D01*
X26484452Y-69630819D02*
X26389214Y-69773676D01*
X26389214Y-69773676D02*
X26293976Y-69868914D01*
X26293976Y-69868914D02*
X26198738Y-69916533D01*
D12*
%TO.C,R2*%
X37391500Y-46420000D02*
X41231500Y-46420000D01*
X37391500Y-48260000D02*
X41231500Y-48260000D01*
%TO.C,J2*%
X31387500Y-76648000D02*
X32717500Y-76648000D01*
X31387500Y-77978000D02*
X31387500Y-76648000D01*
X33987500Y-76648000D02*
X41667500Y-76648000D01*
X33987500Y-79308000D02*
X33987500Y-76648000D01*
X33987500Y-79308000D02*
X41667500Y-79308000D01*
X41667500Y-79308000D02*
X41667500Y-76648000D01*
%TO.C,D1*%
X31904500Y-52454000D02*
X31904500Y-52610000D01*
X31904500Y-54770000D02*
X31904500Y-54926000D01*
X31904500Y-52454484D02*
G75*
G02*
X35136835Y-52611392I1560000J-1235516D01*
G01*
X32423539Y-52610000D02*
G75*
G02*
X34505630Y-52610163I1040961J-1080000D01*
G01*
X34505630Y-54769837D02*
G75*
G02*
X32423539Y-54770000I-1041130J1079837D01*
G01*
X35136835Y-54768608D02*
G75*
G02*
X31904500Y-54925516I-1672335J1078608D01*
G01*
%TO.C,SW1*%
D11*
X36263500Y-38704000D02*
X31183500Y-38704000D01*
X31183500Y-43784000D01*
X36263500Y-43784000D01*
X36263500Y-38704000D01*
D12*
%TO.C,R1*%
X36151500Y-48706000D02*
X32311500Y-48706000D01*
X36151500Y-50546000D02*
X32311500Y-50546000D01*
%TO.C,U1*%
D11*
X43121500Y-76296000D02*
X30421500Y-76296000D01*
X30421500Y-55976000D01*
X43121500Y-55976000D01*
X43121500Y-76296000D01*
%TO.C,SW2*%
X42867500Y-38704000D02*
X37787500Y-38704000D01*
X37787500Y-43784000D01*
X42867500Y-43784000D01*
X42867500Y-38704000D01*
D12*
%TO.C,D2*%
X39016500Y-52454000D02*
X39016500Y-52610000D01*
X39016500Y-54770000D02*
X39016500Y-54926000D01*
X39016500Y-52454484D02*
G75*
G02*
X42248835Y-52611392I1560000J-1235516D01*
G01*
X39535539Y-52610000D02*
G75*
G02*
X41617630Y-52610163I1040961J-1080000D01*
G01*
X41617630Y-54769837D02*
G75*
G02*
X39535539Y-54770000I-1041130J1079837D01*
G01*
X42248835Y-54768608D02*
G75*
G02*
X39016500Y-54925516I-1672335J1078608D01*
G01*
%TO.C,J1*%
X24773500Y-66136000D02*
X24773500Y-53376000D01*
X24773500Y-68736000D02*
X24773500Y-67406000D01*
X26103500Y-68736000D02*
X24773500Y-68736000D01*
X27433500Y-53376000D02*
X24773500Y-53376000D01*
X27433500Y-66136000D02*
X24773500Y-66136000D01*
X27433500Y-66136000D02*
X27433500Y-53376000D01*
%TD*%
%LPC*%
D13*
%TO.C,R2*%
X36771500Y-47340000D03*
D14*
X41851500Y-47340000D03*
%TD*%
D15*
%TO.C,J2*%
X32717500Y-77978000D03*
D16*
X35257500Y-77978000D03*
X37797500Y-77978000D03*
X40337500Y-77978000D03*
%TD*%
D17*
%TO.C,D1*%
X32194500Y-53690000D03*
D18*
X34734500Y-53690000D03*
%TD*%
D19*
%TO.C,SW1*%
X32453500Y-45054000D03*
X34993500Y-45054000D03*
X34993500Y-37434000D03*
X32453500Y-37434000D03*
%TD*%
D13*
%TO.C,R1*%
X36771500Y-49626000D03*
D14*
X31691500Y-49626000D03*
%TD*%
D19*
%TO.C,U1*%
X41851500Y-75026000D03*
X41851500Y-72486000D03*
X41851500Y-69946000D03*
X41851500Y-67406000D03*
X41851500Y-64866000D03*
X41851500Y-62326000D03*
X41851500Y-59786000D03*
X41851500Y-57246000D03*
X31691500Y-57246000D03*
X31691500Y-59786000D03*
X31691500Y-62326000D03*
X31691500Y-64866000D03*
X31691500Y-67406000D03*
X31691500Y-69946000D03*
X31691500Y-72486000D03*
X31691500Y-75026000D03*
%TD*%
%TO.C,SW2*%
X41597500Y-45054000D03*
X39057500Y-45054000D03*
X41597500Y-37434000D03*
X39057500Y-37434000D03*
%TD*%
D17*
%TO.C,D2*%
X39306500Y-53690000D03*
D18*
X41846500Y-53690000D03*
%TD*%
D15*
%TO.C,J1*%
X26103500Y-67406000D03*
D16*
X26103500Y-64866000D03*
X26103500Y-62326000D03*
X26103500Y-59786000D03*
X26103500Y-57246000D03*
X26103500Y-54706000D03*
%TD*%
D20*
%TO.C,J4*%
X36830000Y-30480000D03*
D21*
X36830000Y-24480000D03*
D22*
X41530000Y-27480000D03*
%TD*%
D23*
%TO.C,A1*%
X44391500Y-39466000D03*
D24*
X44391500Y-42006000D03*
X44391500Y-44546000D03*
X44391500Y-47086000D03*
X44391500Y-49626000D03*
X44391500Y-52166000D03*
X44391500Y-54706000D03*
X44391500Y-57246000D03*
X44391500Y-59786000D03*
X44391500Y-62326000D03*
X44391500Y-64866000D03*
X44391500Y-67406000D03*
X44391500Y-69946000D03*
X44391500Y-72486000D03*
X44391500Y-75026000D03*
X29151500Y-75026000D03*
X29151500Y-72486000D03*
X29151500Y-69946000D03*
X29151500Y-67406000D03*
X29151500Y-64866000D03*
X29151500Y-62326000D03*
X29151500Y-59786000D03*
X29151500Y-57246000D03*
X29151500Y-54706000D03*
X29151500Y-52166000D03*
X29151500Y-49626000D03*
X29151500Y-47086000D03*
X29151500Y-44546000D03*
X29151500Y-42006000D03*
X29151500Y-39466000D03*
%TD*%
%LPD*%
M02*
