M48
; DRILL file {KiCad 8.0.5} date 2024-10-30T18:10:09+0900
; FORMAT={-:-/ absolute / inch / decimal}
; #@! TF.CreationDate,2024-10-30T18:10:09+09:00
; #@! TF.GenerationSoftware,Kicad,Pcbnew,8.0.5
; #@! TF.FileFunction,Plated,1,2,PTH
FMAT,2
INCH
; #@! TA.AperFunction,Plated,PTH,ViaDrill
T1C0.0118
; #@! TA.AperFunction,Plated,PTH,ComponentDrill
T2C0.0276
; #@! TA.AperFunction,Plated,PTH,ComponentDrill
T3C0.0300
; #@! TA.AperFunction,Plated,PTH,ComponentDrill
T4C0.0354
; #@! TA.AperFunction,Plated,PTH,ComponentDrill
T5C0.0394
%
G90
G05
T1
X1.21Y-1.66
X1.2277Y-1.8938
X1.3277Y-1.8938
X1.3677Y-2.0038
X1.3977Y-2.1738
X1.4677Y-2.1138
X1.4677Y-2.2038
X1.4977Y-2.1738
X1.5177Y-1.9738
X1.5277Y-2.0138
X1.6977Y-1.8138
X1.6977Y-1.9038
X1.6977Y-2.1738
T2
X1.2477Y-1.9538
X1.4477Y-1.8638
X1.4477Y-1.9538
X1.6477Y-1.8638
T3
X1.2477Y-2.2538
X1.2477Y-2.3538
X1.2477Y-2.4538
X1.2477Y-2.5538
X1.2477Y-2.6538
X1.2477Y-2.7538
X1.2477Y-2.8538
X1.2477Y-2.9538
X1.2777Y-1.4738
X1.2777Y-1.7738
X1.3777Y-1.4738
X1.3777Y-1.7738
X1.5377Y-1.4738
X1.5377Y-1.7738
X1.6377Y-1.4738
X1.6377Y-1.7738
X1.6477Y-2.2538
X1.6477Y-2.3538
X1.6477Y-2.4538
X1.6477Y-2.5538
X1.6477Y-2.6538
X1.6477Y-2.7538
X1.6477Y-2.8538
X1.6477Y-2.9538
T4
X1.2675Y-2.1138
X1.3675Y-2.1138
X1.5475Y-2.1138
X1.6475Y-2.1138
T5
X1.0277Y-2.1538
X1.0277Y-2.2538
X1.0277Y-2.3538
X1.0277Y-2.4538
X1.0277Y-2.5538
X1.0277Y-2.6538
X1.1477Y-1.5538
X1.1477Y-1.6538
X1.1477Y-1.7538
X1.1477Y-1.8538
X1.1477Y-1.9538
X1.1477Y-2.0538
X1.1477Y-2.1538
X1.1477Y-2.2538
X1.1477Y-2.3538
X1.1477Y-2.4538
X1.1477Y-2.5538
X1.1477Y-2.6538
X1.1477Y-2.7538
X1.1477Y-2.8538
X1.1477Y-2.9538
X1.2881Y-3.07
X1.3881Y-3.07
X1.4881Y-3.07
X1.5881Y-3.07
X1.7477Y-1.5538
X1.7477Y-1.6538
X1.7477Y-1.7538
X1.7477Y-1.8538
X1.7477Y-1.9538
X1.7477Y-2.0538
X1.7477Y-2.1538
X1.7477Y-2.2538
X1.7477Y-2.3538
X1.7477Y-2.4538
X1.7477Y-2.5538
X1.7477Y-2.6538
X1.7477Y-2.7538
X1.7477Y-2.8538
X1.7477Y-2.9538
T5
G00X1.4894Y-0.9638
M15
G01X1.4106Y-0.9638
M16
G05
G00X1.4894Y-1.2
M15
G01X1.4106Y-1.2
M16
G05
G00X1.635Y-1.0425
M15
G01X1.635Y-1.1213
M16
G05
M30
