%TF.GenerationSoftware,KiCad,Pcbnew,8.0.5*%
%TF.CreationDate,2024-10-30T18:10:09+09:00*%
%TF.ProjectId,BD,42442e6b-6963-4616-945f-706362585858,rev?*%
%TF.SameCoordinates,Original*%
%TF.FileFunction,Soldermask,Bot*%
%TF.FilePolarity,Negative*%
%FSLAX46Y46*%
G04 Gerber Fmt 4.6, Leading zero omitted, Abs format (unit mm)*
G04 Created by KiCad (PCBNEW 8.0.5) date 2024-10-30 18:10:09*
%MOMM*%
%LPD*%
G01*
G04 APERTURE LIST*
G04 Aperture macros list*
%AMRoundRect*
0 Rectangle with rounded corners*
0 $1 Rounding radius*
0 $2 $3 $4 $5 $6 $7 $8 $9 X,Y pos of 4 corners*
0 Add a 4 corners polygon primitive as box body*
4,1,4,$2,$3,$4,$5,$6,$7,$8,$9,$2,$3,0*
0 Add four circle primitives for the rounded corners*
1,1,$1+$1,$2,$3*
1,1,$1+$1,$4,$5*
1,1,$1+$1,$6,$7*
1,1,$1+$1,$8,$9*
0 Add four rect primitives between the rounded corners*
20,1,$1+$1,$2,$3,$4,$5,0*
20,1,$1+$1,$4,$5,$6,$7,0*
20,1,$1+$1,$6,$7,$8,$9,0*
20,1,$1+$1,$8,$9,$2,$3,0*%
G04 Aperture macros list end*
%ADD10C,1.400000*%
%ADD11O,1.400000X1.400000*%
%ADD12R,1.700000X1.700000*%
%ADD13O,1.700000X1.700000*%
%ADD14R,1.800000X1.800000*%
%ADD15C,1.800000*%
%ADD16C,1.524000*%
%ADD17R,3.500000X3.500000*%
%ADD18RoundRect,0.750000X-1.000000X0.750000X-1.000000X-0.750000X1.000000X-0.750000X1.000000X0.750000X0*%
%ADD19RoundRect,0.875000X-0.875000X0.875000X-0.875000X-0.875000X0.875000X-0.875000X0.875000X0.875000X0*%
%ADD20R,1.600000X1.600000*%
%ADD21O,1.600000X1.600000*%
G04 APERTURE END LIST*
D10*
%TO.C,R2*%
X36771500Y-47340000D03*
D11*
X41851500Y-47340000D03*
%TD*%
D12*
%TO.C,J2*%
X32717500Y-77978000D03*
D13*
X35257500Y-77978000D03*
X37797500Y-77978000D03*
X40337500Y-77978000D03*
%TD*%
D14*
%TO.C,D1*%
X32194500Y-53690000D03*
D15*
X34734500Y-53690000D03*
%TD*%
D16*
%TO.C,SW1*%
X32453500Y-45054000D03*
X34993500Y-45054000D03*
X34993500Y-37434000D03*
X32453500Y-37434000D03*
%TD*%
D10*
%TO.C,R1*%
X36771500Y-49626000D03*
D11*
X31691500Y-49626000D03*
%TD*%
D16*
%TO.C,U1*%
X41851500Y-75026000D03*
X41851500Y-72486000D03*
X41851500Y-69946000D03*
X41851500Y-67406000D03*
X41851500Y-64866000D03*
X41851500Y-62326000D03*
X41851500Y-59786000D03*
X41851500Y-57246000D03*
X31691500Y-57246000D03*
X31691500Y-59786000D03*
X31691500Y-62326000D03*
X31691500Y-64866000D03*
X31691500Y-67406000D03*
X31691500Y-69946000D03*
X31691500Y-72486000D03*
X31691500Y-75026000D03*
%TD*%
%TO.C,SW2*%
X41597500Y-45054000D03*
X39057500Y-45054000D03*
X41597500Y-37434000D03*
X39057500Y-37434000D03*
%TD*%
D14*
%TO.C,D2*%
X39306500Y-53690000D03*
D15*
X41846500Y-53690000D03*
%TD*%
D12*
%TO.C,J1*%
X26103500Y-67406000D03*
D13*
X26103500Y-64866000D03*
X26103500Y-62326000D03*
X26103500Y-59786000D03*
X26103500Y-57246000D03*
X26103500Y-54706000D03*
%TD*%
D17*
%TO.C,J4*%
X36830000Y-30480000D03*
D18*
X36830000Y-24480000D03*
D19*
X41530000Y-27480000D03*
%TD*%
D20*
%TO.C,A1*%
X44391500Y-39466000D03*
D21*
X44391500Y-42006000D03*
X44391500Y-44546000D03*
X44391500Y-47086000D03*
X44391500Y-49626000D03*
X44391500Y-52166000D03*
X44391500Y-54706000D03*
X44391500Y-57246000D03*
X44391500Y-59786000D03*
X44391500Y-62326000D03*
X44391500Y-64866000D03*
X44391500Y-67406000D03*
X44391500Y-69946000D03*
X44391500Y-72486000D03*
X44391500Y-75026000D03*
X29151500Y-75026000D03*
X29151500Y-72486000D03*
X29151500Y-69946000D03*
X29151500Y-67406000D03*
X29151500Y-64866000D03*
X29151500Y-62326000D03*
X29151500Y-59786000D03*
X29151500Y-57246000D03*
X29151500Y-54706000D03*
X29151500Y-52166000D03*
X29151500Y-49626000D03*
X29151500Y-47086000D03*
X29151500Y-44546000D03*
X29151500Y-42006000D03*
X29151500Y-39466000D03*
%TD*%
M02*
