%TF.GenerationSoftware,KiCad,Pcbnew,8.0.5*%
%TF.CreationDate,2024-10-30T18:10:09+09:00*%
%TF.ProjectId,BD,42442e6b-6963-4616-945f-706362585858,rev?*%
%TF.SameCoordinates,Original*%
%TF.FileFunction,Copper,L1,Top*%
%TF.FilePolarity,Positive*%
%FSLAX46Y46*%
G04 Gerber Fmt 4.6, Leading zero omitted, Abs format (unit mm)*
G04 Created by KiCad (PCBNEW 8.0.5) date 2024-10-30 18:10:09*
%MOMM*%
%LPD*%
G01*
G04 APERTURE LIST*
G04 Aperture macros list*
%AMRoundRect*
0 Rectangle with rounded corners*
0 $1 Rounding radius*
0 $2 $3 $4 $5 $6 $7 $8 $9 X,Y pos of 4 corners*
0 Add a 4 corners polygon primitive as box body*
4,1,4,$2,$3,$4,$5,$6,$7,$8,$9,$2,$3,0*
0 Add four circle primitives for the rounded corners*
1,1,$1+$1,$2,$3*
1,1,$1+$1,$4,$5*
1,1,$1+$1,$6,$7*
1,1,$1+$1,$8,$9*
0 Add four rect primitives between the rounded corners*
20,1,$1+$1,$2,$3,$4,$5,0*
20,1,$1+$1,$4,$5,$6,$7,0*
20,1,$1+$1,$6,$7,$8,$9,0*
20,1,$1+$1,$8,$9,$2,$3,0*%
G04 Aperture macros list end*
%TA.AperFunction,ComponentPad*%
%ADD10C,1.400000*%
%TD*%
%TA.AperFunction,ComponentPad*%
%ADD11O,1.400000X1.400000*%
%TD*%
%TA.AperFunction,ComponentPad*%
%ADD12R,1.700000X1.700000*%
%TD*%
%TA.AperFunction,ComponentPad*%
%ADD13O,1.700000X1.700000*%
%TD*%
%TA.AperFunction,ComponentPad*%
%ADD14R,1.800000X1.800000*%
%TD*%
%TA.AperFunction,ComponentPad*%
%ADD15C,1.800000*%
%TD*%
%TA.AperFunction,ComponentPad*%
%ADD16C,1.524000*%
%TD*%
%TA.AperFunction,ComponentPad*%
%ADD17R,3.500000X3.500000*%
%TD*%
%TA.AperFunction,ComponentPad*%
%ADD18RoundRect,0.750000X-1.000000X0.750000X-1.000000X-0.750000X1.000000X-0.750000X1.000000X0.750000X0*%
%TD*%
%TA.AperFunction,ComponentPad*%
%ADD19RoundRect,0.875000X-0.875000X0.875000X-0.875000X-0.875000X0.875000X-0.875000X0.875000X0.875000X0*%
%TD*%
%TA.AperFunction,ComponentPad*%
%ADD20R,1.600000X1.600000*%
%TD*%
%TA.AperFunction,ComponentPad*%
%ADD21O,1.600000X1.600000*%
%TD*%
%TA.AperFunction,ViaPad*%
%ADD22C,0.600000*%
%TD*%
%TA.AperFunction,Conductor*%
%ADD23C,0.500000*%
%TD*%
%TA.AperFunction,Conductor*%
%ADD24C,0.200000*%
%TD*%
G04 APERTURE END LIST*
D10*
%TO.P,R2,1*%
%TO.N,+5V*%
X36771500Y-47340000D03*
D11*
%TO.P,R2,2*%
%TO.N,SW2*%
X41851500Y-47340000D03*
%TD*%
D12*
%TO.P,J2,1,Pin_1*%
%TO.N,Net-(J2-Pin_1)*%
X32717500Y-77978000D03*
D13*
%TO.P,J2,2,Pin_2*%
%TO.N,Net-(J2-Pin_2)*%
X35257500Y-77978000D03*
%TO.P,J2,3,Pin_3*%
%TO.N,Net-(J2-Pin_3)*%
X37797500Y-77978000D03*
%TO.P,J2,4,Pin_4*%
%TO.N,Net-(J2-Pin_4)*%
X40337500Y-77978000D03*
%TD*%
D14*
%TO.P,D1,1,K*%
%TO.N,GND*%
X32194500Y-53690000D03*
D15*
%TO.P,D1,2,A*%
%TO.N,Net-(A1-D2)*%
X34734500Y-53690000D03*
%TD*%
D16*
%TO.P,SW1,1,1*%
%TO.N,SW1*%
X32453500Y-45054000D03*
%TO.P,SW1,2,2*%
%TO.N,GND*%
X34993500Y-45054000D03*
%TO.P,SW1,3*%
%TO.N,N/C*%
X34993500Y-37434000D03*
%TO.P,SW1,4*%
X32453500Y-37434000D03*
%TD*%
D10*
%TO.P,R1,1*%
%TO.N,+5V*%
X36771500Y-49626000D03*
D11*
%TO.P,R1,2*%
%TO.N,SW1*%
X31691500Y-49626000D03*
%TD*%
D16*
%TO.P,U1,1,LARGE*%
%TO.N,GND*%
X41851500Y-75026000D03*
%TO.P,U1,2,MODE*%
X41851500Y-72486000D03*
%TO.P,U1,3,STBY*%
%TO.N,+5V*%
X41851500Y-69946000D03*
%TO.P,U1,4,IN4*%
%TO.N,IN4*%
X41851500Y-67406000D03*
%TO.P,U1,5,IN3*%
%TO.N,IN3*%
X41851500Y-64866000D03*
%TO.P,U1,6,IN2*%
%TO.N,IN2*%
X41851500Y-62326000D03*
%TO.P,U1,7,IN1*%
%TO.N,IN1*%
X41851500Y-59786000D03*
%TO.P,U1,8,GND*%
%TO.N,GND*%
X41851500Y-57246000D03*
%TO.P,U1,9,GND*%
%TO.N,unconnected-(U1-GND-Pad9)*%
X31691500Y-57246000D03*
%TO.P,U1,10,GND*%
%TO.N,unconnected-(U1-GND-Pad10)*%
X31691500Y-59786000D03*
%TO.P,U1,11,OUT1*%
%TO.N,Net-(J2-Pin_4)*%
X31691500Y-62326000D03*
%TO.P,U1,12,OUT2*%
%TO.N,Net-(J2-Pin_3)*%
X31691500Y-64866000D03*
%TO.P,U1,13,OUT3*%
%TO.N,Net-(J2-Pin_2)*%
X31691500Y-67406000D03*
%TO.P,U1,14,OUT4*%
%TO.N,Net-(J2-Pin_1)*%
X31691500Y-69946000D03*
%TO.P,U1,15,VM*%
%TO.N,VCC*%
X31691500Y-72486000D03*
%TO.P,U1,16,VM*%
X31691500Y-75026000D03*
%TD*%
%TO.P,SW2,1,1*%
%TO.N,SW2*%
X41597500Y-45054000D03*
%TO.P,SW2,2,2*%
%TO.N,GND*%
X39057500Y-45054000D03*
%TO.P,SW2,3*%
%TO.N,N/C*%
X41597500Y-37434000D03*
%TO.P,SW2,4*%
X39057500Y-37434000D03*
%TD*%
D14*
%TO.P,D2,1,K*%
%TO.N,GND*%
X39306500Y-53690000D03*
D15*
%TO.P,D2,2,A*%
%TO.N,Net-(A1-D4)*%
X41846500Y-53690000D03*
%TD*%
D12*
%TO.P,J1,1,Pin_1*%
%TO.N,Net-(A1-A0)*%
X26103500Y-67406000D03*
D13*
%TO.P,J1,2,Pin_2*%
%TO.N,Net-(A1-A1)*%
X26103500Y-64866000D03*
%TO.P,J1,3,Pin_3*%
%TO.N,Net-(A1-A2)*%
X26103500Y-62326000D03*
%TO.P,J1,4,Pin_4*%
%TO.N,Net-(A1-A3)*%
X26103500Y-59786000D03*
%TO.P,J1,5,Pin_5*%
%TO.N,Net-(A1-SDA{slash}A4)*%
X26103500Y-57246000D03*
%TO.P,J1,6,Pin_6*%
%TO.N,Net-(A1-SCL{slash}A5)*%
X26103500Y-54706000D03*
%TD*%
D17*
%TO.P,J4,1*%
%TO.N,VCC*%
X36830000Y-30480000D03*
D18*
%TO.P,J4,2*%
%TO.N,GND*%
X36830000Y-24480000D03*
D19*
%TO.P,J4,3*%
%TO.N,N/C*%
X41530000Y-27480000D03*
%TD*%
D20*
%TO.P,A1,1,TX1*%
%TO.N,unconnected-(A1-TX1-Pad1)*%
X44391500Y-39466000D03*
D21*
%TO.P,A1,2,RX1*%
%TO.N,unconnected-(A1-RX1-Pad2)*%
X44391500Y-42006000D03*
%TO.P,A1,3,~{RESET}*%
%TO.N,unconnected-(A1-~{RESET}-Pad3)*%
X44391500Y-44546000D03*
%TO.P,A1,4,GND*%
%TO.N,GND*%
X44391500Y-47086000D03*
%TO.P,A1,5,D2*%
%TO.N,Net-(A1-D2)*%
X44391500Y-49626000D03*
%TO.P,A1,6,D3*%
%TO.N,unconnected-(A1-D3-Pad6)*%
X44391500Y-52166000D03*
%TO.P,A1,7,D4*%
%TO.N,Net-(A1-D4)*%
X44391500Y-54706000D03*
%TO.P,A1,8,D5*%
%TO.N,IN1*%
X44391500Y-57246000D03*
%TO.P,A1,9,D6*%
%TO.N,IN2*%
X44391500Y-59786000D03*
%TO.P,A1,10,D7*%
%TO.N,unconnected-(A1-D7-Pad10)*%
X44391500Y-62326000D03*
%TO.P,A1,11,D8*%
%TO.N,unconnected-(A1-D8-Pad11)*%
X44391500Y-64866000D03*
%TO.P,A1,12,D9*%
%TO.N,IN3*%
X44391500Y-67406000D03*
%TO.P,A1,13,D10*%
%TO.N,IN4*%
X44391500Y-69946000D03*
%TO.P,A1,14,MOSI*%
%TO.N,unconnected-(A1-MOSI-Pad14)*%
X44391500Y-72486000D03*
%TO.P,A1,15,MISO*%
%TO.N,unconnected-(A1-MISO-Pad15)*%
X44391500Y-75026000D03*
%TO.P,A1,16,SCK*%
%TO.N,unconnected-(A1-SCK-Pad16)*%
X29151500Y-75026000D03*
%TO.P,A1,17,3V3*%
%TO.N,unconnected-(A1-3V3-Pad17)*%
X29151500Y-72486000D03*
%TO.P,A1,18,AREF*%
%TO.N,unconnected-(A1-AREF-Pad18)*%
X29151500Y-69946000D03*
%TO.P,A1,19,A0*%
%TO.N,Net-(A1-A0)*%
X29151500Y-67406000D03*
%TO.P,A1,20,A1*%
%TO.N,Net-(A1-A1)*%
X29151500Y-64866000D03*
%TO.P,A1,21,A2*%
%TO.N,Net-(A1-A2)*%
X29151500Y-62326000D03*
%TO.P,A1,22,A3*%
%TO.N,Net-(A1-A3)*%
X29151500Y-59786000D03*
%TO.P,A1,23,SDA/A4*%
%TO.N,Net-(A1-SDA{slash}A4)*%
X29151500Y-57246000D03*
%TO.P,A1,24,SCL/A5*%
%TO.N,Net-(A1-SCL{slash}A5)*%
X29151500Y-54706000D03*
%TO.P,A1,25,A6*%
%TO.N,SW1*%
X29151500Y-52166000D03*
%TO.P,A1,26,A7*%
%TO.N,SW2*%
X29151500Y-49626000D03*
%TO.P,A1,27,+5V*%
%TO.N,+5V*%
X29151500Y-47086000D03*
%TO.P,A1,28,~{RESET}*%
%TO.N,unconnected-(A1-~{RESET}-Pad28)*%
X29151500Y-44546000D03*
%TO.P,A1,29,GND*%
%TO.N,GND*%
X29151500Y-42006000D03*
%TO.P,A1,30,VIN*%
%TO.N,VCC*%
X29151500Y-39466000D03*
%TD*%
D22*
%TO.N,GND*%
X33723500Y-48102000D03*
X38549500Y-50134000D03*
X31183500Y-48102000D03*
X43121500Y-46070000D03*
X30734000Y-42164000D03*
X37279500Y-53690000D03*
X43121500Y-48356000D03*
X37279500Y-55976000D03*
%TO.N,Net-(A1-D2)*%
X43121500Y-55214000D03*
X38041500Y-55214000D03*
X35501500Y-55214000D03*
%TO.N,SW2*%
X38803500Y-51150000D03*
X34739500Y-50896000D03*
%TD*%
D23*
%TO.N,VCC*%
X27627500Y-40990000D02*
X29151500Y-39466000D01*
X30401500Y-71196000D02*
X28496000Y-71196000D01*
X27627500Y-70327500D02*
X27627500Y-40990000D01*
X31691500Y-72486000D02*
X30401500Y-71196000D01*
X28496000Y-71196000D02*
X27627500Y-70327500D01*
X31691500Y-75026000D02*
X31691500Y-72486000D01*
D24*
%TO.N,IN1*%
X41851500Y-59786000D02*
X44391500Y-57246000D01*
D23*
%TO.N,GND*%
X37279500Y-53690000D02*
X37279500Y-51404000D01*
D24*
X38295500Y-50388000D02*
X38549500Y-50134000D01*
D23*
X37279500Y-51404000D02*
X38295500Y-50388000D01*
X37279500Y-55976000D02*
X37279500Y-53690000D01*
X33723500Y-48102000D02*
X31183500Y-48102000D01*
X37279500Y-53690000D02*
X39306500Y-53690000D01*
D24*
X43121500Y-46070000D02*
X43375500Y-46070000D01*
%TO.N,Net-(A1-D2)*%
X35501500Y-55214000D02*
X35501500Y-54457000D01*
X43121500Y-55214000D02*
X38041500Y-55214000D01*
X35501500Y-54457000D02*
X34734500Y-53690000D01*
%TO.N,IN2*%
X44391500Y-59786000D02*
X41851500Y-62326000D01*
%TO.N,Net-(A1-D4)*%
X41846500Y-53690000D02*
X43375500Y-53690000D01*
X43375500Y-53690000D02*
X44391500Y-54706000D01*
D23*
%TO.N,+5V*%
X36771500Y-47340000D02*
X36771500Y-48356000D01*
X29151500Y-47086000D02*
X36517500Y-47086000D01*
X36263500Y-64358000D02*
X41851500Y-69946000D01*
D24*
X36517500Y-47086000D02*
X36771500Y-47340000D01*
D23*
X36771500Y-49626000D02*
X36263500Y-50134000D01*
X36771500Y-48356000D02*
X36771500Y-49626000D01*
X36263500Y-50134000D02*
X36263500Y-64358000D01*
D24*
%TO.N,SW2*%
X41597500Y-45054000D02*
X41597500Y-47086000D01*
X30929500Y-51404000D02*
X29151500Y-49626000D01*
X39057500Y-51150000D02*
X41851500Y-48356000D01*
X38803500Y-51150000D02*
X39057500Y-51150000D01*
X34739500Y-50896000D02*
X34231500Y-51404000D01*
X41851500Y-48356000D02*
X41851500Y-47340000D01*
X34231500Y-51404000D02*
X30929500Y-51404000D01*
X41597500Y-47086000D02*
X41851500Y-47340000D01*
%TO.N,IN3*%
X41851500Y-64866000D02*
X44391500Y-67406000D01*
%TO.N,IN4*%
X41851500Y-67406000D02*
X44391500Y-69946000D01*
D23*
%TO.N,VCC*%
X36830000Y-30480000D02*
X32803500Y-30480000D01*
X29151500Y-34132000D02*
X29151500Y-39466000D01*
X32803500Y-30480000D02*
X29151500Y-34132000D01*
D24*
%TO.N,Net-(J2-Pin_3)*%
X37797500Y-70972000D02*
X31691500Y-64866000D01*
X37797500Y-78303000D02*
X37797500Y-70972000D01*
%TO.N,Net-(J2-Pin_1)*%
X33723500Y-77297000D02*
X33723500Y-71978000D01*
X33723500Y-71978000D02*
X31691500Y-69946000D01*
X32717500Y-78303000D02*
X33723500Y-77297000D01*
%TO.N,Net-(J2-Pin_4)*%
X40327500Y-70962000D02*
X40327500Y-78293000D01*
X40327500Y-78293000D02*
X40337500Y-78303000D01*
X31691500Y-62326000D02*
X40327500Y-70962000D01*
%TO.N,Net-(J2-Pin_2)*%
X35257500Y-70972000D02*
X31691500Y-67406000D01*
X35257500Y-78303000D02*
X35257500Y-70972000D01*
%TD*%
M02*
