%TF.GenerationSoftware,KiCad,Pcbnew,8.0.5*%
%TF.CreationDate,2024-10-09T02:46:16+09:00*%
%TF.ProjectId,LT,4c542e6b-6963-4616-945f-706362585858,rev?*%
%TF.SameCoordinates,Original*%
%TF.FileFunction,Copper,L1,Top*%
%TF.FilePolarity,Positive*%
%FSLAX46Y46*%
G04 Gerber Fmt 4.6, Leading zero omitted, Abs format (unit mm)*
G04 Created by KiCad (PCBNEW 8.0.5) date 2024-10-09 02:46:16*
%MOMM*%
%LPD*%
G01*
G04 APERTURE LIST*
G04 Aperture macros list*
%AMRoundRect*
0 Rectangle with rounded corners*
0 $1 Rounding radius*
0 $2 $3 $4 $5 $6 $7 $8 $9 X,Y pos of 4 corners*
0 Add a 4 corners polygon primitive as box body*
4,1,4,$2,$3,$4,$5,$6,$7,$8,$9,$2,$3,0*
0 Add four circle primitives for the rounded corners*
1,1,$1+$1,$2,$3*
1,1,$1+$1,$4,$5*
1,1,$1+$1,$6,$7*
1,1,$1+$1,$8,$9*
0 Add four rect primitives between the rounded corners*
20,1,$1+$1,$2,$3,$4,$5,0*
20,1,$1+$1,$4,$5,$6,$7,0*
20,1,$1+$1,$6,$7,$8,$9,0*
20,1,$1+$1,$8,$9,$2,$3,0*%
G04 Aperture macros list end*
%TA.AperFunction,ComponentPad*%
%ADD10R,1.800000X1.800000*%
%TD*%
%TA.AperFunction,ComponentPad*%
%ADD11C,1.800000*%
%TD*%
%TA.AperFunction,ComponentPad*%
%ADD12C,1.524000*%
%TD*%
%TA.AperFunction,SMDPad,CuDef*%
%ADD13RoundRect,0.250000X-0.362500X-1.075000X0.362500X-1.075000X0.362500X1.075000X-0.362500X1.075000X0*%
%TD*%
%TA.AperFunction,ComponentPad*%
%ADD14O,1.700000X1.700000*%
%TD*%
%TA.AperFunction,ComponentPad*%
%ADD15R,1.700000X1.700000*%
%TD*%
%TA.AperFunction,SMDPad,CuDef*%
%ADD16RoundRect,0.250000X0.362500X1.075000X-0.362500X1.075000X-0.362500X-1.075000X0.362500X-1.075000X0*%
%TD*%
%TA.AperFunction,SMDPad,CuDef*%
%ADD17RoundRect,0.150000X0.150000X-0.825000X0.150000X0.825000X-0.150000X0.825000X-0.150000X-0.825000X0*%
%TD*%
%TA.AperFunction,ViaPad*%
%ADD18C,0.600000*%
%TD*%
%TA.AperFunction,Conductor*%
%ADD19C,0.500000*%
%TD*%
G04 APERTURE END LIST*
D10*
%TO.P,D2,1,K*%
%TO.N,GND*%
X41270000Y-19195000D03*
D11*
%TO.P,D2,2,A*%
%TO.N,Net-(D2-A)*%
X43810000Y-19195000D03*
%TD*%
D12*
%TO.P,R4,3*%
%TO.N,N/C*%
X41347500Y-29355000D03*
%TO.P,R4,2*%
%TO.N,Net-(R4-Pad2)*%
X46427500Y-29355000D03*
%TO.P,R4,1*%
%TO.N,S2*%
X43887500Y-24275000D03*
%TD*%
D13*
%TO.P,R10,2*%
%TO.N,Net-(R10-Pad2)*%
X76907500Y-33165000D03*
%TO.P,R10,1*%
%TO.N,+5V*%
X72282500Y-33165000D03*
%TD*%
D14*
%TO.P,J2,4,Pin_4*%
%TO.N,Net-(J2-Pin_4)*%
X15875000Y-17135000D03*
%TO.P,J2,3,Pin_3*%
%TO.N,Net-(J2-Pin_3)*%
X15875000Y-19675000D03*
%TO.P,J2,2,Pin_2*%
%TO.N,Net-(J2-Pin_2)*%
X15875000Y-22215000D03*
D15*
%TO.P,J2,1,Pin_1*%
%TO.N,Net-(J2-Pin_1)*%
X15875000Y-24755000D03*
%TD*%
D14*
%TO.P,J1,4,Pin_4*%
%TO.N,S4*%
X55317500Y-19195000D03*
%TO.P,J1,3,Pin_3*%
%TO.N,S3*%
X52777500Y-19195000D03*
%TO.P,J1,2,Pin_2*%
%TO.N,S2*%
X50237500Y-19195000D03*
D15*
%TO.P,J1,1,Pin_1*%
%TO.N,S1*%
X47697500Y-19195000D03*
%TD*%
D16*
%TO.P,R11,2*%
%TO.N,Net-(U5-Anode)*%
X50465000Y-33165000D03*
%TO.P,R11,1*%
%TO.N,+5V*%
X55090000Y-33165000D03*
%TD*%
%TO.P,R1,2*%
%TO.N,Net-(U1-Anode)*%
X19757500Y-33165000D03*
%TO.P,R1,1*%
%TO.N,+5V*%
X24382500Y-33165000D03*
%TD*%
%TO.P,R6,2*%
%TO.N,Net-(U4-Anode)*%
X35225000Y-33165000D03*
%TO.P,R6,1*%
%TO.N,+5V*%
X39850000Y-33165000D03*
%TD*%
D13*
%TO.P,R3,2*%
%TO.N,Net-(R2-Pad2)*%
X31187500Y-33165000D03*
%TO.P,R3,1*%
%TO.N,+5V*%
X26562500Y-33165000D03*
%TD*%
D12*
%TO.P,R2,3*%
%TO.N,N/C*%
X26107500Y-29355000D03*
%TO.P,R2,2*%
%TO.N,Net-(R2-Pad2)*%
X31187500Y-29355000D03*
%TO.P,R2,1*%
%TO.N,S1*%
X28647500Y-24275000D03*
%TD*%
D11*
%TO.P,D1,2,A*%
%TO.N,Net-(D1-A)*%
X27377500Y-19195000D03*
D10*
%TO.P,D1,1,K*%
%TO.N,GND*%
X24837500Y-19195000D03*
%TD*%
D12*
%TO.P,R8,3*%
%TO.N,N/C*%
X71827500Y-29355000D03*
%TO.P,R8,2*%
%TO.N,Net-(R10-Pad2)*%
X76907500Y-29355000D03*
%TO.P,R8,1*%
%TO.N,S4*%
X74367500Y-24275000D03*
%TD*%
D13*
%TO.P,R5,2*%
%TO.N,Net-(R4-Pad2)*%
X46427500Y-33165000D03*
%TO.P,R5,1*%
%TO.N,+5V*%
X41802500Y-33165000D03*
%TD*%
D12*
%TO.P,R7,3*%
%TO.N,N/C*%
X56587500Y-29355000D03*
%TO.P,R7,2*%
%TO.N,Net-(R7-Pad2)*%
X61667500Y-29355000D03*
%TO.P,R7,1*%
%TO.N,S3*%
X59127500Y-24275000D03*
%TD*%
D14*
%TO.P,J3,2,Pin_2*%
%TO.N,GND*%
X15875000Y-29215000D03*
D15*
%TO.P,J3,1,Pin_1*%
%TO.N,+5V*%
X15875000Y-31755000D03*
%TD*%
D10*
%TO.P,D4,1,K*%
%TO.N,GND*%
X70485000Y-19195000D03*
D11*
%TO.P,D4,2,A*%
%TO.N,Net-(D4-A)*%
X73025000Y-19195000D03*
%TD*%
D16*
%TO.P,R12,2*%
%TO.N,Net-(U6-Anode)*%
X65705000Y-33165000D03*
%TO.P,R12,1*%
%TO.N,+5V*%
X70330000Y-33165000D03*
%TD*%
D11*
%TO.P,D3,2,A*%
%TO.N,Net-(D3-A)*%
X62225000Y-19195000D03*
D10*
%TO.P,D3,1,K*%
%TO.N,GND*%
X59685000Y-19195000D03*
%TD*%
D13*
%TO.P,R9,2*%
%TO.N,Net-(R7-Pad2)*%
X61667500Y-33165000D03*
%TO.P,R9,1*%
%TO.N,+5V*%
X57042500Y-33165000D03*
%TD*%
D17*
%TO.P,U2,14,VCC*%
%TO.N,+5V*%
X30480000Y-15240000D03*
%TO.P,U2,13*%
%TO.N,Net-(J2-Pin_4)*%
X31750000Y-15240000D03*
%TO.P,U2,12*%
%TO.N,Net-(J2-Pin_3)*%
X33020000Y-15240000D03*
%TO.P,U2,11*%
%TO.N,S3*%
X34290000Y-15240000D03*
%TO.P,U2,10*%
%TO.N,Net-(D3-A)*%
X35560000Y-15240000D03*
%TO.P,U2,9*%
%TO.N,S4*%
X36830000Y-15240000D03*
%TO.P,U2,8*%
%TO.N,Net-(D4-A)*%
X38100000Y-15240000D03*
%TO.P,U2,7,GND*%
%TO.N,GND*%
X38100000Y-20190000D03*
%TO.P,U2,6*%
%TO.N,Net-(D2-A)*%
X36830000Y-20190000D03*
%TO.P,U2,5*%
%TO.N,S2*%
X35560000Y-20190000D03*
%TO.P,U2,4*%
%TO.N,Net-(J2-Pin_1)*%
X34290000Y-20190000D03*
%TO.P,U2,3*%
%TO.N,Net-(J2-Pin_2)*%
X33020000Y-20190000D03*
%TO.P,U2,2*%
%TO.N,Net-(D1-A)*%
X31750000Y-20190000D03*
%TO.P,U2,1*%
%TO.N,S1*%
X30480000Y-20190000D03*
%TD*%
D11*
%TO.P,U6,4,Collector*%
%TO.N,S4*%
X68017500Y-24130000D03*
%TO.P,U6,3,Emitter*%
%TO.N,GND*%
X65477500Y-24130000D03*
%TO.P,U6,2,Cathode*%
X68017500Y-28230000D03*
%TO.P,U6,1,Anode*%
%TO.N,Net-(U6-Anode)*%
X65477500Y-28230000D03*
%TD*%
%TO.P,U1,4,Collector*%
%TO.N,S1*%
X22297500Y-24130000D03*
%TO.P,U1,3,Emitter*%
%TO.N,GND*%
X19757500Y-24130000D03*
%TO.P,U1,2,Cathode*%
X22297500Y-28230000D03*
%TO.P,U1,1,Anode*%
%TO.N,Net-(U1-Anode)*%
X19757500Y-28230000D03*
%TD*%
%TO.P,U4,4,Collector*%
%TO.N,S2*%
X37537500Y-24130000D03*
%TO.P,U4,3,Emitter*%
%TO.N,GND*%
X34997500Y-24130000D03*
%TO.P,U4,2,Cathode*%
X37537500Y-28230000D03*
%TO.P,U4,1,Anode*%
%TO.N,Net-(U4-Anode)*%
X34997500Y-28230000D03*
%TD*%
%TO.P,U5,4,Collector*%
%TO.N,S3*%
X52777500Y-24130000D03*
%TO.P,U5,3,Emitter*%
%TO.N,GND*%
X50237500Y-24130000D03*
%TO.P,U5,2,Cathode*%
X52777500Y-28230000D03*
%TO.P,U5,1,Anode*%
%TO.N,Net-(U5-Anode)*%
X50237500Y-28230000D03*
%TD*%
D18*
%TO.N,Net-(J2-Pin_3)*%
X33020000Y-15240000D03*
%TO.N,Net-(J2-Pin_2)*%
X26670000Y-22225000D03*
%TO.N,Net-(J2-Pin_1)*%
X25400000Y-26035000D03*
%TO.N,Net-(D2-A)*%
X36830000Y-20190000D03*
%TO.N,S4*%
X36830000Y-15240000D03*
%TO.N,S3*%
X34290000Y-15240000D03*
%TO.N,S1*%
X30480000Y-20320000D03*
%TD*%
D19*
%TO.N,Net-(D3-A)*%
X62225000Y-18410000D02*
X62225000Y-19195000D01*
X60960000Y-17145000D02*
X62225000Y-18410000D01*
X35560000Y-16214999D02*
X36490001Y-17145000D01*
X36490001Y-17145000D02*
X60960000Y-17145000D01*
X35560000Y-15240000D02*
X35560000Y-16214999D01*
%TO.N,GND*%
X59685000Y-19752500D02*
X61667500Y-21735000D01*
X59685000Y-19195000D02*
X59685000Y-19752500D01*
X41270000Y-20315000D02*
X42690000Y-21735000D01*
X41270000Y-19195000D02*
X41270000Y-20315000D01*
X42690000Y-21735000D02*
X61667500Y-21735000D01*
X39095000Y-19195000D02*
X41270000Y-19195000D01*
X38100000Y-20190000D02*
X39095000Y-19195000D01*
%TO.N,Net-(J2-Pin_4)*%
X30829999Y-17135000D02*
X15875000Y-17135000D01*
X31750000Y-16214999D02*
X30829999Y-17135000D01*
X31750000Y-15240000D02*
X31750000Y-16214999D01*
%TO.N,Net-(J2-Pin_2)*%
X31959999Y-22225000D02*
X26670000Y-22225000D01*
X33020000Y-21164999D02*
X31959999Y-22225000D01*
X33020000Y-20190000D02*
X33020000Y-21164999D01*
%TO.N,Net-(J2-Pin_1)*%
X30480000Y-26035000D02*
X25400000Y-26035000D01*
X34290000Y-22225000D02*
X30480000Y-26035000D01*
X34290000Y-20190000D02*
X34290000Y-22225000D01*
%TO.N,GND*%
X31822500Y-27305000D02*
X34997500Y-24130000D01*
X23222500Y-27305000D02*
X31822500Y-27305000D01*
X22297500Y-28230000D02*
X23222500Y-27305000D01*
%TO.N,+5V*%
X13970000Y-16510000D02*
X15240000Y-15240000D01*
X13970000Y-29845000D02*
X13970000Y-16510000D01*
X15947500Y-33446250D02*
X15947500Y-31822500D01*
X15947500Y-31822500D02*
X13970000Y-29845000D01*
X18061250Y-35560000D02*
X15947500Y-33446250D01*
X15240000Y-15240000D02*
X30480000Y-15240000D01*
X25400000Y-35560000D02*
X18061250Y-35560000D01*
%TO.N,Net-(D4-A)*%
X71120000Y-15240000D02*
X73097500Y-17217500D01*
X38100000Y-15240000D02*
X71120000Y-15240000D01*
%TO.N,GND*%
X70485000Y-20465000D02*
X69215000Y-21735000D01*
X69215000Y-21735000D02*
X61667500Y-21735000D01*
%TO.N,Net-(D4-A)*%
X73025000Y-17217500D02*
X73025000Y-19195000D01*
%TO.N,+5V*%
X55090000Y-33165000D02*
X55090000Y-34770000D01*
X55090000Y-34770000D02*
X55880000Y-35560000D01*
X55880000Y-35560000D02*
X67935000Y-35560000D01*
X40640000Y-35560000D02*
X55880000Y-35560000D01*
X67935000Y-35560000D02*
X68017500Y-35477500D01*
X70330000Y-33165000D02*
X68017500Y-35477500D01*
X39850000Y-34770000D02*
X40640000Y-35560000D01*
X39850000Y-33165000D02*
X39850000Y-34770000D01*
X25400000Y-35560000D02*
X40640000Y-35560000D01*
X24382500Y-34542500D02*
X25400000Y-35560000D01*
X24382500Y-33165000D02*
X24382500Y-34542500D01*
%TO.N,GND*%
X47697500Y-26670000D02*
X50237500Y-24130000D01*
X39097500Y-26670000D02*
X47697500Y-26670000D01*
X37537500Y-28230000D02*
X39097500Y-26670000D01*
%TO.N,S2*%
X35560000Y-22152500D02*
X37537500Y-24130000D01*
X35560000Y-20190000D02*
X35560000Y-22152500D01*
%TO.N,GND*%
X47842500Y-21735000D02*
X47770000Y-21735000D01*
X50237500Y-24130000D02*
X47842500Y-21735000D01*
%TO.N,Net-(D1-A)*%
X31750000Y-19050000D02*
X31750000Y-20190000D01*
X30995000Y-18295000D02*
X31750000Y-19050000D01*
X27377500Y-19195000D02*
X28277500Y-18295000D01*
X28277500Y-18295000D02*
X30995000Y-18295000D01*
%TO.N,GND*%
X22152500Y-21735000D02*
X23567500Y-21735000D01*
X19757500Y-24130000D02*
X22152500Y-21735000D01*
X52777500Y-26670000D02*
X50237500Y-24130000D01*
X22297500Y-28230000D02*
X22297500Y-26670000D01*
X65477500Y-24130000D02*
X63082500Y-21735000D01*
X37537500Y-28230000D02*
X37537500Y-26670000D01*
X61667500Y-21735000D02*
X62937500Y-21735000D01*
X24837500Y-20465000D02*
X23567500Y-21735000D01*
X68017500Y-28230000D02*
X68017500Y-26670000D01*
X70485000Y-19195000D02*
X70485000Y-20465000D01*
X24837500Y-19195000D02*
X24837500Y-20465000D01*
X63082500Y-21735000D02*
X62937500Y-21735000D01*
X37537500Y-26670000D02*
X34997500Y-24130000D01*
X52777500Y-28230000D02*
X52777500Y-26670000D01*
X68017500Y-26670000D02*
X65477500Y-24130000D01*
X22297500Y-26670000D02*
X19757500Y-24130000D01*
%TO.N,S3*%
X58982500Y-24130000D02*
X59127500Y-24275000D01*
X52777500Y-24130000D02*
X58982500Y-24130000D01*
%TO.N,S4*%
X68017500Y-24130000D02*
X74222500Y-24130000D01*
X74222500Y-24130000D02*
X74367500Y-24275000D01*
%TO.N,S2*%
X43742500Y-24130000D02*
X43887500Y-24275000D01*
X37537500Y-24130000D02*
X43742500Y-24130000D01*
%TO.N,S1*%
X28502500Y-24130000D02*
X28647500Y-24275000D01*
X22297500Y-24130000D02*
X28502500Y-24130000D01*
%TO.N,+5V*%
X26562500Y-33165000D02*
X24382500Y-33165000D01*
X70330000Y-33165000D02*
X72282500Y-33165000D01*
X57042500Y-33165000D02*
X55090000Y-33165000D01*
X41802500Y-33165000D02*
X39850000Y-33165000D01*
%TO.N,Net-(U1-Anode)*%
X19757500Y-28230000D02*
X19757500Y-33165000D01*
%TO.N,Net-(R2-Pad2)*%
X31187500Y-29355000D02*
X31187500Y-33165000D01*
%TO.N,Net-(R4-Pad2)*%
X46427500Y-29355000D02*
X46427500Y-33165000D01*
%TO.N,Net-(U4-Anode)*%
X34997500Y-32937500D02*
X35225000Y-33165000D01*
X34997500Y-28230000D02*
X34997500Y-32937500D01*
%TO.N,Net-(R7-Pad2)*%
X61667500Y-33165000D02*
X61667500Y-29355000D01*
%TO.N,Net-(R10-Pad2)*%
X76907500Y-29355000D02*
X76907500Y-33165000D01*
%TO.N,Net-(U5-Anode)*%
X50237500Y-32937500D02*
X50465000Y-33165000D01*
X50237500Y-28230000D02*
X50237500Y-32937500D01*
%TO.N,Net-(U6-Anode)*%
X65477500Y-28230000D02*
X65477500Y-32937500D01*
X65477500Y-32937500D02*
X65705000Y-33165000D01*
%TO.N,GND*%
X19685000Y-24130000D02*
X19757500Y-24130000D01*
X15875000Y-27940000D02*
X19685000Y-24130000D01*
X15875000Y-29215000D02*
X15875000Y-27940000D01*
%TD*%
M02*
