%TF.GenerationSoftware,KiCad,Pcbnew,8.0.5*%
%TF.CreationDate,2024-10-09T02:46:16+09:00*%
%TF.ProjectId,LT,4c542e6b-6963-4616-945f-706362585858,rev?*%
%TF.SameCoordinates,Original*%
%TF.FileFunction,Copper,L2,Bot*%
%TF.FilePolarity,Positive*%
%FSLAX46Y46*%
G04 Gerber Fmt 4.6, Leading zero omitted, Abs format (unit mm)*
G04 Created by KiCad (PCBNEW 8.0.5) date 2024-10-09 02:46:16*
%MOMM*%
%LPD*%
G01*
G04 APERTURE LIST*
%TA.AperFunction,ComponentPad*%
%ADD10R,1.800000X1.800000*%
%TD*%
%TA.AperFunction,ComponentPad*%
%ADD11C,1.800000*%
%TD*%
%TA.AperFunction,ComponentPad*%
%ADD12C,1.524000*%
%TD*%
%TA.AperFunction,ComponentPad*%
%ADD13O,1.700000X1.700000*%
%TD*%
%TA.AperFunction,ComponentPad*%
%ADD14R,1.700000X1.700000*%
%TD*%
%TA.AperFunction,ViaPad*%
%ADD15C,0.600000*%
%TD*%
%TA.AperFunction,Conductor*%
%ADD16C,0.500000*%
%TD*%
%TA.AperFunction,Conductor*%
%ADD17C,0.200000*%
%TD*%
G04 APERTURE END LIST*
D10*
%TO.P,D2,1,K*%
%TO.N,GND*%
X41270000Y-19195000D03*
D11*
%TO.P,D2,2,A*%
%TO.N,Net-(D2-A)*%
X43810000Y-19195000D03*
%TD*%
D12*
%TO.P,R4,3*%
%TO.N,N/C*%
X41347500Y-29355000D03*
%TO.P,R4,2*%
%TO.N,Net-(R4-Pad2)*%
X46427500Y-29355000D03*
%TO.P,R4,1*%
%TO.N,S2*%
X43887500Y-24275000D03*
%TD*%
D13*
%TO.P,J2,4,Pin_4*%
%TO.N,Net-(J2-Pin_4)*%
X15875000Y-17135000D03*
%TO.P,J2,3,Pin_3*%
%TO.N,Net-(J2-Pin_3)*%
X15875000Y-19675000D03*
%TO.P,J2,2,Pin_2*%
%TO.N,Net-(J2-Pin_2)*%
X15875000Y-22215000D03*
D14*
%TO.P,J2,1,Pin_1*%
%TO.N,Net-(J2-Pin_1)*%
X15875000Y-24755000D03*
%TD*%
D13*
%TO.P,J1,4,Pin_4*%
%TO.N,S4*%
X55317500Y-19195000D03*
%TO.P,J1,3,Pin_3*%
%TO.N,S3*%
X52777500Y-19195000D03*
%TO.P,J1,2,Pin_2*%
%TO.N,S2*%
X50237500Y-19195000D03*
D14*
%TO.P,J1,1,Pin_1*%
%TO.N,S1*%
X47697500Y-19195000D03*
%TD*%
D12*
%TO.P,R2,3*%
%TO.N,N/C*%
X26107500Y-29355000D03*
%TO.P,R2,2*%
%TO.N,Net-(R2-Pad2)*%
X31187500Y-29355000D03*
%TO.P,R2,1*%
%TO.N,S1*%
X28647500Y-24275000D03*
%TD*%
D11*
%TO.P,D1,2,A*%
%TO.N,Net-(D1-A)*%
X27377500Y-19195000D03*
D10*
%TO.P,D1,1,K*%
%TO.N,GND*%
X24837500Y-19195000D03*
%TD*%
D12*
%TO.P,R8,3*%
%TO.N,N/C*%
X71827500Y-29355000D03*
%TO.P,R8,2*%
%TO.N,Net-(R10-Pad2)*%
X76907500Y-29355000D03*
%TO.P,R8,1*%
%TO.N,S4*%
X74367500Y-24275000D03*
%TD*%
%TO.P,R7,3*%
%TO.N,N/C*%
X56587500Y-29355000D03*
%TO.P,R7,2*%
%TO.N,Net-(R7-Pad2)*%
X61667500Y-29355000D03*
%TO.P,R7,1*%
%TO.N,S3*%
X59127500Y-24275000D03*
%TD*%
D13*
%TO.P,J3,2,Pin_2*%
%TO.N,GND*%
X15875000Y-29215000D03*
D14*
%TO.P,J3,1,Pin_1*%
%TO.N,+5V*%
X15875000Y-31755000D03*
%TD*%
D10*
%TO.P,D4,1,K*%
%TO.N,GND*%
X70485000Y-19195000D03*
D11*
%TO.P,D4,2,A*%
%TO.N,Net-(D4-A)*%
X73025000Y-19195000D03*
%TD*%
%TO.P,D3,2,A*%
%TO.N,Net-(D3-A)*%
X62225000Y-19195000D03*
D10*
%TO.P,D3,1,K*%
%TO.N,GND*%
X59685000Y-19195000D03*
%TD*%
D11*
%TO.P,U6,4,Collector*%
%TO.N,S4*%
X68017500Y-24130000D03*
%TO.P,U6,3,Emitter*%
%TO.N,GND*%
X65477500Y-24130000D03*
%TO.P,U6,2,Cathode*%
X68017500Y-28230000D03*
%TO.P,U6,1,Anode*%
%TO.N,Net-(U6-Anode)*%
X65477500Y-28230000D03*
%TD*%
%TO.P,U1,4,Collector*%
%TO.N,S1*%
X22297500Y-24130000D03*
%TO.P,U1,3,Emitter*%
%TO.N,GND*%
X19757500Y-24130000D03*
%TO.P,U1,2,Cathode*%
X22297500Y-28230000D03*
%TO.P,U1,1,Anode*%
%TO.N,Net-(U1-Anode)*%
X19757500Y-28230000D03*
%TD*%
%TO.P,U4,4,Collector*%
%TO.N,S2*%
X37537500Y-24130000D03*
%TO.P,U4,3,Emitter*%
%TO.N,GND*%
X34997500Y-24130000D03*
%TO.P,U4,2,Cathode*%
X37537500Y-28230000D03*
%TO.P,U4,1,Anode*%
%TO.N,Net-(U4-Anode)*%
X34997500Y-28230000D03*
%TD*%
%TO.P,U5,4,Collector*%
%TO.N,S3*%
X52777500Y-24130000D03*
%TO.P,U5,3,Emitter*%
%TO.N,GND*%
X50237500Y-24130000D03*
%TO.P,U5,2,Cathode*%
X52777500Y-28230000D03*
%TO.P,U5,1,Anode*%
%TO.N,Net-(U5-Anode)*%
X50237500Y-28230000D03*
%TD*%
D15*
%TO.N,Net-(J2-Pin_3)*%
X33020000Y-15240000D03*
%TO.N,Net-(J2-Pin_2)*%
X26670000Y-22225000D03*
%TO.N,Net-(J2-Pin_1)*%
X25400000Y-26035000D03*
%TO.N,Net-(D2-A)*%
X36830000Y-20190000D03*
%TO.N,S4*%
X36830000Y-15240000D03*
%TO.N,S3*%
X34290000Y-15240000D03*
%TO.N,S1*%
X30480000Y-20320000D03*
%TD*%
D16*
%TO.N,Net-(D2-A)*%
X36830000Y-20955000D02*
X36830000Y-20190000D01*
X37465000Y-21590000D02*
X36830000Y-20955000D01*
X41982500Y-21590000D02*
X37465000Y-21590000D01*
X43810000Y-19195000D02*
X43810000Y-19762500D01*
X43810000Y-19762500D02*
X41982500Y-21590000D01*
%TO.N,Net-(J2-Pin_3)*%
X20310000Y-15240000D02*
X15875000Y-19675000D01*
X33020000Y-15240000D02*
X20310000Y-15240000D01*
D17*
%TO.N,Net-(J2-Pin_2)*%
X26670000Y-22225000D02*
X26660000Y-22215000D01*
D16*
X26660000Y-22215000D02*
X15875000Y-22215000D01*
%TO.N,Net-(J2-Pin_1)*%
X17155000Y-26035000D02*
X15875000Y-24755000D01*
X25400000Y-26035000D02*
X17155000Y-26035000D01*
D17*
%TO.N,Net-(D2-A)*%
X36830000Y-20190000D02*
X36830000Y-20320000D01*
D16*
%TO.N,S1*%
X31115000Y-26035000D02*
X29355000Y-24275000D01*
X39525151Y-26035000D02*
X31115000Y-26035000D01*
X45720000Y-21590000D02*
X43970151Y-21590000D01*
D17*
X29355000Y-24275000D02*
X28647500Y-24275000D01*
D16*
X47697500Y-19612500D02*
X45720000Y-21590000D01*
X43970151Y-21590000D02*
X39525151Y-26035000D01*
D17*
X47697500Y-19195000D02*
X47697500Y-19612500D01*
D16*
%TO.N,S4*%
X51362500Y-15240000D02*
X36830000Y-15240000D01*
X55317500Y-19195000D02*
X51362500Y-15240000D01*
%TO.N,S3*%
X35560000Y-16510000D02*
X34290000Y-15240000D01*
X50092500Y-16510000D02*
X35560000Y-16510000D01*
X52777500Y-19195000D02*
X50092500Y-16510000D01*
%TO.N,S1*%
X30480000Y-22442500D02*
X30480000Y-20320000D01*
D17*
X30271250Y-22651250D02*
X30480000Y-22442500D01*
D16*
X30271250Y-22651250D02*
X28647500Y-24275000D01*
%TO.N,S3*%
X52777500Y-24130000D02*
X52777500Y-19195000D01*
%TO.N,S4*%
X65622500Y-21735000D02*
X57857500Y-21735000D01*
X57857500Y-21735000D02*
X55317500Y-19195000D01*
X68017500Y-24130000D02*
X65622500Y-21735000D01*
%TO.N,S2*%
X50237500Y-19195000D02*
X50237500Y-20465000D01*
X46427500Y-24275000D02*
X43887500Y-24275000D01*
X50237500Y-20465000D02*
X46427500Y-24275000D01*
%TD*%
M02*
