M48
; DRILL file {KiCad 8.0.5} date 2024-10-09T02:46:16+0900
; FORMAT={-:-/ absolute / inch / decimal}
; #@! TF.CreationDate,2024-10-09T02:46:16+09:00
; #@! TF.GenerationSoftware,Kicad,Pcbnew,8.0.5
; #@! TF.FileFunction,Plated,1,2,PTH
FMAT,2
INCH
; #@! TA.AperFunction,Plated,PTH,ViaDrill
T1C0.0118
; #@! TA.AperFunction,Plated,PTH,ComponentDrill
T2C0.0300
; #@! TA.AperFunction,Plated,PTH,ComponentDrill
T3C0.0354
; #@! TA.AperFunction,Plated,PTH,ComponentDrill
T4C0.0394
%
G90
G05
T1
X1.0Y-1.025
X1.05Y-0.875
X1.2Y-0.8
X1.3Y-0.6
X1.35Y-0.6
X1.45Y-0.6
X1.45Y-0.7949
T2
X1.0279Y-1.1557
X1.1279Y-0.9557
X1.2279Y-1.1557
X1.6279Y-1.1557
X1.7279Y-0.9557
X1.8279Y-1.1557
X2.2279Y-1.1557
X2.3279Y-0.9557
X2.4279Y-1.1557
X2.8279Y-1.1557
X2.9279Y-0.9557
X3.0279Y-1.1557
T3
X0.7779Y-0.95
X0.7779Y-1.1114
X0.8779Y-0.95
X0.8779Y-1.1114
X0.9779Y-0.7557
X1.0779Y-0.7557
X1.3779Y-0.95
X1.3779Y-1.1114
X1.4779Y-0.95
X1.4779Y-1.1114
X1.6248Y-0.7557
X1.7248Y-0.7557
X1.9779Y-0.95
X1.9779Y-1.1114
X2.0779Y-0.95
X2.0779Y-1.1114
X2.3498Y-0.7557
X2.4498Y-0.7557
X2.5779Y-0.95
X2.5779Y-1.1114
X2.6779Y-0.95
X2.6779Y-1.1114
X2.775Y-0.7557
X2.875Y-0.7557
T4
X0.625Y-0.6746
X0.625Y-0.7746
X0.625Y-0.8746
X0.625Y-0.9746
X0.625Y-1.1502
X0.625Y-1.2502
X1.8779Y-0.7557
X1.9779Y-0.7557
X2.0779Y-0.7557
X2.1779Y-0.7557
M30
