%TF.GenerationSoftware,KiCad,Pcbnew,8.0.5*%
%TF.CreationDate,2024-10-09T02:46:16+09:00*%
%TF.ProjectId,LT,4c542e6b-6963-4616-945f-706362585858,rev?*%
%TF.SameCoordinates,Original*%
%TF.FileFunction,Legend,Bot*%
%TF.FilePolarity,Positive*%
%FSLAX46Y46*%
G04 Gerber Fmt 4.6, Leading zero omitted, Abs format (unit mm)*
G04 Created by KiCad (PCBNEW 8.0.5) date 2024-10-09 02:46:16*
%MOMM*%
%LPD*%
G01*
G04 APERTURE LIST*
%ADD10C,0.100000*%
%ADD11R,1.800000X1.800000*%
%ADD12C,1.800000*%
%ADD13C,1.524000*%
%ADD14O,1.700000X1.700000*%
%ADD15R,1.700000X1.700000*%
G04 APERTURE END LIST*
D10*
X62648919Y-25418095D02*
X63458442Y-25418095D01*
X63458442Y-25418095D02*
X63553680Y-25465714D01*
X63553680Y-25465714D02*
X63601300Y-25513333D01*
X63601300Y-25513333D02*
X63648919Y-25608571D01*
X63648919Y-25608571D02*
X63648919Y-25799047D01*
X63648919Y-25799047D02*
X63601300Y-25894285D01*
X63601300Y-25894285D02*
X63553680Y-25941904D01*
X63553680Y-25941904D02*
X63458442Y-25989523D01*
X63458442Y-25989523D02*
X62648919Y-25989523D01*
X62648919Y-26894285D02*
X62648919Y-26703809D01*
X62648919Y-26703809D02*
X62696538Y-26608571D01*
X62696538Y-26608571D02*
X62744157Y-26560952D01*
X62744157Y-26560952D02*
X62887014Y-26465714D01*
X62887014Y-26465714D02*
X63077490Y-26418095D01*
X63077490Y-26418095D02*
X63458442Y-26418095D01*
X63458442Y-26418095D02*
X63553680Y-26465714D01*
X63553680Y-26465714D02*
X63601300Y-26513333D01*
X63601300Y-26513333D02*
X63648919Y-26608571D01*
X63648919Y-26608571D02*
X63648919Y-26799047D01*
X63648919Y-26799047D02*
X63601300Y-26894285D01*
X63601300Y-26894285D02*
X63553680Y-26941904D01*
X63553680Y-26941904D02*
X63458442Y-26989523D01*
X63458442Y-26989523D02*
X63220347Y-26989523D01*
X63220347Y-26989523D02*
X63125109Y-26941904D01*
X63125109Y-26941904D02*
X63077490Y-26894285D01*
X63077490Y-26894285D02*
X63029871Y-26799047D01*
X63029871Y-26799047D02*
X63029871Y-26608571D01*
X63029871Y-26608571D02*
X63077490Y-26513333D01*
X63077490Y-26513333D02*
X63125109Y-26465714D01*
X63125109Y-26465714D02*
X63220347Y-26418095D01*
X16928919Y-25418095D02*
X17738442Y-25418095D01*
X17738442Y-25418095D02*
X17833680Y-25465714D01*
X17833680Y-25465714D02*
X17881300Y-25513333D01*
X17881300Y-25513333D02*
X17928919Y-25608571D01*
X17928919Y-25608571D02*
X17928919Y-25799047D01*
X17928919Y-25799047D02*
X17881300Y-25894285D01*
X17881300Y-25894285D02*
X17833680Y-25941904D01*
X17833680Y-25941904D02*
X17738442Y-25989523D01*
X17738442Y-25989523D02*
X16928919Y-25989523D01*
X17928919Y-26989523D02*
X17928919Y-26418095D01*
X17928919Y-26703809D02*
X16928919Y-26703809D01*
X16928919Y-26703809D02*
X17071776Y-26608571D01*
X17071776Y-26608571D02*
X17167014Y-26513333D01*
X17167014Y-26513333D02*
X17214633Y-26418095D01*
X32168919Y-25418095D02*
X32978442Y-25418095D01*
X32978442Y-25418095D02*
X33073680Y-25465714D01*
X33073680Y-25465714D02*
X33121300Y-25513333D01*
X33121300Y-25513333D02*
X33168919Y-25608571D01*
X33168919Y-25608571D02*
X33168919Y-25799047D01*
X33168919Y-25799047D02*
X33121300Y-25894285D01*
X33121300Y-25894285D02*
X33073680Y-25941904D01*
X33073680Y-25941904D02*
X32978442Y-25989523D01*
X32978442Y-25989523D02*
X32168919Y-25989523D01*
X32502252Y-26894285D02*
X33168919Y-26894285D01*
X32121300Y-26656190D02*
X32835585Y-26418095D01*
X32835585Y-26418095D02*
X32835585Y-27037142D01*
X47408919Y-25418095D02*
X48218442Y-25418095D01*
X48218442Y-25418095D02*
X48313680Y-25465714D01*
X48313680Y-25465714D02*
X48361300Y-25513333D01*
X48361300Y-25513333D02*
X48408919Y-25608571D01*
X48408919Y-25608571D02*
X48408919Y-25799047D01*
X48408919Y-25799047D02*
X48361300Y-25894285D01*
X48361300Y-25894285D02*
X48313680Y-25941904D01*
X48313680Y-25941904D02*
X48218442Y-25989523D01*
X48218442Y-25989523D02*
X47408919Y-25989523D01*
X47408919Y-26941904D02*
X47408919Y-26465714D01*
X47408919Y-26465714D02*
X47885109Y-26418095D01*
X47885109Y-26418095D02*
X47837490Y-26465714D01*
X47837490Y-26465714D02*
X47789871Y-26560952D01*
X47789871Y-26560952D02*
X47789871Y-26799047D01*
X47789871Y-26799047D02*
X47837490Y-26894285D01*
X47837490Y-26894285D02*
X47885109Y-26941904D01*
X47885109Y-26941904D02*
X47980347Y-26989523D01*
X47980347Y-26989523D02*
X48218442Y-26989523D01*
X48218442Y-26989523D02*
X48313680Y-26941904D01*
X48313680Y-26941904D02*
X48361300Y-26894285D01*
X48361300Y-26894285D02*
X48408919Y-26799047D01*
X48408919Y-26799047D02*
X48408919Y-26560952D01*
X48408919Y-26560952D02*
X48361300Y-26465714D01*
X48361300Y-26465714D02*
X48313680Y-26418095D01*
%TO.C,U6*%
X68997500Y-30530000D02*
X68997500Y-21830000D01*
X68997500Y-21830000D02*
X64497500Y-21830000D01*
X64969500Y-30530000D02*
X68997500Y-30530000D01*
X64969500Y-30530000D02*
X64497500Y-29990000D01*
X64497500Y-21830000D02*
X64497500Y-29990000D01*
%TO.C,U1*%
X23277500Y-30530000D02*
X23277500Y-21830000D01*
X23277500Y-21830000D02*
X18777500Y-21830000D01*
X19249500Y-30530000D02*
X23277500Y-30530000D01*
X19249500Y-30530000D02*
X18777500Y-29990000D01*
X18777500Y-21830000D02*
X18777500Y-29990000D01*
%TO.C,U4*%
X38517500Y-30530000D02*
X38517500Y-21830000D01*
X38517500Y-21830000D02*
X34017500Y-21830000D01*
X34489500Y-30530000D02*
X38517500Y-30530000D01*
X34489500Y-30530000D02*
X34017500Y-29990000D01*
X34017500Y-21830000D02*
X34017500Y-29990000D01*
%TO.C,U5*%
X53757500Y-30530000D02*
X53757500Y-21830000D01*
X53757500Y-21830000D02*
X49257500Y-21830000D01*
X49729500Y-30530000D02*
X53757500Y-30530000D01*
X49729500Y-30530000D02*
X49257500Y-29990000D01*
X49257500Y-21830000D02*
X49257500Y-29990000D01*
%TD*%
%LPC*%
D11*
%TO.C,D2*%
X41270000Y-19195000D03*
D12*
X43810000Y-19195000D03*
%TD*%
D13*
%TO.C,R4*%
X41347500Y-29355000D03*
X46427500Y-29355000D03*
X43887500Y-24275000D03*
%TD*%
D14*
%TO.C,J2*%
X15875000Y-17135000D03*
X15875000Y-19675000D03*
X15875000Y-22215000D03*
D15*
X15875000Y-24755000D03*
%TD*%
D14*
%TO.C,J1*%
X55317500Y-19195000D03*
X52777500Y-19195000D03*
X50237500Y-19195000D03*
D15*
X47697500Y-19195000D03*
%TD*%
D13*
%TO.C,R2*%
X26107500Y-29355000D03*
X31187500Y-29355000D03*
X28647500Y-24275000D03*
%TD*%
D12*
%TO.C,D1*%
X27377500Y-19195000D03*
D11*
X24837500Y-19195000D03*
%TD*%
D13*
%TO.C,R8*%
X71827500Y-29355000D03*
X76907500Y-29355000D03*
X74367500Y-24275000D03*
%TD*%
%TO.C,R7*%
X56587500Y-29355000D03*
X61667500Y-29355000D03*
X59127500Y-24275000D03*
%TD*%
D14*
%TO.C,J3*%
X15875000Y-29215000D03*
D15*
X15875000Y-31755000D03*
%TD*%
D11*
%TO.C,D4*%
X70485000Y-19195000D03*
D12*
X73025000Y-19195000D03*
%TD*%
%TO.C,D3*%
X62225000Y-19195000D03*
D11*
X59685000Y-19195000D03*
%TD*%
D12*
%TO.C,U6*%
X68017500Y-24130000D03*
X65477500Y-24130000D03*
X68017500Y-28230000D03*
X65477500Y-28230000D03*
%TD*%
%TO.C,U1*%
X22297500Y-24130000D03*
X19757500Y-24130000D03*
X22297500Y-28230000D03*
X19757500Y-28230000D03*
%TD*%
%TO.C,U4*%
X37537500Y-24130000D03*
X34997500Y-24130000D03*
X37537500Y-28230000D03*
X34997500Y-28230000D03*
%TD*%
%TO.C,U5*%
X52777500Y-24130000D03*
X50237500Y-24130000D03*
X52777500Y-28230000D03*
X50237500Y-28230000D03*
%TD*%
%LPD*%
M02*
